<?xml version="1.0" encoding="UTF-8"?>
<svg id="Layer_2" data-name="Layer 2" xmlns="http://www.w3.org/2000/svg" viewBox="0 0 40.5 41.07">
  <defs>
    <style>
      .cls-1 {
        fill: #e0c438;
      }

      .cls-1, .cls-2, .cls-3, .cls-4, .cls-5, .cls-6 {
        stroke: #000;
      }

      .cls-1, .cls-2, .cls-7, .cls-8, .cls-9 {
        stroke-width: .22px;
      }

      .cls-1, .cls-3, .cls-7, .cls-10, .cls-8, .cls-4, .cls-11, .cls-5, .cls-9, .cls-12 {
        stroke-linecap: round;
      }

      .cls-1, .cls-3, .cls-7, .cls-10, .cls-8, .cls-4, .cls-11, .cls-9, .cls-12 {
        stroke-linejoin: round;
      }

      .cls-2, .cls-7, .cls-8 {
        fill: #f4bee0;
      }

      .cls-2, .cls-5, .cls-6 {
        stroke-miterlimit: 10;
      }

      .cls-3 {
        fill: #f94e93;
        stroke-width: .68px;
      }

      .cls-7 {
        stroke: #020000;
      }

      .cls-10 {
        stroke: #fff;
      }

      .cls-10, .cls-4, .cls-11, .cls-12 {
        stroke-width: .45px;
      }

      .cls-10, .cls-11 {
        fill: none;
      }

      .cls-8, .cls-11, .cls-9, .cls-12 {
        stroke: #070100;
      }

      .cls-4, .cls-9, .cls-12 {
        fill: #848180;
      }

      .cls-5, .cls-6 {
        fill: #efaca5;
        stroke-width: .9px;
      }
    </style>
  </defs>
  <g id="Layer_1-2" data-name="Layer 1">
    <g id="Animal_Lover_Mascot_5" data-name="Animal Lover Mascot 5">
      <path class="cls-6" d="M36.47,32.04c-.38-.19-.75-.32-1.12-.43.08-.33.13-.69.13-1.07,0-.59-.11-1.13-.29-1.6,4.79-3.66,6.48-10.27,3.08-17.04C34.41,4.19,24.92-1.87,18.55,1.32c-6.37,3.19-7.2,14.42-3.34,22.13,1.97,3.93,4.91,6.44,8.16,7.56-.21.49-.33,1.07-.33,1.7,0,1.14.4,2.12.98,2.66.39.7,1.24,1.46,2.37,2.01,1.81.89,3.63.9,4.06.03.43-.87-.7-2.3-2.51-3.19-.38-.19-.75-.32-1.12-.43.08-.33.13-.69.13-1.07s-.05-.72-.12-1.05c1.6.06,3.22-.2,4.78-.76.07.99.43,1.83.95,2.31.39.7,1.24,1.46,2.37,2.01,1.81.89,3.63.9,4.06.03.43-.87-.7-2.3-2.51-3.19Z"/>
      <ellipse class="cls-6" cx="16.31" cy="22.74" rx="3.64" ry="2.17" transform="translate(-10.54 30.62) rotate(-70.7)"/>
      <path class="cls-5" d="M34.57,18.28c-.28.49-1.51,2.6-2.57,2.77-.87.14-3.55-1.24-3.55-1.24-1.49-.78-2.32-2.14-1.85-3.03s2.43-.3,3.92.48c0,0,1.17-.47,1.56-1.21"/>
      <g id="face">
        <path d="M24.77,17.22c.56,1.27.45,3.79-.81,4.36s-3.22-1.05-3.78-2.32,1.03-.46,2.3-1.02,1.73-2.29,2.3-1.02Z"/>
        <path class="cls-3" d="M30.51,8.53c1.34,1.9-3.57,6.38-4.14,6.38-.74,0-5.22-4.85-3.93-6.5,2.03-2.59,3.92,1.23,3.92,1.23,0,0,2.34-3.67,4.15-1.11Z"/>
        <path class="cls-3" d="M20.35,11.11c1.34,1.9-3.57,6.38-4.14,6.38-.74,0-5.22-4.85-3.93-6.5,2.03-2.59,3.92,1.23,3.92,1.23,0,0,2.34-3.67,4.15-1.11Z"/>
      </g>
      <g id="cat">
        <path class="cls-4" d="M5.12,36.13c-1,.15-.48-2.36-2.24-2.24-2.61.18-3.11-3.98-2.3-4.09.91-.13.32,3.14,2.46,2.93,1.66-.16,3.82,3.15,2.09,3.4Z"/>
        <path class="cls-12" d="M13.72,36.14c0,3.65-2.37,3.97-4.87,3.97s-4.82-.32-4.82-3.97,2.32-7.09,4.82-7.09,4.87,3.44,4.87,7.09Z"/>
        <path class="cls-12" d="M13.01,23.02c.05-.23-.22-.39-.4-.23l-2.34,2.11c-.43-.22-.9-.35-1.39-.35s-.97.13-1.4.36l-2.32-2.1c-.18-.16-.47,0-.41.24l.86,3.97c-.18.44-.28.89-.28,1.32,0,1.72,1.59,2.49,3.56,2.49s3.56-.77,3.56-2.49c0-.43-.1-.89-.29-1.33l.85-3.98Z"/>
        <path class="cls-11" d="M8.04,34.58v3.37s.01.99.01.99c0,.03-.01.06-.02.09.21.09.36.22.36.39,0,.27-.41.48-.82.48-.45,0-.82-.22-.82-.48,0-.16.15-.3.36-.39,0-.03-.02-.06-.02-.09v-.99l.02-3.37"/>
        <line class="cls-10" x1="8.51" y1="40.43" x2="8.51" y2="40.85"/>
        <line class="cls-10" x1="8.19" y1="40.43" x2="8.19" y2="40.85"/>
        <path class="cls-11" d="M10.64,34.58l.04,3.37v.99s-.01.06-.02.09c.21.09.36.22.36.39,0,.27-.41.48-.82.48-.45,0-.82-.22-.82-.48,0-.16.15-.3.36-.39,0-.03-.02-.06-.02-.09v-4.35"/>
        <line class="cls-10" x1="10.79" y1="40.43" x2="10.79" y2="40.85"/>
        <line class="cls-10" x1="10.47" y1="40.43" x2="10.47" y2="40.85"/>
        <path class="cls-9" d="M10.4,28.23c.24.3-.33.86-.64,1.11s-.6.36-.84.06-.19-.75.12-1,1.12-.48,1.36-.18Z"/>
        <path class="cls-9" d="M8.74,29.41c-.25.3-.5.21-.81-.04s-.89-.87-.64-1.16,1.02-.05,1.33.21.36.7.12,1Z"/>
        <path class="cls-2" d="M8.98,28.82l.49-.38c.12-.09.06-.29-.1-.29h-.98c-.15,0-.22.2-.1.29l.49.38c.06.05.14.05.2,0Z"/>
        <g>
          <path class="cls-1" d="M10.65,26.73c0,.53-.25.52-.56.52s-.56.01-.56-.52.25-.96.56-.96.56.43.56.96Z"/>
          <path d="M10.21,26.67c0,.46-.06.52-.13.52s-.13-.06-.13-.52.06-.83.13-.83.13.37.13.83Z"/>
        </g>
        <g>
          <path class="cls-1" d="M8.55,26.73c0,.53-.25.52-.56.52s-.56.01-.56-.52.25-.96.56-.96.56.43.56.96Z"/>
          <path d="M8.12,26.67c0,.46-.06.52-.13.52s-.13-.06-.13-.52.06-.83.13-.83.13.37.13.83Z"/>
        </g>
        <line class="cls-7" x1="7.99" y1="28.32" x2="6.33" y2="27.75"/>
        <line class="cls-7" x1="8.15" y1="28.62" x2="6.55" y2="28.62"/>
        <line class="cls-8" x1="8.3" y1="28.87" x2="6.67" y2="29.72"/>
        <line class="cls-7" x1="9.7" y1="28.5" x2="11.54" y2="27.81"/>
        <line class="cls-7" x1="9.68" y1="28.77" x2="11.71" y2="28.77"/>
        <line class="cls-8" x1="9.51" y1="28.89" x2="10.87" y2="29.78"/>
        <ellipse class="cls-12" cx="5.4" cy="39.35" rx="1.14" ry=".94" transform="translate(-31.38 24.35) rotate(-60)"/>
        <ellipse class="cls-12" cx="12.08" cy="39.29" rx=".94" ry="1.14" transform="translate(-12.49 6.34) rotate(-19.62)"/>
      </g>
    </g>
  </g>
</svg>