<?xml version="1.0" encoding="UTF-8"?>
<svg xmlns="http://www.w3.org/2000/svg" viewBox="0 0 1535.78 354.36">
  <defs>
    <style>
      .cls-1 {
        fill: #6fa088;
      }

      .cls-1, .cls-2 {
        mix-blend-mode: overlay;
      }

      .cls-3 {
        isolation: isolate;
      }

      .cls-2 {
        fill: #ffb71b;
      }

      .cls-4 {
        fill: #51474c;
      }
    </style>
  </defs>
  <g class="cls-3">
    <g id="Layer_2" data-name="Layer 2">
      <g id="Layer_1-2" data-name="Layer 1">
        <g>
          <path class="cls-4" d="M686.92,201.59c-2.25-2.27-3.49-5.18-3.74-8.16-.67-4.08.65-8.41,3.9-11.41l13.33-12.28L871.89,0H0v180.3h.64v174.06h827.96l-128.21-139.16-13.48-13.62Z"/>
          <path class="cls-4" d="M806.56,213.08l-13.48-13.62c-2.25-2.27-3.49-5.18-3.74-8.16-.67-4.08.65-8.41,3.9-11.41l13.33-12.28L975.91,0h-104.02l-171.48,169.74-13.33,12.28c-3.25,3-4.57,7.33-3.9,11.41.24,2.98,1.48,5.88,3.74,8.16l13.48,13.62,128.21,139.16h108.12l-130.16-141.28Z"/>
          <path class="cls-2" d="M806.56,213.08l-13.48-13.62c-2.25-2.27-3.49-5.18-3.74-8.16-.67-4.08.65-8.41,3.9-11.41l13.33-12.28L975.91,0h-104.02l-171.48,169.74-13.33,12.28c-3.25,3-4.57,7.33-3.9,11.41.24,2.98,1.48,5.88,3.74,8.16l13.48,13.62,128.21,139.16h108.12l-130.16-141.28Z"/>
          <path class="cls-4" d="M892.82,205.75c-2.25-2.27-3.49-5.18-3.74-8.16-.67-4.08.65-8.41,3.9-11.41l13.33-12.28L1081.99,0h-62.85c.75,4.13-.47,8.55-3.66,11.71l-185.09,183.22,146.89,159.43h53.4l-124.37-135-13.48-13.62Z"/>
          <path class="cls-2" d="M892.82,205.75c-2.25-2.27-3.49-5.18-3.74-8.16-.67-4.08.65-8.41,3.9-11.41l13.33-12.28L1081.99,0h-62.85c.75,4.13-.47,8.55-3.66,11.71l-185.09,183.22,146.89,159.43h53.4l-124.37-135-13.48-13.62Z"/>
          <path class="cls-4" d="M1015.48,11.71c3.19-3.16,4.41-7.58,3.66-11.71h-43.24l-169.33,167.62-13.33,12.28c-3.25,3-4.57,7.33-3.9,11.41.24,2.98,1.48,5.88,3.74,8.16l13.48,13.62,130.16,141.28h40.55l-146.89-159.43L1015.48,11.71Z"/>
          <path class="cls-2" d="M1015.48,11.71c3.19-3.16,4.41-7.58,3.66-11.71h-43.24l-169.33,167.62-13.33,12.28c-3.25,3-4.57,7.33-3.9,11.41.24,2.98,1.48,5.88,3.74,8.16l13.48,13.62,130.16,141.28h40.55l-146.89-159.43L1015.48,11.71Z"/>
          <path class="cls-2" d="M1015.48,11.71c3.19-3.16,4.41-7.58,3.66-11.71h-43.24l-169.33,167.62-13.33,12.28c-3.25,3-4.57,7.33-3.9,11.41.24,2.98,1.48,5.88,3.74,8.16l13.48,13.62,130.16,141.28h40.55l-146.89-159.43L1015.48,11.71Z"/>
          <path class="cls-4" d="M1030.84,203.62c-2.25-2.27-3.49-5.18-3.74-8.16-.67-4.08.65-8.41,3.9-11.41l13.33-12.28L1217.86,0h-92.35c.06,3.47-1.22,6.97-3.87,9.59l-185.09,183.22,148.84,161.55h85.25l-126.33-137.12-13.48-13.62Z"/>
          <path class="cls-1" d="M1030.84,203.62c-2.25-2.27-3.49-5.18-3.74-8.16-.67-4.08.65-8.41,3.9-11.41l13.33-12.28L1217.86,0h-92.35c.06,3.47-1.22,6.97-3.87,9.59l-185.09,183.22,148.84,161.55h85.25l-126.33-137.12-13.48-13.62Z"/>
          <path class="cls-4" d="M1121.65,9.59c2.65-2.62,3.93-6.11,3.87-9.59h-43.52l-175.68,173.9-13.33,12.28c-3.25,3-4.57,7.33-3.9,11.41.24,2.98,1.48,5.88,3.74,8.16l13.48,13.62,124.37,135h54.73l-148.84-161.55L1121.65,9.59Z"/>
          <path class="cls-2" d="M1121.65,9.59c2.65-2.62,3.93-6.11,3.87-9.59h-43.52l-175.68,173.9-13.33,12.28c-3.25,3-4.57,7.33-3.9,11.41.24,2.98,1.48,5.88,3.74,8.16l13.48,13.62,124.37,135h54.73l-148.84-161.55L1121.65,9.59Z"/>
          <path class="cls-1" d="M1121.65,9.59c2.65-2.62,3.93-6.11,3.87-9.59h-43.52l-175.68,173.9-13.33,12.28c-3.25,3-4.57,7.33-3.9,11.41.24,2.98,1.48,5.88,3.74,8.16l13.48,13.62,124.37,135h54.73l-148.84-161.55L1121.65,9.59Z"/>
          <path class="cls-4" d="M1119.82,205.49c-2.3-2.32-3.57-5.29-3.81-8.33-.68-4.17.67-8.59,3.99-11.65l13.61-12.54L1308.35,0h-84.82c2.88,5.04,2.17,11.6-2.14,15.87l-185.09,183.22,143.05,155.27h78.58l-124.34-134.96-13.76-13.9Z"/>
          <path class="cls-1" d="M1119.82,205.49c-2.3-2.32-3.57-5.29-3.81-8.33-.68-4.17.67-8.59,3.99-11.65l13.61-12.54L1308.35,0h-84.82c2.88,5.04,2.17,11.6-2.14,15.87l-185.09,183.22,143.05,155.27h78.58l-124.34-134.96-13.76-13.9Z"/>
          <path class="cls-4" d="M1221.39,15.87c4.31-4.27,5.02-10.83,2.14-15.87h-5.66l-173.53,171.78-13.33,12.28c-3.25,3-4.57,7.33-3.9,11.41.24,2.98,1.48,5.88,3.74,8.16l13.48,13.62,126.33,137.12h8.7l-143.05-155.27L1221.39,15.87Z"/>
          <path class="cls-1" d="M1221.39,15.87c4.31-4.27,5.02-10.83,2.14-15.87h-5.66l-173.53,171.78-13.33,12.28c-3.25,3-4.57,7.33-3.9,11.41.24,2.98,1.48,5.88,3.74,8.16l13.48,13.62,126.33,137.12h8.7l-143.05-155.27L1221.39,15.87Z"/>
          <path class="cls-1" d="M1221.39,15.87c4.31-4.27,5.02-10.83,2.14-15.87h-5.66l-173.53,171.78-13.33,12.28c-3.25,3-4.57,7.33-3.9,11.41.24,2.98,1.48,5.88,3.74,8.16l13.48,13.62,126.33,137.12h8.7l-143.05-155.27L1221.39,15.87Z"/>
          <path class="cls-4" d="M1236.65,196.52c-2.3-2.32-3.57-5.29-3.81-8.33-.68-4.17.67-8.59,3.99-11.65l13.61-12.54L1416.11,0h-53.6c1.64,4.65.61,10.06-3.11,13.75l-185.09,183.22,145.01,157.39h63.71l-132.61-143.94-13.76-13.9Z"/>
          <path class="cls-2" d="M1236.65,196.52c-2.3-2.32-3.57-5.29-3.81-8.33-.68-4.17.67-8.59,3.99-11.65l13.61-12.54L1416.11,0h-53.6c1.64,4.65.61,10.06-3.11,13.75l-185.09,183.22,145.01,157.39h63.71l-132.61-143.94-13.76-13.9Z"/>
          <path class="cls-4" d="M1359.4,13.75c3.72-3.69,4.76-9.09,3.11-13.75h-54.17l-174.75,172.98-13.61,12.54c-3.32,3.06-4.67,7.48-3.99,11.65.25,3.04,1.52,6.01,3.81,8.33l13.76,13.9,124.34,134.96h61.39l-145.01-157.39L1359.4,13.75Z"/>
          <path class="cls-1" d="M1359.4,13.75c3.72-3.69,4.76-9.09,3.11-13.75h-54.17l-174.75,172.98-13.61,12.54c-3.32,3.06-4.67,7.48-3.99,11.65.25,3.04,1.52,6.01,3.81,8.33l13.76,13.9,124.34,134.96h61.39l-145.01-157.39L1359.4,13.75Z"/>
          <path class="cls-2" d="M1359.4,13.75c3.72-3.69,4.76-9.09,3.11-13.75h-54.17l-174.75,172.98-13.61,12.54c-3.32,3.06-4.67,7.48-3.99,11.65.25,3.04,1.52,6.01,3.81,8.33l13.76,13.9,124.34,134.96h61.39l-145.01-157.39L1359.4,13.75Z"/>
          <path class="cls-4" d="M1347.02,199.12c-2.3-2.32-3.57-5.29-3.81-8.33-.68-4.17.67-8.59,3.99-11.65l13.61-12.54L1529.11,0h-70.07c.65,4.13-.6,8.5-3.78,11.64l-188.96,187.05,143.41,155.66h81.28l-130.21-141.33-13.76-13.9Z"/>
          <path class="cls-2" d="M1347.02,199.12c-2.3-2.32-3.57-5.29-3.81-8.33-.68-4.17.67-8.59,3.99-11.65l13.61-12.54L1529.11,0h-70.07c.65,4.13-.6,8.5-3.78,11.64l-188.96,187.05,143.41,155.66h81.28l-130.21-141.33-13.76-13.9Z"/>
          <path class="cls-4" d="M1455.26,11.64c3.18-3.15,4.43-7.52,3.78-11.64h-42.93l-165.68,164-13.61,12.54c-3.32,3.06-4.67,7.48-3.99,11.65.25,3.04,1.52,6.01,3.81,8.33l13.76,13.9,132.61,143.94h26.68l-143.41-155.66L1455.26,11.64Z"/>
          <path class="cls-2" d="M1455.26,11.64c3.18-3.15,4.43-7.52,3.78-11.64h-42.93l-165.68,164-13.61,12.54c-3.32,3.06-4.67,7.48-3.99,11.65.25,3.04,1.52,6.01,3.81,8.33l13.76,13.9,132.61,143.94h26.68l-143.41-155.66L1455.26,11.64Z"/>
          <path class="cls-2" d="M1455.26,11.64c3.18-3.15,4.43-7.52,3.78-11.64h-42.93l-165.68,164-13.61,12.54c-3.32,3.06-4.67,7.48-3.99,11.65.25,3.04,1.52,6.01,3.81,8.33l13.76,13.9,132.61,143.94h26.68l-143.41-155.66L1455.26,11.64Z"/>
          <path class="cls-4" d="M1472.29,192.75c-2.3-2.32-3.57-5.29-3.81-8.33-.68-4.17.67-8.59,3.99-11.65l13.61-12.54,49.71-49.21V38.61l-152.66,151.11,151.68,164.64h.86v-93.85l-49.62-53.86-13.76-13.9Z"/>
          <path class="cls-1" d="M1472.29,192.75c-2.3-2.32-3.57-5.29-3.81-8.33-.68-4.17.67-8.59,3.99-11.65l13.61-12.54,49.71-49.21V38.61l-152.66,151.11,151.68,164.64h.86v-93.85l-49.62-53.86-13.76-13.9Z"/>
          <path class="cls-4" d="M1535.78,38.61V0h-6.68l-168.31,166.61-13.61,12.54c-3.32,3.06-4.67,7.48-3.99,11.65.25,3.04,1.52,6.01,3.81,8.33l13.76,13.9,130.21,141.33h43.82l-151.68-164.64,152.66-151.11Z"/>
          <path class="cls-2" d="M1535.78,38.61V0h-6.68l-168.31,166.61-13.61,12.54c-3.32,3.06-4.67,7.48-3.99,11.65.25,3.04,1.52,6.01,3.81,8.33l13.76,13.9,130.21,141.33h43.82l-151.68-164.64,152.66-151.11Z"/>
          <path class="cls-1" d="M1535.78,38.61V0h-6.68l-168.31,166.61-13.61,12.54c-3.32,3.06-4.67,7.48-3.99,11.65.25,3.04,1.52,6.01,3.81,8.33l13.76,13.9,130.21,141.33h43.82l-151.68-164.64,152.66-151.11Z"/>
          <polygon class="cls-4" points="1535.68 238.12 1535.68 180.3 1535.78 180.3 1535.78 150.46 1493.49 192.33 1535.68 238.12"/>
          <polygon class="cls-1" points="1535.68 238.12 1535.68 180.3 1535.78 180.3 1535.78 150.46 1493.49 192.33 1535.68 238.12"/>
          <path class="cls-4" d="M1486.07,160.24l-13.61,12.54c-3.32,3.06-4.67,7.48-3.99,11.65.25,3.04,1.52,6.01,3.81,8.33l13.76,13.9,49.62,53.86v-22.4l-42.18-45.79,42.29-41.87v-39.43l-49.71,49.21Z"/>
          <path class="cls-1" d="M1486.07,160.24l-13.61,12.54c-3.32,3.06-4.67,7.48-3.99,11.65.25,3.04,1.52,6.01,3.81,8.33l13.76,13.9,49.62,53.86v-22.4l-42.18-45.79,42.29-41.87v-39.43l-49.71,49.21Z"/>
          <path class="cls-1" d="M1486.07,160.24l-13.61,12.54c-3.32,3.06-4.67,7.48-3.99,11.65.25,3.04,1.52,6.01,3.81,8.33l13.76,13.9,49.62,53.86v-22.4l-42.18-45.79,42.29-41.87v-39.43l-49.71,49.21Z"/>
        </g>
      </g>
    </g>
  </g>
</svg>