<?xml version="1.0" encoding="UTF-8"?>
<svg id="Layer_2" data-name="Layer 2" xmlns="http://www.w3.org/2000/svg" viewBox="0 0 1008.46 470.49">
  <defs>
    <style>
      .cls-1 {
        fill: #818983;
      }

      .cls-2 {
        fill: #6b726d;
      }

      .cls-3 {
        fill: #f77360;
      }

      .cls-4 {
        fill: #c9d6cb;
      }

      .cls-5 {
        fill: #a486bc;
      }

      .cls-6 {
        fill: #3f443f;
      }

      .cls-7 {
        fill: none;
        stroke: #f77360;
        stroke-linecap: round;
        stroke-miterlimit: 10;
      }

      .cls-8 {
        fill: #f96e53;
      }

      .cls-9 {
        fill: #c45e52;
      }

      .cls-10 {
        fill: #303d33;
      }

      .cls-11 {
        fill: #607265;
      }

      .cls-12 {
        fill: #4a6051;
      }

      .cls-13 {
        fill: #5e6861;
      }

      .cls-14 {
        fill: #a24137;
      }

      .cls-15 {
        fill: #ff9079;
      }
    </style>
  </defs>
  <g id="body">
    <rect class="cls-13" x="18.58" width="296.84" height="214.25"/>
    <rect class="cls-4" x="16.81" y="216.15" width="621.11" height="116.69" rx="28.69" ry="28.69"/>
    <polygon class="cls-6" points="977.3 468.8 975.61 319.29 627.6 331.96 16.89 327.74 18.58 0 0 0 2.32 469.78 19.6 469.42 18.58 344.63 288.88 345.47 290.57 469.64 306.62 469.64 307.46 345.47 625.06 345.47 627.6 470.49 643.65 469.64 646.18 346.32 958.71 344.63 959.56 469.64 977.3 468.8"/>
    <path class="cls-12" d="M282.04,279.44s54.11-1.26,91.87,6.29,69.21,15.1,69.21,15.1c0,0,89.35,3.78,132.14,0,42.79-3.78,134.65-2.52,148.49-2.52s142.2,3.78,159.82,3.78,105.71-8.81,105.71-8.81c0,0,13.84-3.78,16.36-16.36,2.52-12.58,6.29-33.98-3.78-55.37-10.07-21.39-52.85-35.24-57.89-35.24s-13.84-3.78-13.84-3.78c0,0-7.55-13.84-28.94-25.17-21.39-11.33-21.39-18.88-72.99-21.39-51.6-2.52-169.89-2.52-186.25-2.52s-89.35,1.26-94.38,2.52-11.33,5.03-18.88,5.03-139.69-5.03-139.69-5.03l-110.74,66.7,3.78,76.76Z"/>
    <path class="cls-10" d="M467.13,160.78s-4.37,6.01-17.48,8.19-19.12,2.73-16.39-.55,21.3-10.38,29.5-11.47,39.88-6.01,46.98-6.56,30.59-7.65,30.59-7.65l8.74.55s-6.01,6.56-21.3,8.19c-15.3,1.64-60.64,9.29-60.64,9.29Z"/>
    <path class="cls-10" d="M319.09,202.29s-13.11,9.83-24.04,36.6-12.02,41.52-12.02,41.52l-12.02,2.19s.55-21.3,8.74-39.33c8.19-18.03,23.49-50.26,53.54-63.91s49.71-17.48,49.71-17.48l-63.91,40.42Z"/>
    <path class="cls-1" d="M352.89,104.89s-12-27.78-20.21-33.47-12-22.73-16.42-24.63-12,0-22.73,5.05-30.31,6.31-41.68,6.31-13.26,1.89-29.05,7.58c-15.79,5.68-20.84,5.68-29.05,5.68s-13.26,6.31-13.26,6.31c0,0,9.47,35.36,21.47,42.31s29.05,10.73,32.2,16.42,6.95,29.05,8.84,32.2,53.04.63,65.67-6.95c12.63-7.58,31.57-21.47,44.83-27.78s19.58-10.1,19.58-14.52-20.21-14.52-20.21-14.52Z"/>
    <path class="cls-2" d="M205.49,115.27c.15-.37-.04-.79-.41-.93-2.38-.89-10.4-4.28-15.73-11.12-6.12-7.85-9.49-18.48-11.02-24.49-.54-2.13-3.12-2.98-4.83-1.59h0c-2.28,1.84-3.12,4.93-2.09,7.67l8.91,23.73s.02.04.03.06c2.23,4.86,5.79,9,10.28,11.91l9.36,6.22c.38.25.89.09,1.05-.33l4.45-11.13Z"/>
    <path class="cls-1" d="M232.98,125.99s-14.52-30.94-22.73-36.62-15.79-23.36-20.21-25.26-13.26,0-24,5.05-30.31,10.1-41.68,10.1-6.95,2.53-22.73,8.21-24.63,19.58-32.84,19.58-32.2,22.1-32.2,22.1c0,0,15.79,16.42,27.78,23.36s6.95,16.42,10.1,22.1,36.62,60.62,38.52,63.78,83.87-10.09,96.5-17.67c12.63-7.58,10.33-29.45,33.06-45.24,12.06-8.38,14.41-28.65,14.41-33.07s-24-16.42-24-16.42Z"/>
    <path class="cls-2" d="M133.8,228.62s5.05-8.21-1.89-14.52c-6.95-6.31-32.84-21.47-37.26-25.26s-15.79-12.63-18.94-20.84c-3.16-8.21-6.95-16.42-15.15-20.21s-20.21-20.21-23.36-20.21,6.31,24,10.73,28.42,9.47,4.42,17.68,20.84,16.42,29.68,22.73,37.26,10.73,16.42,16.42,18.94,18.31,12.63,29.05-4.42Z"/>
    <path class="cls-11" d="M271.34,282.6s-2.52-39.01,32.72-72.99,109.48-54.11,127.1-57.89,31.46-5.03,47.82-6.29,36.49,1.26,42.79,0c6.29-1.26,21.39-5.03,10.07-17.62s-23.91-28.94-52.85-31.46-94.38,1.26-105.71,2.52-47.82-1.26-79.28,17.62-55.37,20.13-75.51,80.54-16.36,78.02-7.55,85.57,25.17,22.65,36.49,18.88,23.91-18.88,23.91-18.88Z"/>
    <path class="cls-15" d="M217.09,185.07s-23.36,28.42-28.08,31.25-15.22,0-15.22,0c0,0-41.15-30.16-61.26-53.09s-26.49-22.1-26.49-22.1l-8.94-5.1s-10.54-6.21-16.2-10.61-15.71-10.05-15.71-10.05c0,0-3.14-3.14,3.46-1.26s10.37,4.08,10.37,4.08c0,0,1.68-.54.67-1.66s-9.06-5.7-11.07-6.6-4.81-1.12-4.14-2.12,4.92-.56,7.16.56,10.29,4.58,10.29,4.58c0,0,1.9-.45.89-1.79s-13.42-7.83-15.54-8.83-2.24-3.24-1.23-3.24,18.79,7.6,19.35,7.83,3.8,1.12,3.24-.22-7.83-7.6-10.18-8.05-5.23-2.11-5.12-2.56-2.37-3.15,2.55-1.47,20.24,10.4,24.71,12.75,10.06,6.04,10.29,5.26-.45-3.24-.89-3.91-1.83-3.12-2.05-4.01-3.32-7.61-3.32-7.61c0,0,1.34,0,2.24,1.12s6.6,7.27,7.16,7.83,3.11,8.57,3.11,8.57l3.3,6.36,2.08,6.2,22.25,24.72,43.73,26.41,10.73,5.63,13.11-19.8,30,13.69-5.24,7.28Z"/>
    <g>
      <path class="cls-15" d="M205.41,108.33s-5.85,0-10.3-1.87-15.93-9.6-15.93-9.6l-3.48,41.57,10.99,5.48s11.7-25.75,14.28-28.79,4.45-6.79,4.45-6.79Z"/>
      <path class="cls-8" d="M174.74,138.1l8.88,4.54s3.51-11.47,3.28-17.56-3.75-21.53-4.45-23.41-4.23-5.15-4.23-5.15c0,0,.95,20.42.95,24.16s-4.43,17.41-4.43,17.41Z"/>
    </g>
    <path class="cls-15" d="M178.95,95.7s1.99,8.15.87,25.12c-.64,9.79-4.12,17.62-4.12,17.62l-1.68,1.71c-.17.76-3.88,2.57-5.45,2.48-4.39-.26-9.5-.21-20.57-1.51-4.74-.55-33.7-18.86-33.7-18.86,0,0-10.26-8.06-8.97-12.45s12.27-15.75,16.3-21.61,4.55-17.78,7.11-17.78,19.26,6.06,25.67,10.64,10.44,5.68,10.44,5.68c0,0-3.85-6.41-3.48-9.52s3.48-5.68,5.31-4.58,6.59,3.11,9.71,9.52,2.56,13.55,2.56,13.55Z"/>
    <path class="cls-9" d="M127.92,128.57s2.26.5,4.02-.75,4.52-6.15,4.52-6.15c0,0-2.57,6.46-3.37,6.91s-2.45,1.25-5.17,0Z"/>
    <path class="cls-7" d="M145.88,121.29l2.64,6.91s1.13-1.38,4.39-2.64"/>
    <path class="cls-3" d="M164.84,116.89s.24-.86,1,3.39c.91,5.04-10.17,14.44-10.17,14.44,0,0,6.43-8.72,7.15-9.67s1.46-2.61,1.54-3.8c.12-1.66.48-4.36.48-4.36Z"/>
    <path class="cls-14" d="M140.08,100.03s3.01-5.9,5.27-6.66,5.27-1.26,5.27-1.26c0,0-.13-3.01-1.13-2.51s-5.27,1.38-7.53,4.77-3.52,5.65-3.52,5.65c0,0-.75,1.38,1.63,0Z"/>
    <path class="cls-9" d="M153.92,98.43s.13,2.39-.5,3.77-5.4,4.27-5.4,4.27c0,0,4.6-1.81,5.13-2.44s1.97-2.42,1.7-3.67-.93-1.93-.93-1.93Z"/>
    <path class="cls-14" d="M129.38,114.02s-5.58,3.57-6.11,5.89-.74,5.37-.74,5.37c0,0-3.01.17-2.61-.88s.86-5.38,4.02-7.96,5.28-4.05,5.28-4.05c0,0,1.3-.88.16,1.62Z"/>
    <path class="cls-14" d="M102.9,116.76c-2.81-1.87-11.01-15.91-9.2-22.71,3.39-12.71,5.14-17.19,6.27-18.23,3.7-3.42,11.62-9.52,13.96-11.39s15.1-12.25,36.18-3.13,36.2,27.65,37.6,29.06,9.44,3.64,18.8,5.98,16.3-.87,31.05-2.28c8.26-.79,33.63,9.84,31.75,11.94s-9.13,7.49-12.17,8.66-47.52,1.4-47.52,1.4c0,0-16.35.2-23.17-7.26-12.64-13.81-14.66-35.3-19.78-36.18-7.38-1.27-1.83,14.1-1.83,14.1,0,0-20.44-13.19-39.24.2-2.06,1.47-7.41,9.69-7.41,9.69,0,0-9.4,10.26-12.87,13.18l7.27,11.37-9.7-4.41Z"/>
    <path class="cls-5" d="M289.75,116.33c-.36-.61-.91-1.09-1.57-1.37-5.27-2.21-29.75-12.36-42.64-15.22-14.83-3.29-23.93-5.41-32.47.29-9.89,6.59-13.65,12.89-20.24,26.89-5.27,11.2-9.46,27.54-10.95,33.74-.35,1.47.33,3,1.66,3.71l37.67,20.28c1.61.87,3.62.27,4.5-1.33l15.51-28.23c.03-.05.06-.11.09-.16l3.82-6.11c.26-.42.62-.78,1.04-1.05l42.49-26.92c1.52-.97,2-2.97,1.08-4.52h0Z"/>
  </g>
</svg>