<?xml version="1.0" encoding="UTF-8"?>
<svg id="Layer_2" data-name="Layer 2" xmlns="http://www.w3.org/2000/svg" viewBox="0 0 795.69 224.35">
  <defs>
    <style>
      .cls-1 {
        fill: #cbc8bd;
      }

      .cls-2 {
        fill: #fdf6e0;
        stroke: #000;
        stroke-miterlimit: 10;
        stroke-width: 2.22px;
      }

      .cls-3 {
        fill: #432230;
      }

      .cls-4 {
        fill: #3a1927;
      }

      .cls-5 {
        fill: #391827;
      }
    </style>
  </defs>
  <g id="Bone">
    <g>
      <path class="cls-2" d="M617.94,115.51l-458.57,61.09s-31.77,1.63-45.61,11.4c-13.85,9.77-39.91,28.51-45.61,30.95-5.7,2.44-22.81,7.33-32.58,1.63-9.77-5.7-29.32-15.48-30.95-22.81s-6.52-18.73-.81-23.62c5.7-4.89,19.55-21.99,28.51-23.62,8.96-1.63,12.22,1.63,14.66-3.26,2.44-4.89,2.44-5.7,0-11.4,0,0-6.22-9.56-9.46-12.8-3.24-3.24-6.47-12.63-1.94-19.75s15.54-15.54,18.78-15.86,9.06-5.18,22.98.32c13.92,5.5,23.63,14.24,26.22,16.51,2.59,2.27,10.04,4.86,10.04,4.86,0,0,13.27,5.83,19.1,5.83s31.4,3.88,40.47,3.24,48.88-.97,56.65-1.62c7.77-.65,159.27-21.37,159.27-21.37,0,0,249.27-33.02,263.84-42.73,0,0,6.8.65,10.04-3.24,3.24-3.88,8.09-12.95,11.65-13.6s8.74-2.91,9.39-4.53c.65-1.62,1.62-8.42,6.47-13.27s13.6-15.22,22.34-16.19,17.16-.97,21.04,2.27c3.88,3.24,9.71,6.8,10.36,11.65.65,4.86,2.27,10.68.65,15.86-1.62,5.18-5.5,8.74-6.15,13.6s-4.21,5.18-.65,8.09c3.56,2.91,5.83,4.86,6.8,6.8.97,1.94-.32,9.06.65,11.65s.97,10.36,8.42,13.27c7.45,2.91,25.57,12.63,25.57,12.63,0,0,10.68,11.33,12.63,14.24s2.91,9.39,2.27,11.33c-.65,1.94-3.24,6.8-8.42,8.09-5.18,1.29-6.15,3.56-6.47,5.83s-3.24,7.45-14.57,9.06c-11.33,1.62-22.34,1.29-28.81.65s-19.75-5.5-27.84-10.04c-8.09-4.53-22.98-13.6-29.14-14.57s-48.26-9.3-61.2-6.59Z"/>
      <path class="cls-1" d="M773.83,100.36s3.34,3.28-4.36,3.98-11.81-2.57-15.66-3.75-4.62-3.04-9.76-3.04-12.07-.23-17.46.94-15.66,2.34-19.77,1.64-15.66-4.45-17.46-6.55c-1.8-2.11-8.47-9.36-9.76-9.83s-8.21.47-12.32.94-179.44,30.9-194.59,32.07c-15.15,1.17-108.08,12.17-116.04,12.87s-86.26,11.94-95.5,12.41-107.05,12.87-107.05,12.87c0,0-32.35,4.45-37.48,4.68s-10.01-3.04-11.55-4.21-6.93-7.26-11.04-7.96-10.01-1.87-10.01-1.17.77.94,2.57,2.81,6.67,5.62,5.9,9.36c-.77,3.75-3.85,12.64-10.53,12.17s-13.61-5.38-16.17-6.32-12.58-7.26-21.82-6.09-18.48,3.51-20.02,8.9-.51,6.79-.51,6.79c0,0,2.82-2.11,5.39-.94s5.9,2.34,5.39,4.92-1.03,7.49-5.13,7.49-10.53-2.57-11.55-2.57-2.57,1.64-2.57,1.64c0,0,7.44,7.96,13.86,11.24,6.42,3.28,12.39,17.22,18.04,17.22s17.46-.46,22.09-3.27,19.47-15.3,21.27-17.18c1.8-1.87,30.65-17.88,36.81-18.81,6.16-.94,133.1-18.22,141.57-18.92,8.47-.7,368.9-45.65,372.5-45.88s25.67.23,36.2,5.38c10.53,5.15,40.3,18.02,43.9,18.49s6.93,3.04,11.81,3.04,24.13,0,27.98-.94,9.76-1.87,9.76-4.92,3.85-6.55,3.85-6.55c0,0,6.42-.94,7.96-2.57s4.62-5.62,1.8-8.43c-2.82-2.81-2.05-8.19-10.53-11.94Z"/>
      <path class="cls-1" d="M73.82,135.67s-8.05-1.15-13.23-1.15-6.9-1.15-6.9-5.18-1.15-2.3-4.03-5.18-7.48-4.03-7.48-9.78-.58-15.53,2.3-13.81,4.03,2.88,5.18,6.9c1.15,4.03,1.27,6.64,5.29,8.36s12.54,9.47,16.57,10.05,12.66,1.73,15.53,4.6,8.05,9.78,5.18,9.2-18.41-4.03-18.41-4.03Z"/>
      <path class="cls-1" d="M721.6,62.56s3.45-2.12,8.49-.8c5.04,1.33,9.81,2.65,10.34,1.86s1.06-3.45-1.33-6.1-8.22-5.83-8.22-8.75-1.33-5.04,1.59-8.49c2.92-3.45,8.22-8.49,8.22-9.55s3.98-5.04,1.59-6.9-4.77-2.65-6.1-.27c-1.33,2.39-2.92,6.63-5.83,10.08-2.92,3.45-1.86,5.83-6.1,3.98s-5.57-3.98-8.22-3.18c-2.65.8-5.83-.27-5.3,3.18s.8,3.71,3.71,7.43,3.98,5.04,3.45,8.75-1.59,6.9-1.59,6.9c0,0,2.92,2.12,5.3,1.86Z"/>
      <path class="cls-5" d="M722.39,40.63s3.93.73,3.93,3.65-2.62,3.28-2.62,3.28l-.44-2.92-4.37-4.01h3.5Z"/>
      <path class="cls-4" d="M497.3,90s-128.7,19.68-144.39,23.13c-15.69,3.46-82.96,12.76-95.73,12.76h-32.17s120.72-16.49,128.7-16.75c7.98-.27,106.89-15.69,106.89-15.69l36.69-3.46Z"/>
      <path class="cls-4" d="M735.42,73.74c.11.11.05.29-.1.31-1.6.15-7.64.76-9.98,1.54-2.71.9-4.29-2.48-9.47-4.29s-6.99-4.51-11.05-2.71c-4.06,1.8-8.34,4.06-9.02,4.51s2.26-7.44,5.41-8.34,8.57-3.83,13.53-.23c4.96,3.61,8.57,6.77,8.57,6.77l9.25-.23,2.86,2.66Z"/>
      <path class="cls-4" d="M580.49,77.95s-8.36,3.42-15.58,3.42-22.42.38-22.42.38c0,0,15.2-3.42,18.24-3.42s19.76-.38,19.76-.38Z"/>
      <path class="cls-3" d="M101.44,146.92s-8.16-5.94-12.99-5.94-13.73-.37-15.95-.37,2.6,1.86,2.6,1.86c0,0,7.05-.37,10.39.37,3.34.74,15.95,4.08,15.95,4.08Z"/>
      <path class="cls-3" d="M167.11,148.77s-21.89,2.97-30.05,2.97h-13.73s7.79-3.71,13.36-3.71,27.45,1.48,30.42.74Z"/>
      <path class="cls-3" d="M200.77,142.14c.86,1.25-.22,2.9-2.05,3.14-4.55.61-11.65,1.56-12.87,1.77-1.83.31-4.37-1.34-1.07-1.9,3.29-.56,16-3.01,16-3.01h0Z"/>
    </g>
  </g>
</svg>