<?xml version="1.0" encoding="UTF-8"?>
<svg id="Layer_2" data-name="Layer 2" xmlns="http://www.w3.org/2000/svg" viewBox="0 0 77.44 71.49">
  <defs>
    <style>
      .cls-1 {
        fill: #314724;
      }

      .cls-2 {
        fill: #8ebe40;
      }

      .cls-3 {
        fill: #54803e;
      }
    </style>
  </defs>
  <g id="broccoli">
    <g>
      <path class="cls-2" d="M43.49,52.42l-.6,4.77s-21.45,9.53-29.79,9.53S0,60.17,0,60.17l21.45-20.85,6.55-8.94,4.77,2.98-7.15,7.74,11.32-4.17,4.19,8.34-5.98,7.74"/>
      <polygon class="cls-3" points="40.51 57.19 38.72 63.15 42.89 68.51 52.42 71.49 54.81 67.32 59.57 67.91 64.34 66.72 69.7 56.59 73.87 54.21 69.1 49.44 70.89 42.3 77.44 42.3 76.85 33.36 73.27 25.02 73.27 20.25 67.91 20.25 66.72 15.49 62.55 11.32 56 12.51 52.42 5.36 44.08 0 36.34 5.96 27.4 5.96 22.64 11.32 20.85 20.25 14.3 20.25 14.3 28 19.66 34.55 31.57 34.55 38.13 41.1 41.1 49.44 40.51 57.19"/>
      <polyline class="cls-1" points="66.87 22.6 70.87 23.73 74.09 30.24 75.81 33.74 77.15 39.92 73.43 38.65"/>
      <polygon class="cls-3" points="42.07 46.05 5.27 64.51 3.19 63.21 41.06 44.35 42.07 46.05"/>
      <polygon class="cls-1" points="57.33 47.61 65.34 54.25 64.43 58.83 61.91 65.69 57.1 65.92 52.29 62.26 57.33 64.32 60.99 61.57 62.37 56.54 57.33 47.61"/>
      <polygon class="cls-1" points="63.74 18.99 63.74 14.19 60.31 13.27 53.9 16.71 50.46 21.06 60.31 16.48 63.74 18.99"/>
      <polygon class="cls-1" points="50.46 14.42 51.15 6.4 44.51 2.28 38.79 5.95 44.05 5.72 47.72 8.01 48.17 13.96 50.46 14.42"/>
      <polygon class="cls-1" points="52.52 49.44 62.14 42.57 58.48 32.73 57.56 28.15 54.35 24.72 45.88 23.34 50.01 25.86 53.67 28.15 53.67 34.79 57.33 39.14 52.52 49.44"/>
      <path class="cls-3" d="M46.34,55.53s-13.05.39-22.66,2.37c-9.61,1.97-12.36,1.84-12.36,1.84,0,0,12.36-5.65,18.77-5.78s17.86-.39,17.86-.39l-1.6,1.97Z"/>
      <polygon class="cls-1" points="26.2 13.96 21.39 23.8 18.19 26.55 18.87 29.75 22.99 29.53 29.4 29.53 34.21 31.36 32.15 28.38 21.85 27.69 25.28 20.83 26.2 13.96"/>
    </g>
  </g>
</svg>