<?xml version="1.0" encoding="UTF-8"?>
<svg id="Layer_2" data-name="Layer 2" xmlns="http://www.w3.org/2000/svg" viewBox="0 0 97.29 68.31">
  <defs>
    <style>
      .cls-1 {
        fill: #ed8733;
      }

      .cls-2 {
        fill: #ee9443;
      }

      .cls-3 {
        fill: #ed8433;
      }

      .cls-4 {
        fill: #f2a93b;
      }

      .cls-5 {
        fill: #f09636;
      }

      .cls-6 {
        fill: #f4b63f;
      }

      .cls-7 {
        fill: #f09136;
      }

      .cls-8 {
        fill: #ef8a57;
      }

      .cls-9 {
        fill: #f6c74a;
      }
    </style>
  </defs>
  <g id="cheese">
    <g id="cheese-2" data-name="cheese">
      <path class="cls-4" d="M97.03,25.14L31.34.73S2.78,6.5.47,12.06c-2.55,6.15,6.04,45.11,6.04,45.11l48.15,6.02s3.77-3.11,6.78-3.11,2.95,1.11,6.02,3.86c1.97,1.76,29.57,4.38,29.57,4.38l.26-26.56c-4.51-7.52-.39-8.11-.39-8.11l.13-8.5Z"/>
      <polygon class="cls-9" points="97.03 25.14 1.44 12.53 33.12 2.07 97.03 25.14"/>
      <path class="cls-6" d="M2.24,12.38s.37,40.26,6.31,43.78c0,0,25.6,1.48,34.32-.37s45.52-10.98,54.42-14.04c0,0-.9.29-1.83-3.24s.33-4.04,1.26-4.23.31-9.15.31-9.15L2.24,12.38Z"/>
      <path class="cls-8" d="M9.31,57.42S.83,30.19,2.24,12.38c0,0,20.01-7.62,29.18-9.74l2.36-.91s-.86-2.05-2.63-1.69S1.54,8.68.3,10.8s1.45,39.14,6.21,46.37l2.8.26Z"/>
      <path class="cls-5" d="M18.55,25.78s1.32-1.84-.93-4.35c-2.79-3.1-4.73-3.34-6.75-2.56s-3.94,2.36-4.35,4.73-.7,5.9.16,7.06,2.79,1.4,3.34,1.4,2.48-.54,3.72-1.55,4.81-4.73,4.81-4.73Z"/>
      <path class="cls-5" d="M24.74,44.54c.07,1.63-.28,6.74-2.56,8.38-2.48,1.78-4.58,1.32-5.82-.31s-1.24-4.73,1.01-7.14c1.95-2.09,3.18-2.95,4.42-2.95s2.87.31,2.95,2.02Z"/>
      <path class="cls-5" d="M34.84,31.07s3.64,1.94,5.03,3.62c.98,1.18,1.14,1.96-.23,3.51s-1.7,2.87-4.32,2.92c-2.17.04-4.77-3.63-6.19-5.38-.96-1.17-3.2-5.96-3.74-7.11-.08-.16-.1-.35-.07-.53l.09-.52c.06-.36.37-.62.73-.62.7,0,1.32-.2,2.41.36.93.48,6.31,3.74,6.31,3.74Z"/>
      <path class="cls-5" d="M54.42,27.37c.19,0,.37.05.55.12.63.25,2.2.93,2.73,1.8.67,1.1,1.47,2.82.61,3.98s-3.81,2.84-4.84,3c-1.96.31-3.12.61-3.98-1.29s-.94-4.52-.74-5.02c.74-1.84,2.03-2.52,2.94-2.63,1.41-.18,2.13.02,2.72.05Z"/>
      <g>
        <path class="cls-5" d="M56.27,49.17c-.04.15-.26.38-.36.49l-6.58,7.79s-.32.88-2.06,1.03-4.77-.71-4.63-2.37,1.28-4.79,2-5.62c.87-1.02,2.46-2.83,4.24-3.32s4.54-.83,5.35-.67,1.59.17,2.02,1.27c.24.63.12,1,.03,1.4Z"/>
        <path class="cls-1" d="M52.09,53.96l-9.22,1.83s-1.03.92,1.43,2.19c.85.44,2.61.57,3.66.45,1.3-.15,4.18-4.43,4.13-4.47Z"/>
      </g>
      <g>
        <path class="cls-3" d="M86.71,45.04s1.81,9.13,1.52,11.01-1.09,3.04-2.46,3.04-7.17.29-9.27-1.23-3.62-3.62-3.62-4.27-.72-2.39,1.81-4.42,8.04-5.58,8.04-5.58c0,0,1.16-.43,1.96-.29s1.45.29,2.03,1.74Z"/>
        <path class="cls-7" d="M86.71,44.93l-9.79,2.53s1.58-2.01,3.9-3.09,2.61-1.52,3.77-1.38c1.6.19,2.13,1.94,2.13,1.94Z"/>
      </g>
      <path class="cls-2" d="M64.65,61s-.64.17-3.21,0c-2.07-.14-6.94,1.92-6.94,1.92,0,0,1.22-1.63,1.63-1.98s1.33-.9,3.03-1.52c1.92-.7,3.73,0,4.26.35s1.22,1.22,1.22,1.22Z"/>
      <path class="cls-2" d="M97.29,41.76s-1.23-2.06-1.68-3.05c-.38-.84-.37-3.55-.37-3.55,0,0-.94,1.88-.65,3.22.25,1.18,2.53,3.59,2.7,3.38Z"/>
    </g>
  </g>
</svg>