<?xml version="1.0" encoding="UTF-8"?>
<svg id="Layer_2" data-name="Layer 2" xmlns="http://www.w3.org/2000/svg" viewBox="0 0 38.89 49.3">
  <defs>
    <style>
      .cls-1 {
        fill: #a45935;
      }

      .cls-2 {
        fill: #c17246;
      }

      .cls-3 {
        fill: #dc875e;
      }
    </style>
  </defs>
  <g id="eggs">
    <g id="Egg">
      <path class="cls-2" d="M18.19,1.84s2.53.88,10.09,8.84c7.61,8.02,13.19,16.44,8.91,25.7-4.28,9.26-13.06,11.95-16.58,12.43s-11.51-1.19-14.71-5.8C2.5,38.13-1.08,21.95.31,15.25,1.91,7.49,4.16,4.46,5.96,2.81c2.7-2.48,6.21-4.36,12.23-.97Z"/>
      <path class="cls-1" d="M28.49,10.97c-.43-.46-.85-.88-1.25-1.29,5.07,6.49,9.27,14.95,5.72,22.94-4.14,9.32-9.65,12.46-13.66,13.03-2.41.34-5.9,1.22-13.94-3.51.68,1.15.79,1.37,1.4,2.02,2.95,3.11,9.65,5.54,15.05,5.11,3.55-.28,11.31-3.33,15.59-12.59,4.28-9.26-1.3-17.68-8.91-25.7Z"/>
      <ellipse class="cls-3" cx="6.02" cy="12.88" rx="8.06" ry="3.47" transform="translate(-7.97 15.39) rotate(-75.13)"/>
    </g>
  </g>
</svg>