<?xml version="1.0" encoding="UTF-8"?>
<svg id="Layer_2" data-name="Layer 2" xmlns="http://www.w3.org/2000/svg" viewBox="0 0 170.56 71.94">
  <defs>
    <style>
      .cls-1 {
        fill: #819fb4;
      }

      .cls-2 {
        fill: #4e6676;
      }

      .cls-3 {
        fill: #4a6271;
      }

      .cls-4 {
        fill: #a9bfce;
      }

      .cls-5 {
        fill: #a7bdcc;
      }

      .cls-6 {
        fill: #ccd7df;
      }

      .cls-7 {
        fill: #b7c3c8;
      }

      .cls-8 {
        fill: #496170;
      }

      .cls-9 {
        fill: #99b2c3;
      }
    </style>
  </defs>
  <g id="fish">
    <g id="Fish">
      <path class="cls-3" d="M40.64,41.6s-9.75-7.77-17.34-9.03c-7.59-1.26-18.42-1.44-20.95-.36-.37.16-.7.33-.99.51-1.5.94-1.8,3-.74,4.43.98,1.33,2.34,2.82,3.54,2.82,2.17,0,3.83.07,5.06.54,1.3.5,2.33,1.5,3.02,2.14.27.25.61.39.98.39,1.15.01,3.74.11,5.21.72,1.79.75,3.3,3.06,3.97,3.43,1.11.61,2.96.9,4.88,1.44.53.15.94.38,1.24.59.44.31,1,.39,1.52.27l2.32-.71s-.75-1.59-.57-2.49,8.85-4.7,8.85-4.7Z"/>
      <path class="cls-3" d="M43.9,50.99s-.96,8.43-9.93,13.73c-11.02,6.5-19.87,7.22-21.67,7.22h-1.81s.18-3.61,2.35-6.14,3.07-3.07,4.52-3.79,2.35-3.97,3.61-5.24,2.89-4.52,4.33-4.7,2.53-.18,3.97-1.26,2.71-2.35,2.71-2.35c0,0,.39,1.21,5.06,1.99,5.42.9,6.86.54,6.86.54Z"/>
      <path class="cls-9" d="M169.76,19.94s-4.38,14.72-29.84,24.27c-22.88,8.58-42.87,9.45-46.7,9.54-.42,0-.83-.01-1.24-.06-2.92-.36-16.17-1.96-25.68-2.31-10.74-.4-27.06-1.19-29.84-1.19s-3.49.42-4.59-1.34-.66-3.96.33-4.4,10.68-3.41,12.22-3.96,11.56-4.07,17.29-7.49,42.61-21.8,51.64-24.11,16.52-4.07,27.53-3.41,15.01.65,20.26,2.47c1.64.57,2.92,1.09,3.99,1.58,3.89,1.8,5.9,6.2,4.68,10.31-.01.04-.02.08-.03.11Z"/>
      <circle class="cls-8" cx="151.41" cy="15.17" r="1.91"/>
      <path class="cls-8" d="M124.14,6.54S113.88.52,112.07.24s-2.69-1-3.74,3.06c-1.04,4.06-1.18,8.14-1.18,8.14,0,0,8.07-3.37,16.98-4.9Z"/>
      <path class="cls-8" d="M76.49,25.36s-12.76-1.48-13.67-1.03,0,4.32.45,5.91l.45,1.59s9.26-4.79,12.76-6.47Z"/>
      <path class="cls-1" d="M147.66,31.67s11.39-8.16,13.76-12.88c2.74-5.49,2.22-9.54,2.88-9.28,1.93.76,4.76,2.14,5.73,3.73.74,1.22.77,2.2-.41,5.39-1.73,4.63-4.21,9.05-10.28,14.19-5.55,4.7-6.89,4.97-6.89,4.97,0,0-4.09-4.58-4.79-6.11Z"/>
      <path class="cls-7" d="M60.37,51.67c-4.79.15-15.65-.65-18.05-.65s-8.48-.24-9.79-1.11-.9-2.51-.9-2.51l16.12-.95s42.4-2.17,57.18-5.87c14.79-3.7,38.27-11.74,38.27-11.74,0,0,4.35,7.61,7.83,9.78,0,0-8.73,6.26-33.28,11.92,0,0-15.81,4.09-25.79,3.15-9.17-.87-28.71-2.11-31.6-2.02Z"/>
      <path class="cls-8" d="M152.45,37.78s-7.56-8.61-9.43-13.55c-2.84-7.48-1.8-18.81-1.8-18.81l-1.84-.06s-.48,10.72.42,14.46c.9,3.75,3.29,9.43,5.69,12.72,1.9,2.61,5.61,6.06,5.61,6.06l1.35-.82Z"/>
      <path class="cls-3" d="M130.11,47.16s-11.68,9.21-13.22,9.43-1.26-5.75-1.26-5.75c0,0,9.1-1.86,14.48-3.68Z"/>
      <ellipse class="cls-5" cx="152.13" cy="7.74" rx="1.04" ry="9.67" transform="translate(123.94 157.43) rotate(-82.25)"/>
      <path class="cls-6" d="M145.45,32.56l-2.38-3.78s-20.07,6.47-27.86,8.68c-8.4,2.38-22.54,5.46-30.1,5.88s-18.48.98-23.1,1.4c-4.62.42-15.12,1.54-15.12,1.54,0,0,5.46-.28,13.58,1.12s25.2,1.68,32.62,1.68c8.55,0,17.36-1.4,26.88-4.48,5.6-1.81,25.48-12.04,25.48-12.04Z"/>
      <path class="cls-2" d="M88.62,35.14s-.18,1.6.81,2.97c.89,1.24.07,1.21.07,1.21,0,0-.95-.95-1.31-1.6-.26-.46-.58-1.56-.4-2.4.22-1.02,1.2-1.27.84-.18Z"/>
      <path class="cls-2" d="M74.81,31.65s-.18,1.6.81,2.97c.89,1.24.07,1.21.07,1.21,0,0-.95-.95-1.31-1.6-.26-.46-.58-1.56-.4-2.4.22-1.02,1.2-1.27.84-.18Z"/>
      <path class="cls-2" d="M56.24,39.39s-.18,1.6.81,2.97c.89,1.24.07,1.21.07,1.21,0,0-.95-.95-1.31-1.6-.26-.46-.58-1.56-.4-2.4.22-1.02,1.2-1.27.84-.18Z"/>
      <path class="cls-2" d="M94.45,22.17s-.18,1.6.81,2.97c.89,1.24.07,1.21.07,1.21,0,0-.95-.95-1.31-1.6-.26-.46-.58-1.56-.4-2.4.22-1.02,1.2-1.27.84-.18Z"/>
      <path class="cls-2" d="M101.17,34.02s-.18,1.6.81,2.97c.89,1.24.07,1.21.07,1.21,0,0-.95-.95-1.31-1.6-.26-.46-.58-1.56-.4-2.4.22-1.02,1.2-1.27.84-.18Z"/>
      <path class="cls-2" d="M108.09,24.17s-.18,1.6.81,2.97c.89,1.24.07,1.21.07,1.21,0,0-.95-.95-1.31-1.6-.26-.46-.58-1.56-.4-2.4.22-1.02,1.2-1.27.84-.18Z"/>
      <path class="cls-2" d="M120.56,28.82s-.18,1.6.81,2.97c.89,1.24.07,1.21.07,1.21,0,0-.95-.95-1.31-1.6-.26-.46-.58-1.56-.4-2.4.22-1.02,1.2-1.27.84-.18Z"/>
      <path class="cls-2" d="M118.73,14.85s-.18,1.6.81,2.97c.89,1.24.07,1.21.07,1.21,0,0-.95-.95-1.31-1.6-.26-.46-.58-1.56-.4-2.4.22-1.02,1.2-1.27.84-.18Z"/>
      <path class="cls-2" d="M131.45,25.2s-.18,1.6.81,2.97c.89,1.24.07,1.21.07,1.21,0,0-.95-.95-1.31-1.6-.26-.46-.58-1.56-.4-2.4.22-1.02,1.2-1.27.84-.18Z"/>
      <path class="cls-4" d="M138.25,8s-9.14.5-18.17,2.2c-6.81,1.28-33.26,12.69-36.68,14.24s-18.59,8.59-18.59,8.59c0,0,7.04-4.46,11.6-6.96,5.12-2.81,34.03-15.86,43.37-18.17,7.99-1.98,11.34-2.21,18.35-1.88,1.64.08.12,1.98.12,1.98Z"/>
    </g>
  </g>
</svg>