<?xml version="1.0" encoding="UTF-8"?>
<svg id="Layer_2" data-name="Layer 2" xmlns="http://www.w3.org/2000/svg" viewBox="0 0 350.39 638.07">
  <defs>
    <style>
      .cls-1 {
        fill: #424c48;
      }

      .cls-2 {
        fill: #26302c;
      }

      .cls-3 {
        fill: #425a52;
      }

      .cls-4 {
        fill: #dadcdb;
      }

      .cls-5 {
        fill: #4f675e;
      }

      .cls-6 {
        fill: #acacac;
      }
    </style>
  </defs>
  <g id="Closed">
    <g>
      <g>
        <path class="cls-2" d="M10.91,636.98h15.83s1.64-18.56,19.1-21.83l253.79-1.64s19.1,2.73,22.38,24.56h14.19l-.55-65.49s-6,14.74-18.56,16.92c0,0-272.32,5.4-287.09-1.09-13.64-6-18.01-17.47-18.01-17.47l-1.09,66.04Z"/>
        <path class="cls-1" d="M169.28,591.39c-65.69.01-130.95-.2-130.95-.2,0,0-15.07.78-25.62-18l-.75,61.83h14.32s5.27-17.22,19.59-18.78c6.98-.76,65.4-1.53,123.42-2.11v-22.74Z"/>
      </g>
      <g>
        <g>
          <rect class="cls-3" x="12.93" y="0" width="325.64" height="592.86" rx="31" ry="31"/>
          <path class="cls-5" d="M168.82,0H41.62C24.57,0,10.62,13.95,10.62,31v530.86c0,17.05,13.95,31,31,31h127.21V0Z"/>
        </g>
        <path class="cls-2" d="M305.89,173.19l-279.05-.92c-24.53-.16-27.49,4.44-25.18,10.19,2.15,5.39,25.18,4.26,25.18,4.26l282.12.23s32.9.45,37.82-1.45c4.58-1.77,4.92-6.73.31-9.95-5.17-3.61-41.2-2.35-41.2-2.35Z"/>
        <path class="cls-2" d="M304.87,154.43l-279.05-.87c-24.53-.15-27.49,4.17-25.18,9.57,2.15,5.06,25.18,4,25.18,4l282.12.22s32.9.42,37.82-1.36c4.58-1.66,4.92-6.32.31-9.34-5.17-3.39-41.2-2.21-41.2-2.21Z"/>
        <g>
          <path class="cls-6" d="M30.34,61.59l-1.62,68.91c-.22,6.06,4.37,6.84,10.13,6.33,5.39-.47,4.32-6.17,4.32-6.17l.93-69.68s.53-8.12-1.36-9.36c-1.76-1.15-6.71-1.29-9.95-.19-3.62,1.24-2.46,10.15-2.46,10.15Z"/>
          <path class="cls-4" d="M36.03,63.05l-1.13,67.5c-.14,5.93,1.89,6.67,4.44,6.14,2.39-.49,1.95-6.07,1.95-6.07l.83-68.24s.28-7.96-.54-9.16c-.77-1.12-2.96-1.22-4.4-.12-1.61,1.23-1.15,9.95-1.15,9.95Z"/>
        </g>
        <g>
          <path class="cls-6" d="M31.11,236.43l-.68,146.36c-.14,12.87,4.46,14.41,10.21,13.2,5.38-1.14,4.23-13.21,4.23-13.21v-147.98s.41-17.26-1.5-19.83c-1.77-2.4-6.73-2.57-9.95-.15-3.6,2.71-2.32,21.61-2.32,21.61Z"/>
          <path class="cls-4" d="M36.95,238.38l-.22,141.98c-.05,12.48,1.97,13.98,4.5,12.81,2.37-1.1,1.86-12.81,1.86-12.81l-.09-143.55s.18-16.74-.66-19.24c-.78-2.33-2.96-2.5-4.38-.15-1.58,2.63-1.01,20.96-1.01,20.96Z"/>
        </g>
      </g>
    </g>
  </g>
</svg>