<?xml version="1.0" encoding="UTF-8"?>
<svg id="Layer_2" data-name="Layer 2" xmlns="http://www.w3.org/2000/svg" viewBox="0 0 575.14 779.29">
  <defs>
    <style>
      .cls-1 {
        stroke-width: 8.56px;
      }

      .cls-1, .cls-2, .cls-3, .cls-4, .cls-5, .cls-6 {
        stroke: #000;
      }

      .cls-1, .cls-5 {
        fill: #68573c;
      }

      .cls-1, .cls-6 {
        stroke-linecap: round;
        stroke-linejoin: round;
      }

      .cls-2 {
        stroke-width: 15.2px;
      }

      .cls-2, .cls-3, .cls-4, .cls-5 {
        stroke-miterlimit: 10;
      }

      .cls-2, .cls-7 {
        fill: #fff;
      }

      .cls-8 {
        fill: #a5a5a4;
      }

      .cls-3 {
        stroke-width: .9px;
      }

      .cls-4 {
        stroke-width: .98px;
      }

      .cls-9 {
        fill: #e29c9c;
      }

      .cls-5 {
        stroke-width: 12.97px;
      }

      .cls-6 {
        fill: #a59c8e;
        stroke-width: 14.9px;
      }
    </style>
  </defs>
  <g id="Homescreen">
    <g id="Ghost">
      <g>
        <path class="cls-6" d="M168.47,643.85s-14.14,77.7-13.96,83.58,51.7,7.66,51.7,7.66l3.9-95.03-41.64,3.79Z"/>
        <path class="cls-5" d="M239.55,745.47c.48,15.71-23.7,22.92-60.64,24.05-36.94,1.13-54.95-9.14-55.43-24.85-.48-15.71,17.1-28.75,54.04-29.88,36.94-1.13,61.13,1.27,62.03,30.68Z"/>
        <path class="cls-1" d="M221.47,737.82s1.11-36.89-33.36-32.76c-34.46,4.13-42.15,26.38-42.15,26.38"/>
      </g>
      <g>
        <path class="cls-6" d="M342.29,643.58s-14.14,77.7-13.96,83.58,51.7,7.66,51.7,7.66l3.9-95.03-41.64,3.79Z"/>
        <path class="cls-5" d="M409.59,748.67c.48,15.71-23.7,22.92-60.64,24.05-36.94,1.13-54.95-9.14-55.43-24.85s17.1-28.75,54.04-29.88c36.94-1.13,61.13,1.27,62.03,30.68Z"/>
        <path class="cls-1" d="M391.51,741.02s1.11-36.89-33.36-32.76c-34.46,4.13-42.15,26.38-42.15,26.38"/>
      </g>
      <g>
        <path class="cls-2" d="M516.72,345.14l-45.53-53.64c-6.26-5.03-10.57-12.05-12.21-19.85-7.12-33.94-11.32-55.84-15.59-84.27,0,0-13.94-65.18-35.5-104.74C372.78,18.19,323.87-14.14,242.89,23.84c-80.45,37.73-106,186.39-130.85,252.6,0,.02-3.1,7.21-3.11,7.23-1.62,4.31-1.74,6.77-13.96,19.74l-31.07,32.02c-21.62,23.34-77.48,102.31-47.78,152.64,10.46,17.72,79.24-76.33,97.8-104.61-3.39,19.79-40.33,78.5-50.13,94.34-26.1,42.17-72.72,137.86-49.48,147.23,34.04,13.72,17.63,88.67,73.47,39.75,19.87-17.4,27.57-43.68,59.4-31.21,31.83,12.47,36.23,72.8,67.44,65.13,31.22-7.67,62.8-45.17,62.8-45.17,0,0,25.89-28.93,40.64,8.42,14.74,37.35,57.36,41.08,87.83,9.08,30.48-32.01,51.76-3.62,90.13.61,38.81,4.27,39.53-35.1,26.29-106.92-4.72-25.62-21.84-87.44-40.12-174.02,14.22,20.56,77.48,119.85,84.11,83.1,10.61-58.83-49.57-128.67-49.57-128.67Z"/>
        <g>
          <path d="M136.51,613.44s53.38-108.53,61.37-158.99c7.99-50.46,7.26-87.98,7.26-87.98"/>
          <path d="M296.06,608.47s5.96,4.36,17.23-39.85c15.75-61.75,5.34-143.11,5.34-143.11"/>
          <path class="cls-4" d="M434.74,627.41s-28.99-50.09-32.37-114.95c-3.37-64.86-2.79-86.02-2.79-86.02l-1.17-57.1"/>
          <path class="cls-3" d="M37.76,608.78s33.76-23.29,51.6-75.07"/>
        </g>
        <path class="cls-8" d="M469.35,419.77s21.83,137.9-2.09,197.95c-12.63,31.7,43.99,41.28,43.99,41.28,0,0,5.53-9.74,4.73-35.81-.99-32.3-17.81-111.26-17.81-111.26l-28.83-92.16Z"/>
        <path class="cls-8" d="M202.93,388.73s-11.25,108.69-33.15,154.71-25.58,52.85-25.58,52.85c0,0,58.21-33.69,67.09-60.84,7.95-24.31,4.54-42.13,4.54-42.13l-12.9-104.59Z"/>
        <path class="cls-8" d="M37.61,571.83s69.31-51.67,78.17-79.66c4.63-14.63,15.87-116.39,15.87-116.39.12.03-41.08,91.01-52.81,115-11.21,22.92-20.91,46.83-20.91,46.83l-20.32,34.22Z"/>
        <path class="cls-8" d="M282.3,634.91c-33.54-3.03-44.5.02-52.34,3.28-4.19,1.74-8.26,17.82-9.04,22.11-2.02,11.22,4.15,12.09-12.69,29.78-6.59,6.92,27.75-13.45,47.61-30.85,19.86-17.4,26.45-24.32,26.45-24.32Z"/>
        <path class="cls-8" d="M82.7,644.73c-19.45,9.96-29.92,5.31-29.92,5.31,9.58,15.8,3.3,29.3,16.4,15.21,2.87-3.08,10.33-18.36,13.51-20.52"/>
        <path class="cls-8" d="M405.05,658.91c-29.4,2.95-39.01-7.5-39.01-7.5,1.63,23.46-14.24,36.8,10.15,25.92,5.34-2.38,23.73-17.3,28.86-18.42"/>
      </g>
      <g id="face">
        <g>
          <ellipse cx="241.47" cy="156.16" rx="27.18" ry="44.91" transform="translate(-4.65 7.44) rotate(-1.75)"/>
          <ellipse class="cls-7" cx="241.17" cy="130.56" rx="13.1" ry="12.59" transform="translate(-3.87 7.42) rotate(-1.75)"/>
        </g>
        <g>
          <ellipse cx="353.02" cy="151.92" rx="27.18" ry="44.91" transform="translate(-4.47 10.84) rotate(-1.75)"/>
          <ellipse class="cls-7" cx="351.85" cy="129.7" rx="13.1" ry="12.59" transform="translate(-3.79 10.8) rotate(-1.75)"/>
        </g>
        <g>
          <path d="M239.87,238.94c-5.53.04-8.95,5.14-6.39,9.36,10.39,17.12,38.52,37.99,55.88,41.52,13.76,2.8,27.28-1.91,45.48-16.44,10.81-8.63,21.87-20.59,25.09-26.22,2.39-4.18-1.16-9.02-6.53-8.99l-113.53.76Z"/>
          <path class="cls-9" d="M277.04,274.89c1.8,7.79,12.59,13.48,24.51,11.32,11.93-2.15,31.92-14.45,30.12-22.24-1.8-7.79-21.11-10.89-33.03-8.74s-23.4,11.86-21.6,19.65Z"/>
        </g>
      </g>
    </g>
  </g>
</svg>