<?xml version="1.0" encoding="UTF-8"?>
<svg id="Layer_2" data-name="Layer 2" xmlns="http://www.w3.org/2000/svg" viewBox="0 0 769.98 850.92">
  <defs>
    <style>
      .cls-1 {
        fill: #2d2933;
        stroke: #0a0a0a;
        stroke-width: 5.9px;
      }

      .cls-1, .cls-2, .cls-3, .cls-4, .cls-5, .cls-6, .cls-7, .cls-8, .cls-9, .cls-10, .cls-11, .cls-12, .cls-13, .cls-14, .cls-15 {
        stroke-miterlimit: 10;
      }

      .cls-2 {
        fill: #625f66;
        stroke-width: 8.66px;
      }

      .cls-2, .cls-4, .cls-5, .cls-6, .cls-7, .cls-8, .cls-9, .cls-10, .cls-11, .cls-12 {
        stroke: #020202;
      }

      .cls-3 {
        fill: #3a3347;
        stroke-width: 12.73px;
      }

      .cls-3, .cls-13 {
        stroke: #000;
      }

      .cls-4, .cls-5, .cls-6, .cls-7, .cls-8, .cls-13 {
        fill: none;
      }

      .cls-4, .cls-9, .cls-14 {
        stroke-width: 12.88px;
      }

      .cls-5, .cls-12 {
        stroke-width: 9.86px;
      }

      .cls-6, .cls-11 {
        stroke-width: 9.75px;
      }

      .cls-7, .cls-10 {
        stroke-width: 10.34px;
      }

      .cls-8 {
        stroke-width: 14.18px;
      }

      .cls-9, .cls-10, .cls-11, .cls-12 {
        fill: #d3bb2f;
      }

      .cls-13, .cls-15 {
        stroke-width: 13.18px;
      }

      .cls-14, .cls-15 {
        fill: #38352c;
        stroke: #191715;
      }
    </style>
  </defs>
  <g id="Haunted_House_Screen" data-name="Haunted House Screen">
    <g id="haunted_house" data-name="haunted house">
      <g>
        <path class="cls-3" d="M621.88,163.54h-41.81c-48.42,0-87.67,36.45-87.67,81.41v111.85h-234.13c-.44,0-.88.02-1.31.03v-34.91c0-33.26-29.04-60.22-64.85-60.22h-87.45c-35.82,0-64.85,26.96-64.85,60.22v439.4c0,33.26,29.04,60.22,64.85,60.22h87.45c4.32,0,8.54-.4,12.62-1.15,12.48,14.7,31.82,24.16,53.54,24.16h235.36c22.38,0,42.23-10.02,54.66-25.48,9.86,3.56,20.57,5.54,31.79,5.54h41.81c48.42,0,87.67-36.45,87.67-81.41V244.95c0-44.96-39.25-81.41-87.67-81.41Z"/>
        <line class="cls-8" x1="191.84" y1="356.74" x2="199.19" y2="820.4"/>
        <line class="cls-13" x1="548.28" y1="819.07" x2="544.27" y2="356.51"/>
      </g>
      <path class="cls-14" d="M132.41,93.43L8.07,292.26c-4.4,7.04.66,16.18,8.97,16.18h248.68c8.31,0,13.37-9.14,8.97-16.18l-124.34-198.83c-4.14-6.62-13.79-6.62-17.93,0Z"/>
      <path class="cls-14" d="M571.99,12.06l-168.79,259.56c-5.35,8.23.55,19.11,10.37,19.11h337.59c9.81,0,15.72-10.88,10.37-19.11L592.73,12.06c-4.88-7.5-15.86-7.5-20.73,0Z"/>
      <path class="cls-15" d="M359.83,57.68l-169.24,295.61c-3.34,5.84.87,13.11,7.6,13.11h338.48c6.73,0,10.94-7.27,7.6-13.11L375.03,57.68c-3.36-5.87-11.83-5.87-15.2,0Z"/>
      <g>
        <polygon class="cls-11" points="175.04 733.47 125.86 733.47 80.05 733.47 80.05 619.16 124.13 619.16 175.04 619.16 175.04 733.47"/>
        <line class="cls-6" x1="127.55" y1="620.54" x2="127.55" y2="733.47"/>
        <line class="cls-6" x1="83.29" y1="674.25" x2="171.8" y2="674.25"/>
      </g>
      <g>
        <polygon class="cls-12" points="660.08 717.37 609.84 717.37 563.04 717.37 563.04 603.06 608.07 603.06 660.08 603.06 660.08 717.37"/>
        <line class="cls-5" x1="611.56" y1="604.44" x2="611.56" y2="717.37"/>
        <line class="cls-5" x1="566.35" y1="658.15" x2="656.78" y2="658.15"/>
      </g>
      <g>
        <path class="cls-2" d="M424.13,667.76c-2.64-37.24-24.14-55.47-51.21-55.47s-50.39,18.23-54.27,55.47h-.45v152.64h106.38v-152.64h-.45Z"/>
        <ellipse class="cls-1" cx="397.28" cy="717.09" rx="14.02" ry="14.76"/>
      </g>
      <g>
        <path class="cls-9" d="M451.57,584.08h-154.78v-94.58c0-31.42,18.02-60.05,46.35-73.64l10.59-5.08c14.66-7.03,31.78-6.78,46.23.68l3.64,1.88c29.46,15.2,47.97,45.58,47.97,78.73v92Z"/>
        <line class="cls-4" x1="377.01" y1="398.59" x2="374.18" y2="584.08"/>
        <line class="cls-4" x1="302.07" y1="508.45" x2="446.29" y2="508.45"/>
      </g>
      <g>
        <path class="cls-10" d="M657.64,491.97h-87.61v-90.3c0-30,10.2-57.33,26.24-70.3l5.99-4.85c8.3-6.72,17.99-6.48,26.17.64l2.06,1.79c16.68,14.52,27.15,43.52,27.15,75.17v87.84Z"/>
        <line class="cls-7" x1="616.17" y1="322.93" x2="613.84" y2="491.97"/>
        <line class="cls-7" x1="573.02" y1="419.76" x2="654.66" y2="419.76"/>
      </g>
      <g>
        <path class="cls-10" d="M169.65,504.22h-87.61v-90.3c0-30,10.2-57.33,26.24-70.3l5.99-4.85c8.3-6.72,17.99-6.48,26.17.64l2.06,1.79c16.68,14.52,27.15,43.52,27.15,75.17v87.84Z"/>
        <line class="cls-7" x1="126.74" y1="334.2" x2="125.85" y2="504.22"/>
        <line class="cls-7" x1="85.03" y1="432.01" x2="166.66" y2="432.01"/>
      </g>
    </g>
  </g>
</svg>