<?xml version="1.0" encoding="UTF-8"?>
<svg id="Layer_2" data-name="Layer 2" xmlns="http://www.w3.org/2000/svg" viewBox="0 0 58.87 138.36">
  <defs>
    <style>
      .cls-1 {
        fill: #859ed3;
      }

      .cls-2 {
        fill: #6a84b6;
      }

      .cls-3 {
        fill: #d0beb7;
      }

      .cls-4 {
        fill: #e2d0c7;
      }

      .cls-5 {
        fill: #fdf4ed;
      }

      .cls-6 {
        fill: #a4b9f0;
      }
    </style>
  </defs>
  <g id="Milk">
    <g id="Milk-2" data-name="Milk">
      <polygon class="cls-6" points="37.28 138.36 0 133.54 .83 25.33 37.49 27.5 37.28 138.36"/>
      <polygon class="cls-4" points="38.84 138.36 58.87 131.01 57.86 23.48 38.84 28.05 38.84 138.36"/>
      <polygon class="cls-5" points="47.34 8.45 57.75 23.01 37.6 27.81 47.34 8.45"/>
      <polygon class="cls-3" points="47.44 9.44 56.85 22.59 38.64 26.93 47.44 9.44"/>
      <polygon class="cls-4" points="10.77 7.26 1.07 24.61 38.29 27.06 47.57 8.74 10.77 7.26"/>
      <path class="cls-5" d="M37.35,76.29l.14-48.79L.46,24.77v56.47s.06,1.22,1.44,1.65c1.9.59,3.14.05,4.12-1.44,0,0,2.13-12.98,1.65-18.96-.76-9.49,3.92-4.53,3.92-4.53,0,0,2.27,1.85,1.65,8.45-.62,6.59-1.03,17.93-.82,20.2s.7,5.47,1.65,7.63c.66,1.5,1.19,3.1,4.95,2.06,1.97-.55,2.68-4.12,2.68-5.98s-.41-16.9-.41-17.93.29-4.89,1.44-6.59c.9-1.33,1.86-2.37,2.68-1.65,1.2,1.07,2.47,2.89,3.5,9.89s8.45,5.56,8.45,2.27Z"/>
      <path class="cls-5" d="M21.68,122.72c.14.34.45.99.68,2.07.35,1.64.47,2.97-.38,5.32-.61,1.69-2.51,2.55-4.19,2.41s-3.45-2.1-3.5-3.64c-.07-2.22,1.56-5.57,2.15-6.54,1.09-1.82,2.9-3.24,2.9-3.24,0,0,1.62,1.86,2.34,3.62Z"/>
      <path class="cls-5" d="M31.74,96.19c.14.34.45.99.68,2.07.35,1.64.47,2.97-.38,5.32-.61,1.69-2.51,2.55-4.19,2.41s-3.45-2.1-3.5-3.64c-.07-2.22,1.56-5.57,2.15-6.54,1.09-1.82,2.9-3.24,2.9-3.24,0,0,1.62,1.86,2.34,3.62Z"/>
      <path class="cls-5" d="M10.4,99c.14.34.45.99.68,2.07.35,1.64.47,2.97-.38,5.32-.61,1.69-2.51,2.55-4.19,2.41s-3.45-2.1-3.5-3.64c-.07-2.22,1.56-5.57,2.15-6.54,1.09-1.82,2.9-3.24,2.9-3.24,0,0,1.62,1.86,2.34,3.62Z"/>
      <path class="cls-6" d="M47.23,8.5l-36.47-1.53-.07-5.8c0-.67.55-1.21,1.22-1.17l34.43,1.92c.59.03,1.06.5,1.09,1.09l-.21,5.49Z"/>
      <path class="cls-1" d="M10.87,5.13s30.31,2.07,31.59,1.52,2.64-1.47,3.01-3.19c.17-.81.36-1.55.36-1.55,0,0,.9-.56,1.58.56l-.12,6.1-36.53-1.59.11-1.84Z"/>
      <g>
        <path class="cls-1" d="M28.92,4.87l4.14,5.52s1.28,1.89-.31,4.55-4.5,5.47-7.97,6.65c-1.8.61-5.57.97-7.46.2-.72-.29-1.75-1.02-2.41-1.53-.42-.32-.74-.76-.9-1.27-.46-1.42-1.38-5.62-1.65-6.36l16.56-7.77Z"/>
        <path class="cls-6" d="M12.26,11.93l1.43,5.88s2.28,1.32,6.65.41c4.91-1.02,6.19-2.56,8.03-4.6,1.2-1.33,1.84-3.48,1.84-4.09s-.05-1.53-.72-2.25c-.44-.47-.87-.56-.87-.56,0,0-.1,1.53-1.89,3.32-1.79,1.79-4.96,3.73-6.54,3.94-2.35.31-3.73,0-5.93-.61-.83-.23-1.99-1.43-1.99-1.43Z"/>
        <ellipse class="cls-2" cx="20.3" cy="8.06" rx="9.31" ry="6.68" transform="translate(-1.31 11.23) rotate(-30)"/>
      </g>
    </g>
  </g>
</svg>