<?xml version="1.0" encoding="UTF-8"?>
<svg id="Layer_2" data-name="Layer 2" xmlns="http://www.w3.org/2000/svg" viewBox="0 0 301.45 322.36">
  <defs>
    <style>
      .cls-1, .cls-2 {
        stroke: #fff;
        stroke-miterlimit: 10;
        stroke-width: 6px;
      }

      .cls-2 {
        fill: #fff;
      }
    </style>
  </defs>
  <g id="Nav_Screen" data-name="Nav Screen">
    <g id="nav_arrow_forward" data-name="nav arrow forward">
      <path class="cls-1" d="M298.12,30.35c2.81-15.78-12.51-28.69-27.58-23.23l-85.81,31.05c-.51.19-.98.43-1.46.64-10.96-2.71-22.42-4.17-34.22-4.17-9.63,0-19.02.97-28.11,2.79-1.29-.82-2.67-1.56-4.2-2.11L30.92,4.27C15.85-1.18.52,11.73,3.34,27.5l16.02,89.84c.04.21.11.41.15.62-8.21,17.99-12.83,37.97-12.83,59.03,0,78.62,63.74,142.36,142.36,142.36s142.36-63.74,142.36-142.36c0-18.81-3.68-36.75-10.31-53.19.42-1.15.79-2.34,1.02-3.62l16.02-89.84Z"/>
      <path class="cls-2" d="M234.68,181.08l-55.47-32.03c-2.59-1.5-5.83.37-5.83,3.36v18.16c0,2.15-1.74,3.88-3.88,3.88h-99.14c-2.15,0-3.88,1.74-3.88,3.88v17.09c0,2.15,1.74,3.88,3.88,3.88h99.14c2.15,0,3.88,1.74,3.88,3.88v13.26c0,2.99,3.24,4.86,5.83,3.36l55.47-32.03c2.59-1.5,2.59-5.23,0-6.73Z"/>
    </g>
  </g>
</svg>