<?xml version="1.0" encoding="UTF-8"?>
<svg id="Layer_2" data-name="Layer 2" xmlns="http://www.w3.org/2000/svg" viewBox="0 0 1237.09 1184.67">
  <defs>
    <style>
      .cls-1 {
        fill: none;
        stroke-width: 4px;
      }

      .cls-1, .cls-2, .cls-3, .cls-4, .cls-5, .cls-6, .cls-7, .cls-8, .cls-9, .cls-10, .cls-11, .cls-12, .cls-13 {
        stroke: #000;
      }

      .cls-1, .cls-4, .cls-6, .cls-14, .cls-10, .cls-12, .cls-13 {
        stroke-linecap: round;
        stroke-linejoin: round;
      }

      .cls-2 {
        fill: #208cbc;
        stroke-width: 3px;
      }

      .cls-2, .cls-3, .cls-5, .cls-7, .cls-8, .cls-9, .cls-11 {
        stroke-miterlimit: 10;
      }

      .cls-3 {
        fill: #c60594;
      }

      .cls-3, .cls-14, .cls-12 {
        stroke-width: 2.87px;
      }

      .cls-4 {
        fill: #352404;
        stroke-width: 7.99px;
      }

      .cls-5 {
        fill: #605748;
      }

      .cls-5, .cls-7 {
        stroke-width: 6px;
      }

      .cls-6 {
        fill: #563c04;
      }

      .cls-6, .cls-13 {
        stroke-width: 8px;
      }

      .cls-7 {
        fill: #776b55;
      }

      .cls-14 {
        fill: #f462f4;
        stroke: #020202;
      }

      .cls-8 {
        fill: #fcfcfc;
        stroke-width: 2.45px;
      }

      .cls-9 {
        stroke-width: 5.18px;
      }

      .cls-10 {
        fill: #664819;
        stroke-width: 5px;
      }

      .cls-11 {
        fill: #f2d10a;
        stroke-width: 7.43px;
      }

      .cls-12 {
        fill: #b78383;
      }

      .cls-13 {
        fill: #3f2a04;
      }
    </style>
  </defs>
  <g id="open_chest_screen" data-name="open chest screen">
    <g id="open_chest" data-name="open chest">
      <g>
        <polygon class="cls-5" points="1228.36 529.67 887.36 407.67 137.36 660.67 512.36 797.67 1228.36 529.67"/>
        <g id="candy">
          <g>
            <path class="cls-14" d="M444.18,713.13l19.22-8.91-15.53-12.14,24.09-5.72-15.67-8.66,13.38-5.95-26.19-1.32c-1.05-.16-2.18-.07-3.29.35l-37.36,14c-5.1-11.27-16.08-20.71-30.22-25.59-4.31-1.49-8.91-2.55-13.72-3.11-17.77-2.07-34.27,3.17-44.79,12.85l-29.28-26.91c-.15-.14-.3-.26-.46-.38-.13-.11-.26-.21-.41-.3l-.09-.05c-.32-.2-.64-.37-.97-.51l-20.48-10.76,6.92,29.93-23.86-4.11,20.95,18.6-19.68,7.85,14.84,12.97-24.36,4.39,15.17,9.5-13.69,5.21,26.08,2.75c1.04.22,2.17.18,3.3-.17l36.23-11.36c5.67,16.08,23.15,29.06,45.11,31.62,19.49,2.27,37.44-4.25,47.68-15.78l30.47,25.08c.16.13.32.25.48.36.13.1.27.2.42.28l.09.04c.33.18.66.34,1,.46l21.03,9.62-8.54-29.51,24.05,2.81-21.93-17.43Z"/>
            <path class="cls-3" d="M355.43,655.69s-19.81,17.51-21.42,38.39c-.99,12.79,1.35,27.39,5.53,41.14,0,0,5.97,1.94,12.95,2.34,10.38.6,11.2-.35,11.2-.35,0,0-8.31-31.46-8.6-39.62s4.17-14.49,9.13-21.62c2.56-3.68,12.48-14.93,12.48-14.93,0,0-4.51-3.83-21.28-5.36Z"/>
            <line class="cls-12" x1="274.93" y1="663.84" x2="293.43" y2="671.79"/>
            <line class="cls-12" x1="273.29" y1="674.4" x2="299.05" y2="680.29"/>
            <line class="cls-12" x1="269.74" y1="694.23" x2="287.38" y2="691.74"/>
            <line class="cls-12" x1="260.33" y1="707.59" x2="296.95" y2="698.23"/>
            <line class="cls-12" x1="449.17" y1="679.21" x2="426.11" y2="685.61"/>
            <line class="cls-12" x1="441.08" y1="691.9" x2="420.72" y2="692.83"/>
            <line class="cls-12" x1="438.8" y1="711.47" x2="409.99" y2="699.84"/>
            <line class="cls-12" x1="436.82" y1="724.88" x2="414.03" y2="714.78"/>
          </g>
        </g>
        <polygon class="cls-13" points="137.36 660.67 142.36 1021.67 512.36 1180.67 512.36 797.67 137.36 660.67"/>
        <g id="candy-2" data-name="candy">
          <g>
            <path class="cls-14" d="M1192.31,535.58l18.06-11.08-16.83-10.26,23.26-8.47-16.56-6.79,12.6-7.46-26.17,1.72c-1.07-.04-2.17.19-3.23.73l-35.49,18.23c-6.37-10.61-18.37-18.71-32.98-21.92-4.45-.98-9.14-1.5-13.99-1.5-17.89,0-33.67,7.12-43,17.95l-32.2-23.34c-.16-.12-.33-.23-.5-.33-.14-.09-.28-.18-.44-.25l-.09-.04c-.34-.16-.68-.3-1.03-.4l-21.58-8.31,10.34,28.93-24.18-1.32,22.96,16.05-18.64,10.08,16.24,11.16-23.69,7.19,16.17,7.68-12.99,6.76,26.22-.29c1.06.09,2.18-.07,3.26-.55l34.67-15.48c7.49,15.31,26.37,26.18,48.47,26.18,19.62,0,36.7-8.56,45.53-21.19l33.17,21.38c.17.11.34.21.52.3.14.09.29.17.45.23l.09.03c.35.14.69.26,1.05.34l22.01,7.12-11.9-28.32h24.22l-23.81-14.78Z"/>
            <path class="cls-3" d="M1097.5,488.81s-17.65,19.68-16.83,40.62c.5,12.82,4.51,27.04,10.26,40.22,0,0,6.16,1.23,13.13.82,10.38-.61,11.08-1.64,11.08-1.64,0,0-11.9-30.28-13.13-38.36-1.23-8.08,2.46-14.88,6.57-22.53,2.12-3.95,10.67-16.27,10.67-16.27,0,0-4.93-3.28-21.75-2.86Z"/>
            <line class="cls-12" x1="1018.49" y1="506.24" x2="1037.78" y2="511.98"/>
            <line class="cls-12" x1="1018.08" y1="516.91" x2="1044.35" y2="519.78"/>
            <line class="cls-12" x1="1016.85" y1="537.02" x2="1034.09" y2="532.51"/>
            <line class="cls-12" x1="1009.05" y1="551.39" x2="1044.35" y2="537.84"/>
            <line class="cls-12" x1="1193.34" y1="501.31" x2="1171.17" y2="510.34"/>
            <line class="cls-12" x1="1186.77" y1="514.86" x2="1166.66" y2="518.14"/>
            <line class="cls-12" x1="1186.77" y1="534.56" x2="1156.81" y2="526.35"/>
            <line class="cls-12" x1="1186.36" y1="548.1" x2="1162.55" y2="540.71"/>
          </g>
        </g>
        <g id="candy-3" data-name="candy">
          <g>
            <path class="cls-14" d="M925.53,598.99l18.06-11.08-16.83-10.26,23.26-8.47-16.56-6.79,12.6-7.46-26.17,1.72c-1.07-.04-2.17.19-3.23.73l-35.49,18.23c-6.37-10.61-18.37-18.71-32.98-21.92-4.45-.98-9.14-1.5-13.99-1.5-17.89,0-33.67,7.12-43,17.95l-32.2-23.34c-.16-.12-.33-.23-.5-.33-.14-.09-.28-.18-.44-.25l-.09-.04c-.34-.16-.68-.3-1.03-.4l-21.58-8.31,10.34,28.93-24.18-1.32,22.96,16.05-18.64,10.08,16.24,11.16-23.69,7.19,16.17,7.68-12.99,6.76,26.22-.29c1.06.09,2.18-.07,3.26-.55l34.67-15.48c7.49,15.31,26.37,26.18,48.47,26.18,19.62,0,36.7-8.56,45.53-21.19l33.17,21.38c.17.11.34.21.52.3.14.09.29.17.45.23l.09.03c.35.14.69.26,1.05.34l22.01,7.12-11.9-28.32h24.22l-23.81-14.78Z"/>
            <path class="cls-3" d="M830.73,552.22s-17.65,19.68-16.83,40.62c.5,12.82,4.51,27.04,10.26,40.22,0,0,6.16,1.23,13.13.82,10.38-.61,11.08-1.64,11.08-1.64,0,0-11.9-30.28-13.13-38.36s2.46-14.88,6.57-22.53c2.12-3.95,10.67-16.27,10.67-16.27,0,0-4.93-3.28-21.75-2.86Z"/>
            <line class="cls-12" x1="751.72" y1="569.64" x2="771.01" y2="575.39"/>
            <line class="cls-12" x1="751.31" y1="580.31" x2="777.57" y2="583.19"/>
            <line class="cls-12" x1="750.08" y1="600.42" x2="767.31" y2="595.91"/>
            <line class="cls-12" x1="742.28" y1="614.79" x2="777.57" y2="601.24"/>
            <line class="cls-12" x1="926.56" y1="564.72" x2="904.4" y2="573.75"/>
            <line class="cls-12" x1="919.99" y1="578.26" x2="899.88" y2="581.54"/>
            <line class="cls-12" x1="919.99" y1="597.96" x2="890.03" y2="589.75"/>
            <line class="cls-12" x1="919.58" y1="611.51" x2="895.78" y2="604.12"/>
          </g>
        </g>
        <g id="candy-4" data-name="candy">
          <g>
            <path class="cls-14" d="M607.06,751.01l18.04-11.12-16.85-10.23,23.25-8.51-16.58-6.75,12.59-7.49-26.16,1.77c-1.07-.03-2.17.19-3.23.74l-35.45,18.3c-6.39-10.59-18.41-18.67-33.02-21.85-4.45-.97-9.15-1.48-14-1.47-17.89.04-33.65,7.19-42.97,18.04l-32.24-23.27c-.16-.12-.33-.23-.5-.33-.14-.09-.28-.18-.44-.25l-.09-.04c-.34-.16-.68-.29-1.03-.39l-21.6-8.27,10.4,28.91-24.18-1.27,23,16.01-18.62,10.12,16.27,11.13-23.67,7.23,16.19,7.65-12.98,6.79,26.22-.35c1.06.09,2.18-.07,3.26-.56l34.63-15.55c7.52,15.3,26.42,26.13,48.52,26.08,19.62-.04,36.68-8.64,45.48-21.28l33.21,21.32c.17.11.34.21.52.3.14.09.29.16.45.23l.09.03c.35.14.7.26,1.05.34l22.02,7.08-11.96-28.3,24.22-.05-23.83-14.73Z"/>
            <path class="cls-3" d="M512.16,704.43s-17.61,19.72-16.75,40.65c.53,12.82,4.57,27.04,10.34,40.2,0,0,6.16,1.22,13.14.79,10.38-.63,11.08-1.66,11.08-1.66,0,0-11.96-30.26-13.21-38.33s2.43-14.88,6.52-22.54c2.11-3.95,10.64-16.29,10.64-16.29,0,0-4.93-3.27-21.76-2.81Z"/>
            <line class="cls-12" x1="433.19" y1="722.01" x2="452.49" y2="727.72"/>
            <line class="cls-12" x1="432.8" y1="732.69" x2="459.07" y2="735.51"/>
            <line class="cls-12" x1="431.61" y1="752.8" x2="448.84" y2="748.25"/>
            <line class="cls-12" x1="423.84" y1="767.18" x2="459.11" y2="753.57"/>
            <line class="cls-12" x1="608.02" y1="716.74" x2="585.88" y2="725.81"/>
            <line class="cls-12" x1="601.48" y1="730.3" x2="581.38" y2="733.62"/>
            <line class="cls-12" x1="601.52" y1="750" x2="571.54" y2="741.85"/>
            <line class="cls-12" x1="601.14" y1="763.54" x2="577.32" y2="756.2"/>
          </g>
        </g>
        <g id="candy-5" data-name="candy">
          <g>
            <path class="cls-14" d="M972.59,624.01l18.06-11.08-16.83-10.26,23.26-8.47-16.56-6.79,12.6-7.46-26.17,1.72c-1.07-.04-2.17.19-3.23.73l-35.49,18.23c-6.37-10.61-18.37-18.71-32.98-21.92-4.45-.98-9.14-1.5-13.99-1.5-17.89,0-33.67,7.12-43,17.95l-32.2-23.34c-.16-.12-.33-.23-.5-.33-.14-.09-.28-.18-.44-.25l-.09-.04c-.34-.16-.68-.3-1.03-.4l-21.58-8.31,10.34,28.93-24.18-1.32,22.96,16.05-18.64,10.08,16.24,11.16-23.69,7.19,16.17,7.68-12.99,6.76,26.22-.29c1.06.09,2.18-.07,3.26-.55l34.67-15.48c7.49,15.31,26.37,26.18,48.47,26.18,19.62,0,36.7-8.56,45.53-21.19l33.17,21.38c.17.11.34.21.52.3.14.09.29.17.45.23l.09.03c.35.14.69.26,1.05.34l22.01,7.12-11.9-28.32h24.22l-23.81-14.78Z"/>
            <path class="cls-3" d="M877.78,577.24s-17.65,19.68-16.83,40.62c.5,12.82,4.51,27.04,10.26,40.22,0,0,6.16,1.23,13.13.82,10.38-.61,11.08-1.64,11.08-1.64,0,0-11.9-30.28-13.13-38.36-1.23-8.08,2.46-14.88,6.57-22.53,2.12-3.95,10.67-16.27,10.67-16.27,0,0-4.93-3.28-21.75-2.86Z"/>
            <line class="cls-12" x1="798.77" y1="594.66" x2="818.06" y2="600.41"/>
            <line class="cls-12" x1="798.36" y1="605.33" x2="824.63" y2="608.21"/>
            <line class="cls-12" x1="797.13" y1="625.44" x2="814.37" y2="620.93"/>
            <line class="cls-12" x1="789.33" y1="639.81" x2="824.63" y2="626.27"/>
            <line class="cls-12" x1="973.62" y1="589.74" x2="951.45" y2="598.77"/>
            <line class="cls-12" x1="967.05" y1="603.28" x2="946.94" y2="606.56"/>
            <line class="cls-12" x1="967.05" y1="622.98" x2="937.09" y2="614.77"/>
            <line class="cls-12" x1="966.64" y1="636.53" x2="942.83" y2="629.14"/>
          </g>
        </g>
        <g>
          <polygon class="cls-8" points="1030.53 588.79 1143.39 712.57 1131.03 727.02 1017.03 602.34 1030.53 588.79"/>
          <ellipse class="cls-2" cx="973.46" cy="542.98" rx="77.5" ry="73.5" transform="translate(-56.48 969.2) rotate(-51.63)"/>
          <path class="cls-1" d="M964.26,532.21s8.78,37.27,27.53,12.08c9.04-12.14-6.51-39.47-22.23-35.25-15.72,4.21-33.46,23.63-32.81,37.03.67,13.88.87,28.64,28.51,34.02,14.59,2.84,29.1-1.76,41.5-21.23,4.83-7.59,16.82-35.41,8.41-48.61-16.13-25.31-54.92-33.11-73.02-19.99-18.11,13.12-32.3,36.15-34.38,50.87-2.53,17.85,5.01,48.84,35.66,61.42,14.09,5.78,47.38,2.12,63.71-11.92,11.37-9.78,36.9-40.54,33.53-53.57"/>
        </g>
        <g id="candy-6" data-name="candy">
          <g>
            <path class="cls-14" d="M772.35,641.47l10.57-18.36-19.68-.98,16.39-18.55-17.79,1.95,7.51-12.57-22.17,14.01c-.95.48-1.82,1.2-2.49,2.18l-22.47,32.97c-10.66-6.28-25.08-7.66-39.44-3.51-4.38,1.27-8.75,3.05-13.01,5.36-15.72,8.54-26.18,22.33-29.21,36.31l-39.43-5.13c-.2-.03-.4-.04-.6-.05-.17-.02-.33-.02-.51-.01h-.1c-.37.03-.74.08-1.09.16l-22.93,3.01,22.9,20.48-21.87,10.39,27.84,3.14-11.56,17.76,19.6,2.05-17.38,17.63,17.87-.98-8.18,12.15,22.9-12.78c.98-.42,1.88-1.1,2.6-2.04l23.06-30.16c13.89,9.88,35.67,10.41,55.09-.15,17.24-9.37,28.15-25.05,29.88-40.36l39.36,2.95c.2.02.4.02.6.02.17,0,.34,0,.51-.02l.1-.02c.37-.04.73-.11,1.08-.2l22.74-4.25-23.98-19.2,21.28-11.56-27.97-1.61Z"/>
            <path class="cls-3" d="M666.72,645.65s-6.11,25.72,4.61,43.72c6.56,11.02,16.88,21.6,28.22,30.44,0,0,6-1.86,11.93-5.55,8.83-5.5,8.95-6.73,8.95-6.73,0,0-24.92-20.92-29.86-27.43-4.94-6.51-4.94-14.25-4.99-22.93-.02-4.48,1.6-19.39,1.6-19.39,0,0-5.9-.53-20.48,7.88Z"/>
            <line class="cls-12" x1="605.62" y1="698.7" x2="625.31" y2="694.53"/>
            <line class="cls-12" x1="610.36" y1="708.27" x2="634.81" y2="698.25"/>
            <line class="cls-12" x1="618.88" y1="726.53" x2="631.87" y2="714.33"/>
            <line class="cls-12" x1="618.89" y1="742.87" x2="643.43" y2="714.12"/>
            <line class="cls-12" x1="756.89" y1="610.87" x2="741.73" y2="629.39"/>
            <line class="cls-12" x1="757.59" y1="625.91" x2="741.48" y2="638.39"/>
            <line class="cls-12" x1="766.99" y1="643.21" x2="736.75" y2="650.31"/>
            <line class="cls-12" x1="773.1" y1="655.31" x2="748.66" y2="660.19"/>
          </g>
        </g>
        <g>
          <polygon class="cls-8" points="477.29 712.09 578.06 845.89 564.4 859.11 462.57 724.3 477.29 712.09"/>
          <ellipse class="cls-2" cx="424.76" cy="661.13" rx="77.5" ry="73.5" transform="translate(-346.58 510.95) rotate(-46.26)"/>
          <path class="cls-1" d="M416.6,649.55s5.25,37.93,26.28,14.61c10.13-11.24-2.78-39.9-18.83-37.18-16.05,2.72-35.52,20.39-36.14,33.8-.64,13.88-1.82,28.6,25.2,36.54,14.26,4.19,29.14.98,43.3-17.25,5.52-7.11,20.06-33.68,12.92-47.61-13.69-26.71-51.58-38.1-70.83-26.74-19.26,11.37-35.54,32.97-39,47.43-4.19,17.53.42,49.09,29.76,64.49,13.49,7.08,46.97,6.55,64.55-5.9,12.24-8.67,40.53-36.91,38.4-50.19"/>
        </g>
        <g>
          <polygon class="cls-8" points="605.86 676.85 578.86 842.17 559.86 841.44 586.86 674.67 605.86 676.85"/>
          <ellipse class="cls-2" cx="606.36" cy="603.67" rx="77.5" ry="73.5"/>
          <path class="cls-1" d="M609.09,589.77s-23.77,30.01,7.61,29.09c15.13-.45,26.91-29.6,13.84-39.31-13.06-9.71-39.29-11.57-49.4-2.74-10.47,9.13-21.92,18.46-8.97,43.47,6.83,13.2,19.44,21.73,42.41,19.36,8.95-.92,38.21-8.8,43.33-23.58,9.83-28.36-8.13-63.61-29.65-69.66-21.53-6.05-48.39-2.88-61.23,4.62-15.57,9.09-35.18,34.24-26.02,66.08,4.21,14.64,27.74,38.46,48.89,42.55,14.73,2.85,54.69,3.77,62.81-6.96"/>
        </g>
        <g id="candy-7" data-name="candy">
          <g>
            <path class="cls-14" d="M802.07,641.16l18.06-11.08-16.83-10.26,23.26-8.47-16.56-6.79,12.6-7.46-26.17,1.72c-1.07-.04-2.17.19-3.23.73l-35.49,18.23c-6.37-10.61-18.37-18.71-32.98-21.92-4.45-.98-9.14-1.5-13.99-1.5-17.89,0-33.67,7.12-43,17.95l-32.2-23.34c-.16-.12-.33-.23-.5-.33-.14-.09-.28-.18-.44-.25l-.09-.04c-.34-.16-.68-.3-1.03-.4l-21.58-8.31,10.34,28.93-24.18-1.32,22.96,16.05-18.64,10.08,16.24,11.16-23.69,7.19,16.17,7.68-12.99,6.76,26.22-.29c1.06.09,2.18-.07,3.26-.55l34.67-15.48c7.49,15.31,26.37,26.18,48.47,26.18,19.62,0,36.7-8.56,45.53-21.19l33.17,21.38c.17.11.34.21.52.3.14.09.29.17.45.23l.09.03c.35.14.69.26,1.05.34l22.01,7.12-11.9-28.32h24.22l-23.81-14.78Z"/>
            <path class="cls-3" d="M707.26,594.39s-17.65,19.68-16.83,40.62c.5,12.82,4.51,27.04,10.26,40.22,0,0,6.16,1.23,13.13.82,10.38-.61,11.08-1.64,11.08-1.64,0,0-11.9-30.28-13.13-38.36-1.23-8.08,2.46-14.88,6.57-22.53,2.12-3.95,10.67-16.27,10.67-16.27,0,0-4.93-3.28-21.75-2.86Z"/>
            <line class="cls-12" x1="628.25" y1="611.81" x2="647.54" y2="617.56"/>
            <line class="cls-12" x1="627.84" y1="622.49" x2="654.11" y2="625.36"/>
            <line class="cls-12" x1="626.61" y1="642.6" x2="643.85" y2="638.08"/>
            <line class="cls-12" x1="618.81" y1="656.96" x2="654.11" y2="643.42"/>
            <line class="cls-12" x1="803.09" y1="606.89" x2="780.93" y2="615.92"/>
            <line class="cls-12" x1="796.53" y1="620.43" x2="776.42" y2="623.72"/>
            <line class="cls-12" x1="796.53" y1="640.13" x2="766.57" y2="631.92"/>
            <line class="cls-12" x1="796.12" y1="653.68" x2="772.31" y2="646.29"/>
          </g>
        </g>
        <g>
          <polygon class="cls-8" points="741.86 687.85 714.86 853.17 695.86 852.44 722.86 685.67 741.86 687.85"/>
          <ellipse class="cls-2" cx="742.36" cy="614.67" rx="77.5" ry="73.5"/>
          <path class="cls-1" d="M745.09,600.77s-23.77,30.01,7.61,29.09c15.13-.45,26.91-29.6,13.84-39.31-13.06-9.71-39.29-11.57-49.4-2.74-10.47,9.13-21.92,18.46-8.97,43.47,6.83,13.2,19.44,21.73,42.41,19.36,8.95-.92,38.21-8.8,43.33-23.58,9.83-28.36-8.13-63.61-29.65-69.66-21.53-6.05-48.39-2.88-61.23,4.62-15.57,9.09-35.18,34.24-26.02,66.08,4.21,14.64,27.74,38.46,48.89,42.55,14.73,2.85,54.69,3.77,62.81-6.96"/>
        </g>
        <polygon class="cls-6" points="512.36 1180.67 1231.36 888.67 1228.36 529.67 512.36 797.67 512.36 1180.67"/>
      </g>
      <g>
        <path class="cls-4" d="M301.95,319.3l-165.79,341.37S-37.64,419.67,13.36,302.67c0,0,131.13-189.22,288.58,16.63Z"/>
        <path class="cls-10" d="M301.95,319.3L995.36,108.27S926.54-15.86,820.19,4.83L88.86,236.17s109.85-66.86,213.08,83.13Z"/>
        <polygon class="cls-7" points="995.36 108.27 897.35 407.23 136.16 660.67 301.95 319.3 995.36 108.27"/>
      </g>
      <g id="candy-8" data-name="candy">
        <g>
          <path class="cls-14" d="M745.04,439.4l-2.74-21.01-16.24,11.17,1.77-24.69-12.96,12.35-1.66-14.55-9.11,24.59c-.47.96-.72,2.06-.65,3.24l2.15,39.84c-12.28,1.48-24.58,9.13-33.47,21.15-2.71,3.66-5.1,7.73-7.08,12.16-7.31,16.33-7.25,33.64-1.18,46.58l-34.45,19.86c-.18.1-.34.21-.5.32-.14.09-.28.18-.41.3l-.07.07c-.29.24-.55.5-.78.78l-16.4,16.31,30.63,2.37-11.08,21.53,24.03-14.41,1.59,21.13,16.82-10.27-3.11,24.56,13.61-11.62.87,14.62,10.44-24.05c.52-.93.83-2.01.83-3.2l.03-37.97c17.04-.58,34.66-13.37,43.69-33.55,8.01-17.91,7.17-36.99-.75-50.21l33.07-21.54c.17-.11.33-.23.49-.35.14-.09.27-.2.39-.32l.07-.07c.27-.26.52-.53.74-.82l15.49-17.18-30.71-.7,9.89-22.1-23.21,15.69Z"/>
          <path class="cls-3" d="M663.62,506.84s10.76,24.15,30.2,31.95c11.91,4.78,26.53,6.92,40.91,7.06,0,0,3.64-5.12,6.11-11.65,3.68-9.73,3.03-10.79,3.03-10.79,0,0-32.5-1.5-40.38-3.68-7.88-2.17-12.58-8.32-17.88-15.2-2.74-3.55-10.5-16.39-10.5-16.39,0,0-5.01,3.15-11.49,18.69Z"/>
          <line class="cls-12" x1="647.26" y1="586.08" x2="660.38" y2="570.82"/>
          <line class="cls-12" x1="656.83" y1="590.81" x2="670.18" y2="568.01"/>
          <line class="cls-12" x1="674.69" y1="600.15" x2="677.61" y2="582.57"/>
          <line class="cls-12" x1="684.61" y1="613.13" x2="686.67" y2="575.38"/>
          <line class="cls-12" x1="714.17" y1="424.47" x2="713.36" y2="448.39"/>
          <line class="cls-12" x1="723.85" y1="436" x2="718.64" y2="455.69"/>
          <line class="cls-12" x1="741.84" y1="444.04" x2="722.11" y2="468.04"/>
          <line class="cls-12" x1="754.03" y1="449.95" x2="737.57" y2="468.66"/>
        </g>
        <g>
          <polygon class="cls-8" points="767.47 528.55 607.55 578.38 599.7 561.06 760.92 510.58 767.47 528.55"/>
          <ellipse class="cls-2" cx="833.14" cy="496.25" rx="73.5" ry="77.5" transform="translate(-133.99 425.26) rotate(-26.58)"/>
          <path class="cls-1" d="M846.79,492.47s-37.48-7.83-22.6,19.83c7.17,13.33,38.51,10.82,41.35-5.21,2.84-16.03-7.24-40.32-19.65-45.41-12.85-5.27-26.31-11.34-42.89,11.43-8.75,12.02-10.73,27.11,1.66,46.59,4.83,7.59,24.96,30.23,40.48,28.2,29.76-3.9,53.25-35.73,49.03-57.69s-19.07-44.57-31.52-52.69c-15.1-9.85-46.36-16.14-70.74,6.3-11.21,10.32-21.98,42.02-16.18,62.76,4.04,14.44,21.1,50.59,34.33,53.06"/>
        </g>
      </g>
      <g id="candy-9" data-name="candy">
        <g>
          <path class="cls-14" d="M976.69,531.78l18.88,9.61-.04-19.71,19.37,15.41-2.87-17.67,12.95,6.85-15.14-21.41c-.53-.93-1.29-1.75-2.31-2.37l-34.09-20.74c5.72-10.97,6.35-25.44,1.46-39.57-1.49-4.31-3.5-8.58-6.03-12.71-9.35-15.25-23.66-24.99-37.77-27.29l3.07-39.64c.02-.2.02-.4.02-.6,0-.17,0-.34-.02-.51l-.02-.1c-.04-.37-.1-.73-.2-1.08l-4.19-22.75-19.26,23.93-11.51-21.31-1.69,27.97-18.33-10.62-1.03,19.68-18.51-16.44,1.9,17.8-12.55-7.54,13.95,22.2c.47.96,1.19,1.82,2.18,2.49l31.31,21.47c-9.14,14.39-8.55,36.16,3,55.01,10.25,16.73,26.47,26.82,41.86,27.75l-.9,39.46c0,.2,0,.4.02.6,0,.17.01.34.04.5l.02.1c.06.37.14.73.26,1.07l5.42,22.48,17.93-24.95,12.65,20.65.16-28.02Z"/>
          <path class="cls-3" d="M967.04,426.51s-26-4.76-43.42,6.87c-10.67,7.13-20.7,17.98-28.93,29.76,0,0,2.17,5.89,6.16,11.63,5.95,8.53,7.19,8.59,7.19,8.59,0,0,19.6-25.97,25.84-31.24,6.24-5.27,13.97-5.67,22.64-6.17,4.48-.26,19.45.6,19.45.6,0,0,.23-5.91-8.93-20.04Z"/>
          <line class="cls-12" x1="910.9" y1="368.24" x2="916.08" y2="387.69"/>
          <line class="cls-12" x1="901.59" y1="373.47" x2="912.86" y2="397.37"/>
          <line class="cls-12" x1="883.8" y1="382.93" x2="896.65" y2="395.27"/>
          <line class="cls-12" x1="867.47" y1="383.78" x2="897.46" y2="406.8"/>
          <line class="cls-12" x1="1006.45" y1="514.75" x2="987.17" y2="500.57"/>
          <line class="cls-12" x1="991.47" y1="516.23" x2="978.16" y2="500.8"/>
          <line class="cls-12" x1="974.67" y1="526.52" x2="966.02" y2="496.69"/>
          <line class="cls-12" x1="962.91" y1="533.25" x2="956.77" y2="509.09"/>
        </g>
      </g>
      <g id="candy-10" data-name="candy">
        <g>
          <path class="cls-14" d="M404.58,646.19l18.06-11.08-16.83-10.26,23.26-8.47-16.56-6.79,12.6-7.46-26.17,1.72c-1.07-.04-2.17.19-3.23.73l-35.49,18.23c-6.37-10.61-18.37-18.71-32.98-21.92-4.45-.98-9.14-1.5-13.99-1.5-17.89,0-33.67,7.12-43,17.95l-32.2-23.34c-.16-.12-.33-.23-.5-.33-.14-.09-.28-.18-.44-.25l-.09-.04c-.34-.16-.68-.3-1.03-.4l-21.58-8.31,10.34,28.93-24.18-1.32,22.96,16.05-18.64,10.08,16.24,11.16-23.69,7.19,16.17,7.68-12.99,6.76,26.22-.29c1.06.09,2.18-.07,3.26-.55l34.67-15.48c7.49,15.31,26.37,26.18,48.47,26.18,19.62,0,36.7-8.56,45.53-21.19l33.17,21.38c.17.11.34.21.52.3.14.09.29.17.45.23l.09.03c.35.14.69.26,1.05.34l22.01,7.12-11.9-28.32h24.22l-23.81-14.78Z"/>
          <path class="cls-3" d="M309.77,599.42s-17.65,19.68-16.83,40.62c.5,12.82,4.51,27.04,10.26,40.22,0,0,6.16,1.23,13.13.82,10.38-.61,11.08-1.64,11.08-1.64,0,0-11.9-30.28-13.13-38.36-1.23-8.08,2.46-14.88,6.57-22.53,2.12-3.95,10.67-16.27,10.67-16.27,0,0-4.93-3.28-21.75-2.86Z"/>
          <line class="cls-12" x1="230.76" y1="616.84" x2="250.05" y2="622.59"/>
          <line class="cls-12" x1="230.35" y1="627.51" x2="256.62" y2="630.39"/>
          <line class="cls-12" x1="229.12" y1="647.63" x2="246.36" y2="643.11"/>
          <line class="cls-12" x1="221.32" y1="661.99" x2="256.62" y2="648.45"/>
          <line class="cls-12" x1="405.61" y1="611.92" x2="383.44" y2="620.95"/>
          <line class="cls-12" x1="399.04" y1="625.46" x2="378.93" y2="628.75"/>
          <line class="cls-12" x1="399.04" y1="645.16" x2="369.08" y2="636.95"/>
          <line class="cls-12" x1="398.63" y1="658.71" x2="374.82" y2="651.32"/>
        </g>
      </g>
      <g id="candy-11" data-name="candy">
        <g>
          <path class="cls-14" d="M680.45,529.56l18.06-11.08-16.83-10.26,23.26-8.47-16.56-6.79,12.6-7.46-26.17,1.72c-1.07-.04-2.17.19-3.23.73l-35.49,18.23c-6.37-10.61-18.37-18.71-32.98-21.92-4.45-.98-9.14-1.5-13.99-1.5-17.89,0-33.67,7.12-43,17.95l-32.2-23.34c-.16-.12-.33-.23-.5-.33-.14-.09-.28-.18-.44-.25l-.09-.04c-.34-.16-.68-.3-1.03-.4l-21.58-8.31,10.34,28.93-24.18-1.32,22.96,16.05-18.64,10.08,16.24,11.16-23.69,7.19,16.17,7.68-12.99,6.76,26.22-.29c1.06.09,2.18-.07,3.26-.55l34.67-15.48c7.49,15.31,26.37,26.18,48.47,26.18,19.62,0,36.7-8.56,45.53-21.19l33.17,21.38c.17.11.34.21.52.3.14.09.29.17.45.23l.09.03c.35.14.69.26,1.05.34l22.01,7.12-11.9-28.32h24.22l-23.81-14.78Z"/>
          <path class="cls-3" d="M585.64,482.79s-17.65,19.68-16.83,40.62c.5,12.82,4.51,27.04,10.26,40.22,0,0,6.16,1.23,13.13.82,10.38-.61,11.08-1.64,11.08-1.64,0,0-11.9-30.28-13.13-38.36-1.23-8.08,2.46-14.88,6.57-22.53,2.12-3.95,10.67-16.27,10.67-16.27,0,0-4.93-3.28-21.75-2.86Z"/>
          <line class="cls-12" x1="506.64" y1="500.21" x2="525.93" y2="505.96"/>
          <line class="cls-12" x1="506.23" y1="510.88" x2="532.49" y2="513.76"/>
          <line class="cls-12" x1="505" y1="530.99" x2="522.23" y2="526.48"/>
          <line class="cls-12" x1="497.2" y1="545.36" x2="532.49" y2="531.82"/>
          <line class="cls-12" x1="681.48" y1="495.29" x2="659.32" y2="504.32"/>
          <line class="cls-12" x1="674.91" y1="508.83" x2="654.8" y2="512.12"/>
          <line class="cls-12" x1="674.91" y1="528.53" x2="644.95" y2="520.32"/>
          <line class="cls-12" x1="674.5" y1="542.08" x2="650.7" y2="534.69"/>
        </g>
      </g>
      <g id="candy-12" data-name="candy">
        <g>
          <path class="cls-14" d="M663.81,675.59l18.06-11.08-16.83-10.26,23.26-8.47-16.56-6.79,12.6-7.46-26.17,1.72c-1.07-.04-2.17.19-3.23.73l-35.49,18.23c-6.37-10.61-18.37-18.71-32.98-21.92-4.45-.98-9.14-1.5-13.99-1.5-17.89,0-33.67,7.12-43,17.95l-32.2-23.34c-.16-.12-.33-.23-.5-.33-.14-.09-.28-.18-.44-.25l-.09-.04c-.34-.16-.68-.3-1.03-.4l-21.58-8.31,10.34,28.93-24.18-1.32,22.96,16.05-18.64,10.08,16.24,11.16-23.69,7.19,16.17,7.68-12.99,6.76,26.22-.29c1.06.09,2.18-.07,3.26-.55l34.67-15.48c7.49,15.31,26.37,26.18,48.47,26.18,19.62,0,36.7-8.56,45.53-21.19l33.17,21.38c.17.11.34.21.52.3.14.09.29.17.45.23l.09.03c.35.14.69.26,1.05.34l22.01,7.12-11.9-28.32h24.22l-23.81-14.78Z"/>
          <path class="cls-3" d="M569,628.82s-17.65,19.68-16.83,40.62c.5,12.82,4.51,27.04,10.26,40.22,0,0,6.16,1.23,13.13.82,10.38-.61,11.08-1.64,11.08-1.64,0,0-11.9-30.28-13.13-38.36-1.23-8.08,2.46-14.88,6.57-22.53,2.12-3.95,10.67-16.27,10.67-16.27,0,0-4.93-3.28-21.75-2.86Z"/>
          <line class="cls-12" x1="489.99" y1="646.25" x2="509.28" y2="651.99"/>
          <line class="cls-12" x1="489.58" y1="656.92" x2="515.85" y2="659.79"/>
          <line class="cls-12" x1="488.35" y1="677.03" x2="505.58" y2="672.51"/>
          <line class="cls-12" x1="480.55" y1="691.39" x2="515.85" y2="677.85"/>
          <line class="cls-12" x1="664.83" y1="641.32" x2="642.67" y2="650.35"/>
          <line class="cls-12" x1="658.27" y1="654.87" x2="638.15" y2="658.15"/>
          <line class="cls-12" x1="658.27" y1="674.57" x2="628.3" y2="666.36"/>
          <line class="cls-12" x1="657.85" y1="688.11" x2="634.05" y2="680.72"/>
        </g>
      </g>
      <g id="candy-13" data-name="candy">
        <g>
          <path class="cls-14" d="M945.8,525.55l18.06-11.08-16.83-10.26,23.26-8.47-16.56-6.79,12.6-7.46-26.17,1.72c-1.07-.04-2.17.19-3.23.73l-35.49,18.23c-6.37-10.61-18.37-18.71-32.98-21.92-4.45-.98-9.14-1.5-13.99-1.5-17.89,0-33.67,7.12-43,17.95l-32.2-23.34c-.16-.12-.33-.23-.5-.33-.14-.09-.28-.18-.44-.25l-.09-.04c-.34-.16-.68-.3-1.03-.4l-21.58-8.31,10.34,28.93-24.18-1.32,22.96,16.05-18.64,10.08,16.24,11.16-23.69,7.19,16.17,7.68-12.99,6.76,26.22-.29c1.06.09,2.18-.07,3.26-.55l34.67-15.48c7.49,15.31,26.37,26.18,48.47,26.18,19.62,0,36.7-8.56,45.53-21.19l33.17,21.38c.17.11.34.21.52.3.14.09.29.17.45.23l.09.03c.35.14.69.26,1.05.34l22.01,7.12-11.9-28.32h24.22l-23.81-14.78Z"/>
          <path class="cls-3" d="M850.99,478.78s-17.65,19.68-16.83,40.62c.5,12.82,4.51,27.04,10.26,40.22,0,0,6.16,1.23,13.13.82,10.38-.61,11.08-1.64,11.08-1.64,0,0-11.9-30.28-13.13-38.36-1.23-8.08,2.46-14.88,6.57-22.53,2.12-3.95,10.67-16.27,10.67-16.27,0,0-4.93-3.28-21.75-2.86Z"/>
          <line class="cls-12" x1="771.98" y1="496.21" x2="791.27" y2="501.95"/>
          <line class="cls-12" x1="771.57" y1="506.88" x2="797.84" y2="509.75"/>
          <line class="cls-12" x1="770.34" y1="526.99" x2="787.58" y2="522.48"/>
          <line class="cls-12" x1="762.54" y1="541.36" x2="797.84" y2="527.81"/>
          <line class="cls-12" x1="946.82" y1="491.28" x2="924.66" y2="500.31"/>
          <line class="cls-12" x1="940.26" y1="504.83" x2="920.14" y2="508.11"/>
          <line class="cls-12" x1="940.26" y1="524.53" x2="910.29" y2="516.32"/>
          <line class="cls-12" x1="939.85" y1="538.07" x2="916.04" y2="530.69"/>
        </g>
      </g>
      <g id="candy-14" data-name="candy">
        <g>
          <path class="cls-14" d="M405.95,663.22l2.68,21.02,16.27-11.12-1.84,24.69,12.99-12.31,1.62,14.56,9.18-24.56c.47-.96.72-2.05.66-3.24l-2.03-39.85c12.29-1.45,24.61-9.06,33.53-21.06,2.72-3.66,5.13-7.72,7.12-12.14,7.35-16.31,7.35-33.62,1.31-46.58l34.51-19.76c.18-.1.34-.21.5-.32.14-.09.28-.18.41-.3l.07-.07c.29-.24.55-.5.78-.77l16.45-16.26-30.62-2.46,11.14-21.5-24.07,14.34-1.53-21.13-16.85,10.22,3.18-24.55-13.65,11.59-.83-14.62-10.51,24.02c-.52.93-.83,2.01-.84,3.2l-.13,37.97c-17.04.53-34.7,13.28-43.79,33.43-8.06,17.89-7.28,36.97.61,50.21l-33.13,21.45c-.17.11-.33.23-.49.35-.14.09-.27.2-.39.32l-.07.07c-.27.26-.52.53-.74.81l-15.54,17.13,30.71.79-9.95,22.08,23.25-15.63Z"/>
          <path class="cls-3" d="M487.56,596.01s-10.69-24.18-30.11-32.03c-11.89-4.81-26.51-7-40.89-7.18,0,0-3.65,5.11-6.15,11.64-3.71,9.72-3.06,10.78-3.06,10.78,0,0,32.5,1.59,40.37,3.79,7.87,2.2,12.55,8.36,17.84,15.25,2.73,3.56,10.45,16.42,10.45,16.42,0,0,5.02-3.14,11.54-18.66Z"/>
          <line class="cls-12" x1="504.15" y1="516.82" x2="490.98" y2="532.04"/>
          <line class="cls-12" x1="494.59" y1="512.06" x2="481.17" y2="534.83"/>
          <line class="cls-12" x1="476.76" y1="502.67" x2="473.79" y2="520.24"/>
          <line class="cls-12" x1="466.87" y1="489.66" x2="464.71" y2="527.4"/>
          <line class="cls-12" x1="436.77" y1="678.24" x2="437.65" y2="654.32"/>
          <line class="cls-12" x1="427.13" y1="666.68" x2="432.4" y2="647"/>
          <line class="cls-12" x1="409.17" y1="658.59" x2="428.96" y2="634.65"/>
          <line class="cls-12" x1="396.99" y1="652.65" x2="413.51" y2="633.98"/>
        </g>
      </g>
      <g id="lock">
        <path class="cls-11" d="M926.84,649.96c-42.6,15.28-85.3,30.37-128.12,45.03,13.55,40.01,51.99,63.58,87.09,52.86,35.87-10.96,54.64-53.57,41.92-95.18-.28-.92-.59-1.82-.89-2.71Z"/>
        <path class="cls-11" d="M678.13,131.73c-36.39,9.08-60.91,38.1-50.37,80.32.23.9.48,1.79.73,2.68,43.53-12.43,86.94-25.28,130.28-38.33-11.33-40.07-45.07-53.55-80.65-44.67Z"/>
        <path class="cls-9" d="M713.29,182.63c-2.9-11.61-14.15-18.79-25.14-16.05-10.99,2.74-17.55,14.38-14.65,25.98.75,3.02,2.08,5.73,3.82,8.05,12.2-3.57,24.4-7.17,36.59-10.79.17-2.35,0-4.77-.61-7.19Z"/>
        <path class="cls-9" d="M882.73,665.69c-11.98,4.25-23.98,8.47-35.98,12.67,2,2.41,4.46,4.35,7.18,5.67l-1.97,32.35,45.42-11.46-18.96-26.66c2.67-3.52,4.21-7.93,4.31-12.57Z"/>
      </g>
    </g>
  </g>
</svg>