<?xml version="1.0" encoding="UTF-8"?>
<svg id="Layer_2" data-name="Layer 2" xmlns="http://www.w3.org/2000/svg" viewBox="0 0 51.84 59.39">
  <defs>
    <style>
      .cls-1 {
        fill: #cfc4e8;
        stroke-width: .71px;
      }

      .cls-1, .cls-2, .cls-3, .cls-4, .cls-5, .cls-6, .cls-7 {
        stroke: #000;
        stroke-miterlimit: 10;
      }

      .cls-2 {
        fill: #f4df84;
      }

      .cls-2, .cls-3, .cls-4, .cls-5 {
        stroke-width: .47px;
      }

      .cls-3 {
        fill: #fff;
      }

      .cls-4 {
        fill: #eaa04e;
      }

      .cls-5, .cls-6 {
        fill: #db7171;
      }

      .cls-6 {
        stroke-width: .37px;
      }

      .cls-7 {
        fill: #f9e70b;
        stroke-width: .79px;
      }
    </style>
  </defs>
  <g id="Layer_1-2" data-name="Layer 1">
    <g id="Pizza_Mascot_1" data-name="Pizza Mascot 1">
      <path id="body" class="cls-1" d="M49.2,34.85c-1.08-.62-2.22-.85-3.09-.69-1.88-6.27-5.98-11.51-10.75-11.51-2.87,0-5.51,1.96-7.56,4.9-.11-.48-.29-.98-.55-1.48-.99-1.89-2.68-2.96-3.79-2.38-1.1.58-1.2,2.58-.21,4.47.72,1.37,1.81,2.3,2.77,2.5-1.57,3.32-2.5,7.26-2.5,10.96,0,5.98,2.43,9,6.03,10.33-.65.63-1.14,1.71-1.28,2.99-.22,2.09.6,3.9,1.84,4.03,1.24.13,2.42-1.46,2.65-3.55.11-1.06-.04-2.05-.38-2.78.95.13,1.95.19,2.99.19s2.09-.07,3.07-.23c-.38.8-.48,1.94-.22,3.14.45,2.06,1.8,3.51,3.01,3.25,1.22-.26,1.84-2.15,1.39-4.2-.27-1.26-.89-2.3-1.6-2.85,3.65-1.27,6.1-4.31,6.19-10.6.01-.84-.05-1.68-.14-2.53,1.75.96,3.63.9,4.24-.15.62-1.08-.31-2.79-2.09-3.81Z"/>
      <g id="face">
        <path d="M37.02,39.26c0,1.45-1.18,2.63-2.63,2.63s-2.63-1.18-2.63-2.63,1.18-.83,2.63-.83,2.63-.62,2.63.83Z"/>
        <polygon class="cls-7" points="31.04 30.46 33.46 30.76 31.75 32.49 32.21 34.89 30.03 33.8 27.9 34.97 28.26 32.56 26.48 30.9 28.89 30.5 29.92 28.29 31.04 30.46"/>
        <polygon class="cls-7" points="37.26 32.87 35.92 30.84 38.35 31.01 39.86 29.1 40.46 31.46 42.74 32.31 40.67 33.61 40.57 36.04 38.7 34.48 36.36 35.13 37.26 32.87"/>
      </g>
      <g id="pizza">
        <circle class="cls-3" cx="15.1" cy="15.27" r="14.87"/>
        <circle class="cls-4" cx="15.1" cy="15.1" r="14.87"/>
        <circle class="cls-2" cx="15.1" cy="15.27" r="11.51"/>
        <circle class="cls-5" cx="7.84" cy="18.09" r="1.54"/>
        <circle class="cls-5" cx="15.1" cy="10.9" r="1.54"/>
        <circle class="cls-5" cx="12.45" cy="14.93" r="1.54"/>
        <circle class="cls-5" cx="14.83" cy="19.63" r="1.54"/>
        <circle class="cls-5" cx="10.92" cy="23.59" r="1.54"/>
        <circle class="cls-5" cx="23.73" cy="18.35" r="1.54"/>
        <circle class="cls-5" cx="19.26" cy="14.93" r="1.54"/>
        <circle class="cls-5" cx="22.19" cy="10.9" r="1.54"/>
        <circle class="cls-5" cx="6.3" cy="13.39" r="1.54"/>
        <circle class="cls-5" cx="10.92" cy="7.15" r="1.54"/>
        <circle class="cls-5" cx="18.41" cy="7.15" r="1.54"/>
        <circle class="cls-5" cx="19.26" cy="22.71" r="1.54"/>
        <circle class="cls-6" cx="13.29" cy="24.25" r="1.54"/>
        <line class="cls-3" x1="15.1" y1=".4" x2="15.1" y2="30.14"/>
        <line class="cls-3" x1="29.97" y1="15.27" x2=".24" y2="15.27"/>
        <line class="cls-3" x1="4.94" y1="4.42" x2="25.27" y2="26.37"/>
        <line class="cls-3" x1="25.27" y1="4.42" x2="4.6" y2="25.79"/>
      </g>
    </g>
  </g>
</svg>