<?xml version="1.0" encoding="UTF-8"?>
<svg id="Layer_2" data-name="Layer 2" xmlns="http://www.w3.org/2000/svg" viewBox="0 0 468.1 916.42">
  <defs>
    <style>
      .cls-1 {
        fill: #af620e;
      }

      .cls-2 {
        stroke-width: 16.2px;
      }

      .cls-2, .cls-3, .cls-4 {
        fill: #f99d23;
      }

      .cls-2, .cls-3, .cls-4, .cls-5, .cls-6, .cls-7, .cls-8, .cls-9, .cls-10, .cls-11 {
        stroke-miterlimit: 10;
      }

      .cls-2, .cls-3, .cls-4, .cls-5, .cls-12, .cls-13, .cls-8, .cls-9, .cls-10, .cls-11 {
        stroke: #000;
      }

      .cls-3, .cls-6, .cls-8 {
        stroke-width: 11.28px;
      }

      .cls-4 {
        stroke-width: 11.22px;
      }

      .cls-14 {
        fill: #444342;
      }

      .cls-5 {
        stroke-width: 12.11px;
      }

      .cls-5, .cls-13 {
        fill: #33312e;
      }

      .cls-6 {
        fill: #2a4f09;
        stroke: #070707;
      }

      .cls-15 {
        stroke-width: 13.61px;
      }

      .cls-15, .cls-16 {
        fill: none;
        stroke: #af620e;
      }

      .cls-15, .cls-16, .cls-12, .cls-13 {
        stroke-linecap: round;
        stroke-linejoin: round;
      }

      .cls-16 {
        stroke-width: 16.05px;
      }

      .cls-12 {
        fill: #a8640b;
        stroke-width: 13.92px;
      }

      .cls-7 {
        fill: #ce7f20;
        stroke: #020202;
        stroke-width: 11.54px;
      }

      .cls-13 {
        stroke-width: 7.99px;
      }

      .cls-8 {
        fill: #9b5808;
      }

      .cls-9 {
        fill: #282624;
        stroke-width: 13.86px;
      }

      .cls-10 {
        stroke-width: 10.46px;
      }

      .cls-11 {
        stroke-width: 11.94px;
      }
    </style>
  </defs>
  <g id="Homescreen">
    <g id="Pumpkin_Head" data-name="Pumpkin Head">
      <g>
        <path class="cls-12" d="M268.14,782.61s-14.7,77.48-14.73,83.38,44.63,9.49,44.63,9.49l6.36-95.22-36.26,2.36Z"/>
        <path class="cls-13" d="M323.26,890.4c-.08,15.78-21.28,22.17-53.37,22.02-32.09-.15-47.4-11.08-47.33-26.86s15.74-28.25,47.83-28.1c32.09.15,53.01,3.4,52.87,32.94Z"/>
        <path class="cls-13" d="M307.8,882.09s2.11-36.98-27.92-34.03c-30.04,2.95-37.41,25-37.41,25"/>
      </g>
      <g>
        <path class="cls-12" d="M132.55,778.9s-14.7,77.48-14.73,83.38,44.63,9.49,44.63,9.49l6.36-95.22-36.26,2.36Z"/>
        <path class="cls-5" d="M187.67,886.69c-.08,15.78-21.28,22.17-53.37,22.02-32.09-.15-47.4-11.08-47.33-26.86s15.74-28.25,47.83-28.1c32.09.15,53.01,3.4,52.87,32.94Z"/>
        <path class="cls-13" d="M172.21,878.39s2.11-36.98-27.92-34.03c-30.04,2.95-37.41,25-37.41,25"/>
      </g>
      <path class="cls-2" d="M220.07,357s-14.46,32.56-25.22,39.64c-10.76,7.09,46.39,20.61,46.39,20.61l42.91.21-12.18-71.43-58.92-18.63,7.01,29.6Z"/>
      <g>
        <ellipse class="cls-8" cx="234.32" cy="184.95" rx="121.75" ry="133.45" transform="translate(46.09 416.65) rotate(-89.19)"/>
        <path class="cls-7" d="M337.94,64.42c-45.7-.58-84.39,26.48-98.74,76.86-14.13-50.17-54.72-77.71-102.36-78.32-60.07-.76-109.45,55.71-110.28,126.13-.83,70.42,47.19,128.13,107.26,128.89,47.98.61,89.13-35.29,104.18-85.65,13.43,50.15,51.55,86.53,96.92,87.11,57.21.73,104.27-55.77,105.1-126.19.83-70.42-44.87-128.1-102.08-128.83Z"/>
        <path class="cls-6" d="M216.09,61.28s11.21,14.15,4.54,33.86c-6.67,19.71-17.08,34.69-17.08,34.69l67.66,2.2s-2.54-58.28-11.88-71.49c-9.24-13.07-8.41-10.38-24.31-27.37-8.37-8.95-21.5-24.54-21.5-24.54l-45.36,51.48s39.52-9.21,47.93,1.17Z"/>
        <path class="cls-3" d="M360.39,96.5c-30.08-.42-57.88,9.81-79.98,27.27-11.18-3.09-27.01-7.68-39.21-7.86-18.33-.26-31.8,5.89-47.79,12.05-21.31-14.53-47.15-23.21-75.1-23.61C43.99,103.32,6.68,163.53,5.66,236.03c-1.02,72.5,34.64,129.84,108.96,130.88,20.99.3,40.92-4.11,58.74-12.23,19.88,11.76,43.23,18.7,68.3,19.05,28.26.4,54.58-7.63,76.36-21.64,12.18,4.15,25.18,6.48,38.7,6.67,70.74.99,104.71-50.01,105.73-122.43,1.02-72.42-31.31-138.84-102.04-139.84Z"/>
        <path class="cls-15" d="M185.58,151.37s-74.48,72.47-24.23,171.41"/>
        <path class="cls-16" d="M301.16,156.62s82.16,76.05,23.85,156.92"/>
        <path class="cls-11" d="M177.22,165.7l-23.13,43.65c-2.18,4.11.79,9.07,5.44,9.09l48.63.23c4.79.02,7.79-5.16,5.38-9.3l-25.49-43.89c-2.44-4.2-8.55-4.08-10.82.21Z"/>
        <path class="cls-11" d="M323.52,162.64l22.71,43.87c2.14,4.13-.87,9.06-5.53,9.04l-48.63-.23c-4.79-.02-7.74-5.24-5.29-9.35l25.91-43.64c2.48-4.18,8.59-4,10.82.31Z"/>
      </g>
      <path class="cls-10" d="M151.56,252.8l43.11,16.37s.02.02.02.04l-4.46,22.83s0,.03.03.04l23.61,2.82s.03-.01.03-.03l1.81-19.46s.02-.03.03-.03l13.16.93s.03.02.03.03l-1.9,17.84s.01.03.03.03l31.97.78s.03-.02.03-.04l-2.95-20.82s.01-.03.03-.04l27.11-2.2s.03.01.03.03l.91,17.7s.02.03.03.03l31.84-1.64s.03-.02.03-.04l-4.78-19.93s0-.03.02-.04l39.49-17.37s.05,0,.04.03c-.5,1.56-10.93,33.58-22.15,44.78-18.33,18.3-33.56,27.21-34.31,27.65-.02,0-.04,0-.04-.01l-6.31-13.38s-.02-.02-.03-.02l-26.19,2.15s-.03.01-.03.03l-1.04,16.18s-.02.03-.03.03l-31.15-3.24s-.03-.02-.03-.04l4.9-13.94s0-.04-.03-.04l-36.83-3.76s-.03,0-.03.02l-4.78,16.37s-.03.03-.04.02c-.85-.52-18.6-11.5-25.7-24.56-7.11-13.08-15.16-44.64-15.53-46.09,0-.02.02-.04.04-.03Z"/>
      <path class="cls-4" d="M397.99,606.9s7.26,17.62,24.55,29.85c17.29,12.24,6.1,43.59-26.96,40.92-17.62-1.42-25.08-12.61-23.12-30.25,1.96-17.65-20.45-48.1-20.45-48.1l41.04-20.94,4.94,28.53Z"/>
      <path class="cls-4" d="M51.43,599.12s-7.43,17.55-24.83,29.62c-17.4,12.07-6.52,43.53,26.57,41.17,17.64-1.26,25.2-12.37,23.41-30.03-1.79-17.67,20.91-47.91,20.91-47.91l-40.84-21.33-5.22,28.48Z"/>
      <g>
        <path class="cls-9" d="M349.98,617.83c4.95,30.37,71.33,8.51,71.37,1.51s-21.67-70.56-25.02-86.82c-6.98-33.88-13.78-45.07-20.11-69.78,0,0-30.1-102.84-92.39-82.14,0,0-17.41,16.26-29.65,16.2-8.16-.04-21.43,4.57-45.83-10.72,0,0-16.22-18.75-60.2,9.05-39.99,25.28-103.76,162.89-116.1,185.01-12.34,22.12-2.15,23.33-2.15,23.33,0,0,22.37,12.94,46.83,14.23,24.46,1.28,37.75-4.49,37.75-4.49"/>
        <path class="cls-9" d="M332.26,485.87s16.96,77.11,22.37,225.35c1.91,52.47-.47,99.2-.47,99.2,0,0-122.5,29.76-179.54,17.81-57.04-11.94-107.88-42.53-107.88-42.53l39.58-174.87,41.38-124.68"/>
      </g>
      <path class="cls-1" d="M12.68,238.17c0,54.88,52.4,124.03,52.87,99.37.48-24.94-19.87-47.98-19.87-102.86s18.44-79.79,19.87-95.88c2.18-24.59-52.87,44.49-52.87,99.37Z"/>
      <polygon class="cls-14" points="366.68 614.68 404.68 609.68 362.68 467.68 363.68 552.68 366.68 614.68"/>
      <path class="cls-14" d="M294.68,797.68l48-3-22-286-24.55,140.42c-.3,1.72-.46,3.46-.48,5.2l-.97,143.38Z"/>
    </g>
  </g>
</svg>