<?xml version="1.0" encoding="UTF-8"?>
<svg id="Layer_2" data-name="Layer 2" xmlns="http://www.w3.org/2000/svg" viewBox="0 0 777.22 1654.79">
  <defs>
    <style>
      .cls-1 {
        fill: #06285b;
        stroke: #06285b;
      }

      .cls-1, .cls-2, .cls-3, .cls-4, .cls-5, .cls-6, .cls-7 {
        stroke-linecap: round;
        stroke-linejoin: round;
      }

      .cls-1, .cls-8, .cls-6 {
        stroke-width: 9.22px;
      }

      .cls-9 {
        fill: #4c3412;
        stroke-width: 10.6px;
      }

      .cls-9, .cls-2, .cls-10, .cls-8, .cls-11, .cls-12, .cls-13 {
        stroke: #000;
      }

      .cls-9, .cls-10, .cls-14, .cls-8, .cls-11, .cls-12, .cls-13 {
        stroke-miterlimit: 10;
      }

      .cls-2 {
        stroke-width: 12.96px;
      }

      .cls-2, .cls-11, .cls-3, .cls-4, .cls-5, .cls-6, .cls-7 {
        fill: #ddbb6f;
      }

      .cls-10 {
        fill: #db2507;
      }

      .cls-10, .cls-11 {
        stroke-width: 13.83px;
      }

      .cls-14 {
        fill: #7c180a;
        stroke: #7c180a;
        stroke-width: 10.75px;
      }

      .cls-8 {
        fill: #eace06;
      }

      .cls-12 {
        fill: #114393;
        stroke-width: 12.29px;
      }

      .cls-3 {
        stroke-width: 9.93px;
      }

      .cls-3, .cls-4, .cls-5, .cls-6, .cls-7 {
        stroke: #ddbb6f;
      }

      .cls-4 {
        stroke-width: 5.61px;
      }

      .cls-5 {
        stroke-width: 8.1px;
      }

      .cls-7 {
        stroke-width: 6.46px;
      }

      .cls-13 {
        stroke-width: 6.12px;
      }
    </style>
  </defs>
  <g id="FInding_Candy_Screen" data-name="FInding Candy Screen">
    <g id="Scarecrow">
      <path class="cls-2" d="M108.83,769.78s-.9,52.35-14.8,68.86c-13.9,16.52-15.3,36.91,26.74,43.66,21.31,3.42,45.55-15.19,45.78-28.27.23-13.09-24.62-45.19-21.1-67.12,3.52-21.93-36.62-17.12-36.62-17.12Z"/>
      <path class="cls-2" d="M668.68,779s.9,52.35,14.8,68.86c13.9,16.52,15.3,36.91-26.74,43.66-21.31,3.42-45.55-15.19-45.78-28.27s24.62-45.19,21.1-67.12c-3.52-21.93,36.62-17.12,36.62-17.12Z"/>
      <path class="cls-11" d="M378.96,327.54s6.15,41.5,0,55.33c-4.28,9.64-21.84,13.13-27.67,15.37-2.27.88,3.51,16.27,4.61,18.44,5.52,10.85,23.86,25.83,46.11,24.59,27.67-1.54,46.37-31.27,50.72-39.96,1.54-3.07-21.52,1.54-29.2-16.91-9.55-22.92,6.15-59.94,6.15-59.94l-50.72,3.07Z"/>
      <path class="cls-11" d="M276.75,228.4c0,68.28,22.28,128.34,129.88,128.34s131.42-64.67,131.42-132.95-52.73-127.32-132.95-127.32-128.34,63.66-128.34,131.93Z"/>
      <path class="cls-8" d="M454.7,205.07l-24.28,42.06c-1.35,2.34.34,5.26,3.04,5.26h48.57c2.7,0,4.39-2.92,3.04-5.26l-24.28-42.06c-1.35-2.34-4.72-2.34-6.07,0Z"/>
      <path class="cls-8" d="M348.65,205.07l-24.28,42.06c-1.35,2.34.34,5.26,3.04,5.26h48.57c2.7,0,4.39-2.92,3.04-5.26l-24.28-42.06c-1.35-2.34-4.72-2.34-6.07,0Z"/>
      <g id="hat">
        <path class="cls-9" d="M520.77,151.64c21.58,4.78,73.61,9.08,73.67,16.06.15,15.89-104.1,36.23-187.07,37.02s-190.59-17.53-190.74-33.42c-.06-6.72,47.21-12.05,67.31-17.14,0,0,37.47-9.47,33.42-33.31-3.18-18.71-27.18-19.98-50.23-.27-12.43,10.63-12.88-12.97-9.21-22.4,11.71-30.1,29.59-41.52,29.59-41.52,39.44-30.36,69.29-45.64,103.75-48.22,38.88-2.91,74.46,7.44,104.65,46.23,22.01,28.28,15.72,83.8,15.72,83.8-.59,9.02,9.14,13.16,9.14,13.16Z"/>
      </g>
      <path class="cls-9" d="M501.16,1508.74s21.52,55.33,21.52,69.17-9.22,79.93-47.65,70.7c-38.43-9.22-49.18-58.41-44.57-72.24,4.61-13.83,13.83-63.02,13.83-63.02l56.87-4.61Z"/>
      <path class="cls-9" d="M269.07,1504.13s21.52,55.33,21.52,69.17-9.22,79.93-47.65,70.7c-38.43-9.22-49.18-58.41-44.57-72.24,4.61-13.83,13.83-63.02,13.83-63.02l56.87-4.61Z"/>
      <g>
        <path class="cls-10" d="M514.7,834.68l-265.81-1.38c-8.72-.05-15.65-7.31-15.3-16.02l8.58-193.1c.04-.89,0-19.09,0-19.98,0-26.13,18.67-90.68-26.13-90.68-38.41,0-41.44,222.61-41.54,284.13-.01,8.58-7.04,15.48-15.62,15.35l-71.95-1.07c-8.5-.13-15.29-7.11-15.16-15.61.91-62.58,5.37-296.51,21.32-335.06,18.44-44.57,46.11-63.02,101.44-64.55,55.33-1.54,402.7-4.61,433.44,6.15,30.74,10.76,55.33,32.28,59.94,86.07,3.96,46.2,7.92,263.55,8.96,324.03.15,8.6-6.79,15.65-15.39,15.65h-73.91c-8.9,0-15.94-7.52-15.36-16.41,4.1-62.42,16.58-282.02-10.35-291-41.5-13.83-43.04,73.78-43.04,73.78l-8.65,224.9c-.32,8.3-7.16,14.85-15.46,14.8Z"/>
        <polygon class="cls-14" points="618.74 808.63 677.15 808.63 660.24 478.17 612.59 432.06 618.74 808.63"/>
      </g>
      <g>
        <path class="cls-12" d="M242.94,392.86h84.54c8.17.33,14.92,15.6,14.74,24.5l-2.99,150.44c-.18,9.05,6.45,16.52,14.77,16.64l79.46,1.12c8.14.11,14.87-6.87,15.15-15.71l5.05-156.08c.28-8.69,7.24-19.25,15.22-19.36l83,1.54c8.37-.12,13.87,8.23,13.83,17.34l-4.72,1126.27c-.04,8.91-6.65,16.14-14.84,16.21l-130.29,1.25c-8.32.08-15.1-7.24-15.1-16.29v-508.94c0-9.34-7.2-16.77-15.78-16.27l-22.88,1.35c-7.67.45-13.79,7.15-14.14,15.51l-21.77,509.39c-.37,8.64-6.87,15.46-14.82,15.53l-129.99,1.25c-8.66.08-15.58-7.82-15.07-17.23l60.1-1128.68c.47-8.85,8.37-20.09,16.51-19.76Z"/>
        <polygon class="cls-1" points="478.1 431.29 470.11 614.44 342.84 617.27 338.23 973.86 453.9 985.69 430.45 1522.58 536.51 1525.65 545.73 425.14 478.1 431.29"/>
      </g>
      <path class="cls-13" d="M358.48,300.16c-.93-1.28.8-2.49,2.69-2.04,15.13,3.58,26.76,2.83,37.85,2.83s31.32-1.33,46.38-4.78c2.34-.54,4.05.71,3.34,2.53-4.03,10.41-8.03,23.47-31.77,23.47-24.23,0-52.74-14.13-58.49-22Z"/>
      <g id="hay">
        <line class="cls-6" x1="132.67" y1="358.25" x2="210.58" y2="431.76"/>
        <line class="cls-6" x1="548.04" y1="982.31" x2="652.55" y2="958.9"/>
        <line class="cls-6" x1="117.67" y1="1026.89" x2="222.19" y2="1003.47"/>
        <line class="cls-6" x1="194.68" y1="250.93" x2="299.2" y2="227.52"/>
        <line class="cls-6" x1="100.93" y1="1293.03" x2="205.44" y2="1269.62"/>
        <line class="cls-6" x1="668.09" y1="790.43" x2="772.6" y2="767.01"/>
        <line class="cls-6" x1="4.61" y1="642.22" x2="92.72" y2="703.11"/>
        <line class="cls-6" x1="649.64" y1="458.43" x2="754.16" y2="435.01"/>
        <line class="cls-6" x1="546.66" y1="1459.57" x2="651.18" y2="1436.16"/>
        <line class="cls-6" x1="135.75" y1="945.4" x2="213.66" y2="1018.9"/>
        <line class="cls-3" x1="551.88" y1="956.95" x2="625.58" y2="1000.45"/>
        <line class="cls-6" x1="114.23" y1="1438.78" x2="192.14" y2="1512.28"/>
        <line class="cls-6" x1="539.99" y1="1266.63" x2="617.89" y2="1340.14"/>
        <line class="cls-6" x1="735.6" y1="671.28" x2="677.43" y2="761.21"/>
        <line class="cls-6" x1="15.86" y1="570.36" x2="93.77" y2="643.87"/>
        <line class="cls-5" x1="230.95" y1="282.14" x2="310.41" y2="298.18"/>
        <line class="cls-3" x1="495.5" y1="287.32" x2="569.2" y2="330.82"/>
        <line class="cls-5" x1="534.11" y1="839.01" x2="613.58" y2="855.05"/>
        <line class="cls-4" x1="195.58" y1="673.64" x2="240.75" y2="642.62"/>
        <line class="cls-7" x1="531.04" y1="631.51" x2="592.92" y2="642.69"/>
        <line class="cls-5" x1="111.43" y1="1370.82" x2="190.9" y2="1386.86"/>
        <line class="cls-5" x1="669.37" y1="577.71" x2="748.83" y2="593.75"/>
        <line class="cls-4" x1="525.1" y1="243.75" x2="570.27" y2="212.73"/>
        <line class="cls-4" x1="309.91" y1="1477.98" x2="355.09" y2="1446.95"/>
        <line class="cls-4" x1="367.83" y1="1202.97" x2="417.06" y2="1227.04"/>
        <line class="cls-4" x1="44.01" y1="800.15" x2="89.18" y2="769.13"/>
        <line class="cls-4" x1="510.66" y1="282.35" x2="514" y2="337.05"/>
        <line class="cls-6" x1="465.44" y1="99.92" x2="569.96" y2="76.5"/>
        <line class="cls-3" x1="476.97" y1="74.56" x2="550.67" y2="118.06"/>
        <line class="cls-5" x1="234.8" y1="142.59" x2="314.26" y2="158.63"/>
        <line class="cls-7" x1="308.58" y1="3.23" x2="336.64" y2="59.51"/>
      </g>
    </g>
  </g>
</svg>