<?xml version="1.0" encoding="UTF-8"?>
<svg id="Layer_2" data-name="Layer 2" xmlns="http://www.w3.org/2000/svg" viewBox="0 0 36.05 31.07">
  <defs>
    <style>
      .cls-1 {
        fill: none;
      }

      .cls-1, .cls-2, .cls-3, .cls-4 {
        stroke-miterlimit: 10;
      }

      .cls-1, .cls-2, .cls-3, .cls-4, .cls-5 {
        stroke: #000;
      }

      .cls-1, .cls-2, .cls-5 {
        stroke-linecap: round;
      }

      .cls-1, .cls-3, .cls-5 {
        stroke-width: .77px;
      }

      .cls-2, .cls-4 {
        fill: #c0ddce;
        stroke-width: .63px;
      }

      .cls-5 {
        fill: #c6bbaf;
        stroke-linejoin: round;
      }
    </style>
  </defs>
  <g id="Layer_1-2" data-name="Layer 1">
    <g id="Sleeping_Mascot_2" data-name="Sleeping Mascot 2">
      <path id="pillow" class="cls-5" d="M8.96,29.45c-5.32,1.89-5.78-1.14-7.02-4.65s-3.73-5.82,2.52-8.04c6.24-2.22,1.01,2.84,2.25,6.34s8.5,4.12,2.25,6.34Z"/>
      <g id="body">
        <path id="body-2" data-name="body" class="cls-4" d="M34.05,3.7c-1.17-.16-2.42,1.83-2.78,4.45-.06.44-.09.87-.1,1.28-.06,0-.11.01-.17.02-.21.04-.41.1-.6.15-.85-.83-1.85-1.52-3.02-2.04.07-.1.14-.21.21-.33.01-.02.03-.05.04-.07.34-.66.6-1.51.73-2.46.32-2.28-.26-4.24-1.28-4.38-1.02-.14-2.11,1.59-2.42,3.87-.05.38-.08.76-.08,1.12-.05,0-.1.01-.15.02-.96.19-1.76.63-2.21,1.15-.37-.01-.74-.02-1.13-.01C12.24,6.76,1.73,12.98,1.97,20.21c.24,7.23,11.11,10.02,20.09,10.01,8.62,0,12.24-3.84,12.01-11.07-.07-2.18-.48-4.21-1.25-6,.6-.18,1.37-.64,1.83-1.51.01-.03.03-.05.04-.08.39-.76.69-1.74.84-2.83.36-2.62-.3-4.88-1.47-5.04Z"/>
        <path class="cls-2" d="M20.6,24.6c.36.15.76.26,1.19.32,1.7.25,3.19-.35,3.34-1.34.15-.99-1.11-2-2.81-2.25-.43-.06-.85-.07-1.23-.03"/>
        <path class="cls-1" d="M13.23,15.14s-.3,2.38,2.97,1.98"/>
        <path class="cls-1" d="M12.13,13.27s-1.9-1.46.69-3.5"/>
        <ellipse class="cls-3" cx="19.69" cy="11.06" rx="1.37" ry=".71" transform="translate(-1.76 4) rotate(-11.1)"/>
      </g>
      <path id="blanket" class="cls-5" d="M25.14,30.69s2.6-7.81,1.17-11.17l-3.82-10.8s-3.7-5.09,2.08-3.4c6.95,2.02,10.74,8.83,11.05,14.35.09,1.61,0,4.72,0,7.16s-10.48,3.86-10.48,3.86Z"/>
    </g>
  </g>
</svg>