<?xml version="1.0" encoding="UTF-8"?>
<svg id="Layer_2" data-name="Layer 2" xmlns="http://www.w3.org/2000/svg" viewBox="0 0 36.25 38.46">
  <defs>
    <style>
      .cls-1 {
        stroke: #4e5b40;
      }

      .cls-1, .cls-2, .cls-3, .cls-4, .cls-5, .cls-6, .cls-7 {
        stroke-width: .9px;
      }

      .cls-1, .cls-2, .cls-4, .cls-5, .cls-6, .cls-7 {
        stroke-linecap: round;
        stroke-linejoin: round;
      }

      .cls-1, .cls-4 {
        fill: none;
      }

      .cls-2 {
        fill: #f4b167;
      }

      .cls-2, .cls-3, .cls-4, .cls-5, .cls-6, .cls-7 {
        stroke: #000;
      }

      .cls-3 {
        stroke-miterlimit: 10;
      }

      .cls-3, .cls-6 {
        fill: #fff;
      }

      .cls-5 {
        fill: #5b5754;
      }

      .cls-7 {
        fill: #b1c981;
      }
    </style>
  </defs>
  <g id="Layer_1-2" data-name="Layer 1">
    <g id="Travel_Mascot_4" data-name="Travel Mascot 4">
      <g id="body">
        <path id="body-2" data-name="body" class="cls-2" d="M35.06,17.55c-.95-2.19-1.85-2.68-3.31-3.27-.02,0-.03.03-.05.04C30.08,7.28,25.4.45,19.88.45S9.45,7.6,7.96,14.82c-.88.22-2.07,1.06-3.12,2.31-1.53,1.83-2.17,3.81-1.44,4.43.73.61,2.54-.35,4.06-2.15.02,5.88,2.77,9.72,6.79,11.49-.45.63-.87,1.47-1.17,2.44-.72,2.28-.56,4.35.36,4.64.92.29,2.24-1.32,2.96-3.6.31-.97.44-1.89.44-2.67.97.2,1.99.31,3.03.31,1.26,0,2.47-.15,3.61-.43.11.69.33,1.47.67,2.27.95,2.19,2.43,3.65,3.31,3.27.88-.38.83-2.47-.12-4.66-.32-.75-.71-1.4-1.12-1.94,3.52-1.86,5.91-5.46,6.03-10.76.93,1.71,2.14,2.77,2.91,2.44.88-.38.83-2.47-.12-4.66Z"/>
        <path class="cls-4" d="M16.86,18.24s.75,1.02,3.09,1.12c1.99.08,2.95-1.12,2.95-1.12"/>
        <g id="sunglasses">
          <path d="M21.29,10.48c-.34.49-.54,1.07-.54,1.71,0,1.65,1.34,2.99,2.99,2.99s2.99-1.34,2.99-2.99c0-.64-.2-1.23-.54-1.71h-4.89Z"/>
          <path d="M13.51,10.45c-.34.49-.54,1.07-.54,1.71,0,1.65,1.34,2.99,2.99,2.99s2.99-1.34,2.99-2.99c0-.64-.2-1.23-.54-1.71h-4.89Z"/>
          <line class="cls-3" x1="20.75" y1="12.19" x2="18.37" y2="12.19"/>
          <line class="cls-6" x1="25.76" y1="12.06" x2="27.69" y2="8.61"/>
          <line class="cls-6" x1="13.87" y1="12.06" x2="12.06" y2="8.84"/>
        </g>
      </g>
      <g id="suitcase">
        <rect class="cls-7" x=".45" y="27.15" width="7.35" height="8.42"/>
        <rect class="cls-5" x="5.6" y="35.52" width="1.14" height="2.04" rx=".53" ry=".53"/>
        <rect class="cls-5" x="1.42" y="35.52" width="1.14" height="2.04" rx=".53" ry=".53"/>
        <path class="cls-4" d="M6.07,26.92v-6.61s-.48-.92-.97-.97-1.97-.15-2.42.14-.69.73-.69.73v6.5"/>
        <line class="cls-1" x1="6.49" y1="33.45" x2="1.67" y2="33.45"/>
        <line class="cls-1" x1="6.44" y1="29.18" x2="1.61" y2="29.18"/>
        <line class="cls-1" x1="6.49" y1="31.46" x2="1.67" y2="31.46"/>
      </g>
    </g>
  </g>
</svg>