<?xml version="1.0" encoding="UTF-8"?>
<svg id="Layer_2" data-name="Layer 2" xmlns="http://www.w3.org/2000/svg" viewBox="0 0 321.99 788">
  <defs>
    <style>
      .cls-1 {
        fill: #57422a;
      }

      .cls-2 {
        fill: #223519;
      }
    </style>
  </defs>
  <g id="Helping_Werewolf_Screen" data-name="Helping Werewolf Screen">
    <g id="tree">
      <g>
        <polygon points="124.52 0 57.86 136.98 133.95 114.77 230.8 146.23 124.52 0"/>
        <polygon points="126.59 58.31 25.33 266.38 140.92 232.64 288.03 280.44 126.59 58.31"/>
        <polygon points="126.59 148.09 25.33 356.16 140.92 322.41 288.03 370.21 126.59 148.09"/>
        <polygon points="127.98 229.71 6.29 479.76 145.2 439.21 321.99 496.65 127.98 229.71"/>
        <polygon points="127.98 357.62 6.29 607.67 145.2 567.12 321.99 624.56 127.98 357.62"/>
      </g>
      <polygon class="cls-1" points="130.81 563.65 130.69 788 179.85 788 169.8 551.62 130.81 563.65"/>
      <polygon class="cls-2" points="118.23 9.26 51.57 146.23 127.66 124.02 224.51 155.49 118.23 9.26"/>
      <polygon class="cls-2" points="120.3 67.56 19.04 275.63 134.63 241.89 281.74 289.69 120.3 67.56"/>
      <polygon class="cls-2" points="120.3 157.34 19.04 365.41 134.63 331.67 281.74 379.47 120.3 157.34"/>
      <polygon class="cls-2" points="121.69 238.96 0 489.01 138.91 448.46 315.7 505.91 121.69 238.96"/>
      <polygon class="cls-2" points="121.69 366.87 0 616.92 138.91 576.37 315.7 633.82 121.69 366.87"/>
    </g>
  </g>
</svg>