<?xml version="1.0" encoding="UTF-8"?>
<svg id="Layer_2" data-name="Layer 2" xmlns="http://www.w3.org/2000/svg" viewBox="0 0 704.39 822.57">
  <defs>
    <style>
      .cls-1 {
        stroke-width: 8.27px;
      }

      .cls-1, .cls-2, .cls-3 {
        fill: #1e1d1d;
      }

      .cls-1, .cls-2, .cls-3, .cls-4, .cls-5, .cls-6, .cls-7, .cls-8, .cls-9, .cls-10, .cls-11, .cls-12, .cls-13, .cls-14, .cls-15, .cls-16 {
        stroke-miterlimit: 10;
      }

      .cls-1, .cls-2, .cls-3, .cls-6, .cls-7, .cls-8, .cls-9, .cls-12, .cls-17, .cls-13, .cls-14, .cls-15, .cls-16 {
        stroke: #000;
      }

      .cls-2 {
        stroke-width: 8.35px;
      }

      .cls-3 {
        stroke-width: 9.58px;
      }

      .cls-18, .cls-12 {
        fill: #726371;
      }

      .cls-4 {
        stroke-width: 2.83px;
      }

      .cls-4, .cls-5 {
        fill: #fff;
      }

      .cls-4, .cls-5, .cls-19, .cls-10, .cls-11 {
        stroke: #020202;
      }

      .cls-5 {
        stroke-width: 2.75px;
      }

      .cls-20 {
        fill: #560909;
      }

      .cls-19 {
        fill: none;
      }

      .cls-19, .cls-10 {
        stroke-width: 9.05px;
      }

      .cls-19, .cls-17 {
        stroke-linecap: round;
        stroke-linejoin: round;
      }

      .cls-6 {
        stroke-width: 11.93px;
      }

      .cls-6, .cls-17 {
        fill: #33312e;
      }

      .cls-7 {
        stroke-width: 7.12px;
      }

      .cls-7, .cls-9 {
        fill: #e20c0c;
      }

      .cls-8 {
        fill: #f9f6f4;
        stroke-width: 10.95px;
      }

      .cls-9 {
        stroke-width: 6.69px;
      }

      .cls-10, .cls-11 {
        fill: #020202;
      }

      .cls-11 {
        stroke-width: 8px;
      }

      .cls-12 {
        stroke-width: 6.94px;
      }

      .cls-17 {
        stroke-width: 7.88px;
      }

      .cls-13 {
        stroke-width: 4.32px;
      }

      .cls-13, .cls-14 {
        fill: #565656;
      }

      .cls-14 {
        stroke-width: 4.08px;
      }

      .cls-15 {
        stroke-width: 6.86px;
      }

      .cls-16 {
        fill: #ddbfda;
        stroke-width: 7px;
      }
    </style>
  </defs>
  <g id="Finding_Vampire_Screen" data-name="Finding Vampire Screen">
    <g id="Vampire">
      <g>
        <path class="cls-15" d="M301.69,271.9s-142.86,344.57-184.68,406.79c-41.82,62.22-91.67,124.28-91.67,124.28,0,0,114.43-56.79,148.96-40.88,34.53,15.92,69.8,54.63,69.8,54.63,0,0,19.94-35.93,53.46-46.04,33.53-10.12,75.62,28.03,84.32,36.29,8.7,8.26,60.02-77.6,106.06-61,46.04,16.6,77.83,54.78,77.83,54.78,0,0-.34-73.42,39.14-66.89,39.48,6.53,89.01,37.53,89.01,37.53,0,0-60.97-100.24-98.66-182.01-37.68-81.76-178.69-298.84-186.58-306.48-25.84-25.01-107-11-107-11Z"/>
        <path class="cls-9" d="M302.69,273.9s-161.26,332.35-201.79,393.33c-40.53,60.98-88.86,121.8-88.86,121.8,0,0,111-55.6,144.53-39.96,33.53,15.64,67.79,53.63,67.79,53.63,0,0,19.32-35.21,51.85-45.1,32.53-9.89,73.41,27.55,81.86,35.65s58.18-76.04,102.88-59.73c44.7,16.32,75.58,53.78,75.58,53.78,0,0-.39-72,37.93-65.56,38.32,6.44,86.41,36.88,86.41,36.88,0,0-59.26-98.35-95.9-178.56-36.64-80.21-153.85-290.12-162.28-296.15-14-10-100-10-100-10Z"/>
      </g>
      <path class="cls-20" d="M586.68,632.65l-160.49-303.25c-53,95-36.7,172.7-46,254l32,148s51.93-36.92,68-15,44,33,44,33l31-55,86,43-54.51-104.75Z"/>
      <path class="cls-3" d="M248.53,495.37l-50.34,231.06s26.23,26.85,53.79,23.97,45.93-15.34,45.93-15.34l17.22-135.19s4.61-42.19,12.66-43.14c9.45-1.13,9.16,185.04,9.16,185.04,0,0,11.48,10.55,37.89,18.22s56.21-9.1,63.23-18.22c8.85-11.51-15-248.32-15-248.32,0,0-109.08-69.99-174.53,1.92Z"/>
      <g>
        <path class="cls-17" d="M430.53,786.31c.12,15.55-20.7,22.11-52.33,22.36-31.63.24-46.85-10.34-46.97-25.89-.12-15.55,15.16-28.04,46.79-28.28,31.63-.24,52.28,2.7,52.51,31.81Z"/>
        <path class="cls-17" d="M415.19,778.32s1.63-36.47-27.94-33.19c-29.57,3.28-36.56,25.1-36.56,25.1"/>
      </g>
      <g>
        <path class="cls-6" d="M296.86,784.33c.12,15.55-20.7,22.11-52.33,22.36-31.63.24-46.85-10.34-46.97-25.89-.12-15.55,15.16-28.04,46.79-28.28,31.63-.24,52.28,2.7,52.51,31.81Z"/>
        <path class="cls-17" d="M281.52,776.33s1.63-36.47-27.94-33.19c-29.57,3.28-36.56,25.1-36.56,25.1"/>
      </g>
      <path class="cls-12" d="M164.34,298.98l-43.62-79.84c-1.72-3.15-6.21-3.28-8.1-.23l-4.35,7c-1.39,2.24-4.35,2.89-6.55,1.45l-8-5.23c-3.74-2.45-8.46,1.23-7,5.46l2.79,8.09c1.05,3.05-1.21,6.22-4.43,6.22h-5.02c-4.58,0-6.44,5.89-2.7,8.53l9.83,6.92c.11.08.21.15.31.24l62.91,52.68c1.71,1.43,4.2,1.46,5.94.06l6.8-5.45c1.78-1.42,2.28-3.91,1.18-5.91Z"/>
      <path class="cls-12" d="M541.95,323.37l77.75-54.85c1.91-1.35,1.66-4.26-.46-5.26l-11.51-5.43c-1.55-.73-2.2-2.6-1.43-4.13l7.18-14.31c1.31-2.6-1.42-5.38-4.05-4.13l-14.1,6.75c-1.89.91-4.11-.32-4.35-2.41l-1.43-12.4c-.34-2.96-4.29-3.73-5.72-1.11l-8.26,15.15c-.04.07-.08.15-.13.22l-45.93,69.69c-.8,1.22-.63,2.83.4,3.85l8.12,8.05c1.05,1.04,2.7,1.18,3.91.33Z"/>
      <path class="cls-12" d="M376.15,235.85s-.75,38.57,7.19,47.99c20.4,24.21-20.18,26.07-33.7,26.7s-53.9-12.57-53.19-19.54,28.89-19.15,25.2-35.61c-3.69-16.46.81-21.03.81-21.03l53.69,1.49Z"/>
      <g>
        <g>
          <path class="cls-8" d="M422.69,366.9c21.73,10.86,164.04-57.47,164-63-.04-5.53-29.61-35.93-38-46-14.38-17.26-95.41,62.59-105,53,0,0-8.7-9.83-52.23-31.51-4.13-2.06-9.06-1.66-12.79,1.06-6.54,4.76-17.1,11.67-23.42,11.72-6.44.05-16.88,3.82-36.29-8.01,0,0-14.09-12.92-40.94,6.25-17.76,12.68-30.7,16.6-43.32,8.49-13.42-8.63-86-51-86-51,0,0-53.67,36.29-46,43,14.56,12.74,180.12,101.14,180.12,101.14"/>
          <path class="cls-8" d="M416.81,371.32s14.15,60.71,19.89,177.7c2.03,41.41-1,29.54-1,29.54,0,0-50.79-20.1-95.95-28.97-40.35-7.92-101.1,7.71-113.57,11.13-1.06.29-2.06-.63-1.87-1.71l15.36-86.79,31.44-98.84"/>
        </g>
        <path class="cls-1" d="M312.37,298.85l24.89,93.76c.15.55.2,1.13.16,1.7l-9.62,141.73c-.16,2.38-1.91,4.35-4.25,4.8l-92.85,17.76c-3.56.68-6.72-2.36-6.18-5.94,5.82-38.18,34.7-214.08,79.22-256.32,2.87-2.72,7.62-1.31,8.64,2.51Z"/>
        <path class="cls-2" d="M384.46,287.54l-46.19,108.62-16.63,146.64,112.69,33.49s6.34-241.68-49.88-288.75Z"/>
        <path class="cls-7" d="M383.22,282.16l-20.91,8.3c-3.01-5.94-10.21-10.12-18.63-10.12-7.72,0-14.42,3.52-17.8,8.69l-16.52-10.98c-2.67-1.77-6.25,0-6.45,3.2l-1.68,26.57c-.2,3.2,3.13,5.41,6,3.99l17.88-8.87c3.04,5.88,10.21,10,18.57,10s15.53-4.13,18.58-10.01l16.05,12.69c2.51,1.99,6.23.51,6.7-2.66l3.86-26.34c.46-3.17-2.67-5.65-5.65-4.47Z"/>
        <ellipse class="cls-14" cx="352.42" cy="441.42" rx="8.6" ry="8.15"/>
        <ellipse class="cls-13" cx="350.4" cy="511.89" rx="9.11" ry="8.63"/>
      </g>
      <g id="Vampire-2" data-name="Vampire">
        <path class="cls-16" d="M228.19,138.9c0,65.45,53.73,129.5,120,129.5s120-64.05,120-129.5-53.73-118.5-120-118.5-120,53.05-120,118.5Z"/>
        <path class="cls-18" d="M414.19,92.4s22,71,16,96c-6.96,29.01-20,55-20,55,0,0,26.02-12.54,41-47,10-23,9.03-29.01,8-32-11-32-45-72-45-72Z"/>
        <path class="cls-11" d="M470.19,106.4c-2.49-15.68-5.73-27.03-13-38,4.62-19.51,15-74,3.74-62.94-10.42,10.24-37.42,21.65-54.6,24.97-37.98-19.29-84.25-15.06-118.21.78-17.58-3.53-42.97-14.28-52.53-24.56-11.41-12.25,1.18,33.74,6.59,56.75-36.75,47.17-8,109-8,109,0,0,19.9-42.34,28-55,16-25,23-28,45-44l40,39,44-39s18,10,47,52c5.71,8.27,24,44,24,44,0,0,15-19,8-63Z"/>
        <g>
          <path class="cls-10" d="M306.05,199.6c-1.32-.86-2.53,1.36-1.45,2.65,9.5,11.25,26.28,26.66,41.08,26.66,18.44,0,39.16-19.04,43.56-24.56.15-.19-.03-.49-.21-.36-5.5,3.95-29.35,17.2-41.35,15.93-11.03-1.17-27.94-11.38-41.64-20.31Z"/>
          <polygon class="cls-4" points="321.3 237.07 325.56 209.25 336.59 216.54 321.3 237.07"/>
          <polygon class="cls-5" points="371.11 239.09 358.67 217.25 370.4 212.09 371.11 239.09"/>
        </g>
        <path class="cls-19" d="M407.69,151.9s0-23-24-23c-19.72,0-19,22-19,22"/>
        <path class="cls-19" d="M321.7,153.77s0-23-24-23c-19.72,0-19,22-19,22"/>
      </g>
    </g>
  </g>
</svg>