<?xml version="1.0" encoding="UTF-8"?>
<svg id="Layer_2" data-name="Layer 2" xmlns="http://www.w3.org/2000/svg" viewBox="0 0 606.8 1107.49">
  <defs>
    <style>
      .cls-1 {
        stroke-width: 7px;
      }

      .cls-1, .cls-2 {
        fill: #72592d;
      }

      .cls-1, .cls-2, .cls-3, .cls-4, .cls-5, .cls-6, .cls-7, .cls-8, .cls-9, .cls-10 {
        stroke: #000;
        stroke-miterlimit: 10;
      }

      .cls-2 {
        stroke-width: 4px;
      }

      .cls-11 {
        fill: #071d33;
      }

      .cls-3 {
        stroke-width: 6px;
      }

      .cls-3, .cls-4, .cls-6, .cls-7, .cls-8 {
        fill: #442704;
      }

      .cls-4 {
        stroke-width: 3.37px;
      }

      .cls-5 {
        fill: #fff;
        stroke-width: 2px;
      }

      .cls-6 {
        stroke-width: 1.54px;
      }

      .cls-7 {
        stroke-width: 1.31px;
      }

      .cls-8 {
        stroke-width: 1.33px;
      }

      .cls-9 {
        fill: #dba90b;
        stroke-width: 2.91px;
      }

      .cls-10 {
        fill: #042751;
        stroke-width: 9px;
      }
    </style>
  </defs>
  <g id="Forest_Werewolf_Screen" data-name="Forest Werewolf Screen">
    <g id="Werewolf">
      <g id="wolf_body" data-name="wolf body">
        <path class="cls-3" d="M523.86,574.62c.06-.57.13-1.14.19-1.72l54.72,11.06-54.08-23.13c0-.37,0-.74,0-1.11l26.47-10.73-26.05-2.63,47.44-33.18-42.65,20.77,16.52-28.03-18.73,15.74,6.55-30.38,19.34,5.54-18.83-7.91,1.28-5.93-2.95,5.23-10.23-4.3,1.51-9.13,6.88-.63-6.52-1.53,1.69-10.18,14.4,5.15-9.58-8.65,26.68-8.19-30.35,4.79,1.82-10.98-3.6,9.45-7.74-6.98,33.43-26.2-39.88,20.38-15.07-13.59,28.42-12.62-35.62-5.46c-.1-.32-.2-.64-.3-.96l20.01-29.32-27.57,8.81c-.19-.46-.39-.92-.58-1.38l24.42-69.8-29.04,51.26-3.14-48.7-7.99,32.06-14.46-45.08,4.77-.5-4.99-.19-4.56-14.22,1.13,14.09-11.86-.44-9.16-25.67,3.87,25.47-4.65-.17c-4.31-3.72-8.56-6.9-12.72-9.53l9.8-3.4-15.26.22c-5.09-2.69-9.97-4.48-14.53-5.38l11.39-9.5-27.03,9.96c-.5.09-.99.18-1.49.27l27.64-37.18-40.13,39.78,3.26-25.95-16.16,24.94-9.36-58.77-1.93,57.11-.68-1.02c-.34-1.65-14.76-72.05-14.76-79.96s-62.78-4-62.78-4c0,0-.42,22-3.5,42.01l-11.78,31.35c-2.98,2.18-3.74,4.62-2.65,7.05l-3.35,8.92-8.08-24.88-3.74,26.05c-1.02-.17-2.08-.32-3.16-.47l-31.07-45.3,13.51,31.34-9.42,10.16-45.27-26.87,28.86,26.84-12.03,14.95-1.36-21.43-6.51,23.89-11.3-43.48,7.07,51.91-15.25-21.15,8.61,27.55-42.3-38.62,36,43.64-6.2-2.43.11-1.13-.31,1.06-52.08-20.39,48.94,31.04-7.67,26.03c-1,1.58-1.99,3.18-2.97,4.81l-4.31-24.6-5.7,25.95-10.75-18.59,4.8,24.29-29.46-33.91,29.43,43.35-23.07-12.16,19.97,20.84-55.07-15.76,51.65,23.07-26.37,2.33-8.65-7.26,4.31,7.64-31.85,2.81,35.53,3.72,16.25,28.83-51.43-27.86,47.04,44.19-30.41,8.81,24.61,9.39-55.97,33.7,47.66-18.17-24.33,33.76,22.87-16.83-19.48,49.85,18.05-25.9c-.23.99-.47,1.98-.7,2.99-.17.77-.34,1.53-.51,2.3l-16.27,28.75-47.69-18.12,42.88,26.6-2.57,4.54,3.65-3.87,9.4,5.83-56.51-2.68,56.27,10.73-27.21,9.61,26.07-.46-45.8,25.44,41.58-17-15.22,19.52,17.97-11.75-2.16,8.43c-.9,2-1.62,3.98-2.1,5.88-.35,1.36-.59,2.72-.74,4.08-1.55,2.38-2.59,4.72-3.08,6.83-2.84,2.38-5.35,6.63-6.7,11.88-2.34,9.14-.23,17.8,4.71,19.36,1.86.59,3.86.07,5.76-1.28.33,5.31,2.35,9.44,5.61,10.46,3.28,1.03,6.98-1.35,9.79-5.73-.16,6.35,1.96,11.51,5.66,12.67,3.25,1.02,6.91-1.3,9.7-5.6,1.01,4.33,3.38,7.64,6.72,8.69,5.9,1.86,12.58-4.04,14.91-13.18,1.34-5.25.95-10.41-.73-14.22.25-.87.41-1.84.5-2.89,3.2-3.38,5.61-7.61,6.87-12.51.72-2.82,1.12-6.08,1.21-9.54l17.59,28.99-7.63-43.77,33.52,19.96-29.72-29.46,29.38-.75-24.26-9.7,35.58-13.77-27.93,5.38,22.73-17.27-21.8,6.93,10.97-17.56,4.93,6.04-2.9-9.29,4.53-7.26-5.45,4.32-4.16-13.33,4.99-9.1,26.16,11.92-23.05-17.59,4.55-8.3,14.43-1.13,18.68,2.11-21.68,14.67,29.79-3.35-8.36,30.63,14.88-20.21.12,38.21,17.19-10.31c.99,21.9,5.58,40.57,12.89,55.62-21.35,18.6-44.05,55.15-60.33,101.57-1.91,5.44-3.66,10.84-5.28,16.19l-11.27-52.15,5.96,71.68c-.07.3-.15.6-.22.9l-15.43-33.94,5.24,40.06-17.43-17.48,14.25,29.83-40.87-24.45,44.66,37.47-26.18.68,26.83,13.62-31.61,11.01-13.34-12.08,9.58,13.39-21.77,7.58,24.93-3.18,11.57,16.16-23.52,23.28-6.62-1.73,5.43,2.9-10.28,10.18,13.41-8.51,43.72,23.35c-.05.96-.1,1.91-.15,2.88l-25.01,11.66,24.64,3.43c0,.32,0,.65,0,.97,0,.11,0,.23,0,.34l-46.5,37.87,42.93-24.18-16.9,33.35,18.94-18.56-8.86,46.27,13.69-28.21c.57,3.85,1.21,7.59,1.92,11.19l-9.46,63.23,12.92-48.37c1.69,6.15,3.58,11.74,5.65,16.67-6.54,13.25-10.4,26.7-11.5,30.67-1.61,5.82-4.35,10.72-4.6,16.07-9.22-.5-17.12,3.64-18.75,10.45-.76,3.2.52,6.6,4.52,8.6-1.42,2.13-5,3-4.89,7.95.19,8.72,7.29,15.05,18.89,15.05.95,0,5.09-.91,6-1,.4.77.44,3.32,1,4,5.61,6.83,16.71,6.19,25.68-1.17,5.22-4.28,7.74-12.48,8.32-17.83,10.15-8.33,19.73-18.99,18.43-31.94-.71-7.05-1.76-18.42-3.27-29.98,1.73-2.79,3.39-5.98,4.94-9.54l49.71,54-43.09-73.48c.06-.22.12-.45.18-.67l53.76,19.4-50.65-33.3c.1-.55.21-1.11.31-1.67l27.18-9.77-24.83-5.8c.03-.24.06-.49.09-.73l50.39-33.92-44.95,20.18,19.86-31.67-20.55,16.76,3.45-11.99,4.18,5.22-2.87-9.77,3.17-11.01,10.58,6.4-9.25-11.04,1.43-4.96,34.07,12.57-32.86-16.78,1.12-3.9-2.06,3.42-10.73-5.48.28-1.13,23.67-.4-21.89-6.89.79-3.24,49.42-11.22-47.64,3.92,1.5-6.14,10.7-7.16.18.31-.07-.38,14.7-9.84,12.32,12.75-10.04-14.27,14.16-9.48-16.08,6.76-14.58-20.72c1.13-2.18,2.24-4.4,3.34-6.66l15.42,4.1-12.15-10.99c1.45-3.14,2.87-6.35,4.26-9.62l14.78-.56-2.86.68,50.95,1-13.77,20.92,19.62-7.4-9.98,29.6-1.89-.77,1.81,1.01-6.32,18.75,9.35-17.07,12.07,6.71.6,7.21,1.44-6.07,7.94,4.41,2.55,10.21-8.27-.15-9.78-18.57,9.4,33.15-30.11,5.74,15.84-.75,9.5,17.41-13.86,8.6-20.16-11.16,16.41,13.49-4.58,2.84,5.5-2.09,36.89,30.32-25.15,8.19,29.97,13.3-49.5,45.78,53.01-26.57-37.61,98.31,48.58-76.65c1.01,2.63,2.07,5.09,3.17,7.38-6.54,13.83-12.86,30.11-16.4,39.01-4.81,12.09,1.47,24.98,8.93,35.78-.92,5.3-.75,13.88,3.09,19.43,6.59,9.54,17.1,13.22,24.37,8.19.73-.5,1.47-2.94,2.06-3.57.85.34,4.58,2.35,5.49,2.61,11.15,3.19,19.72-.93,22.31-9.27,1.47-4.73-1.74-6.56-2.51-8.99,4.4-.82,6.57-3.74,6.72-7.03.31-7-6.15-13.15-15.14-15.21,1.23-5.2-.05-10.67,0-16.71.04-4.33.03-19.5-3.01-34.77,1.9-2.63,3.72-5.72,5.44-9.26l31.12,37.36-20.99-52.53,24.99,11.53-22.02-24.51,29.42-7.3-25.21-7.17,52.67-27.28-45.74,14.9,21.27-26.99-21.27,13.57,13.16-34.58,15.75,10.89-14.32-14.66.51-1.33-.79,1.04-9.8-10.04,4.25-12.88,30.5,9.08-29.08-13.36,4.36-13.22,1.39-.14-1.25-.29.7-2.11-.97,2.05-18.96-4.32-.85-2.24,46.48-12.61-44.44,6.54,19.46-15.31-20.26,7.1,12.58-23.41-11.23,9.23-3.31-7.57,6.36-14.12,5.08,2.8-4.21-4.72,5.05-11.21-6.62,9.45-16.13-18.1,46.02,12.08-50.84-22.42c-.13-.57-.25-1.14-.38-1.71l22.94-7.24-25.95-4.93c-.24-.9-.48-1.79-.73-2.7l46.56-32.79-49.87,21.44c-.29-.93-.58-1.87-.88-2.81l17.62-36.11-22.64,21.34c-14.7-40.56-34.29-73.43-53.32-92.67,6.81-15.27,12.68-34.95,17.96-59.68l4,4-3.62-7.86c2.43-5.97,4.72-12.29,7.01-18.89l4.43-11.92-4.76,35.94,13.22-39.02,3.25,19.86,3.69-31,.31.66-.38.08.49.14,13.96,30-7.23-28.07,41.54,11.91c.24,1.14.48,2.29.74,3.44.14.64.29,1.28.44,1.92l-20.14,8.99,22.36.2c.2.78.4,1.56.61,2.33l-41.94,30.42,41.15-21.51-14.63,25.77,17.64-15.22-5.78,34.41,13.07-24.13c.65,1.66,1.3,3.27,1.97,4.85l-5.88,52.28,4.97-18.65c.48,1.54,1.08,3.03,1.81,4.44-.21,1.03-.32,2.01-.33,2.91-2.68,3.18-4.5,8.03-4.68,13.44-.31,9.43,4.44,16.96,10.63,16.83,3.5-.07,6.7-2.59,8.88-6.46,1.48,4.91,4.34,8.17,7.75,8.1,3.88-.08,7.35-4.44,8.98-10.58,1.46,5,4.35,8.32,7.79,8.25,3.42-.07,6.51-3.47,8.31-8.47,1.44,1.83,3.22,2.88,5.17,2.84,5.18-.11,9.63-7.84,9.94-17.26.18-5.41-1.05-10.2-3.1-13.28.11-2.16-.23-4.7-1.05-7.42.23-1.35.39-2.73.43-4.13.14-4.11-.58-8.82-1.99-13.58l23.17,16.11-21.35-33.44ZM62.71,564.68l-7.69-2.92,9.04-9.57c-.57,4.26-1.02,8.43-1.35,12.5ZM98.89,419.99l-14.73-12.36,18.28,1.91c-1.29,3.53-2.47,7.02-3.55,10.45ZM166.92,457.88c1.17,1.66,2.3,3.32,3.42,4.98l-4.13-4.07c.24-.31.48-.6.72-.91ZM163.01,462.78l4.21,5.42-7.3,6.15-4.5-2.82c2.53-2.74,5.07-5.67,7.6-8.75ZM171.95,497.99l-9.69-1.97,7.37-5.94,6.04,7.04-3.71.87ZM176.41,498l.94,1.09-2.38-.48,1.44-.61ZM163.14,500.05l-8.28,1.94,4.91-3.96,3.37,2.02ZM154.71,492.67l6.72-12.14,6.42,7.49-13.14,4.65ZM150.25,476.85c1.42-1.4,2.85-2.87,4.27-4.39l3.2,3.73-11.91,10.03,4.44-9.37ZM136.35,335.39l5.47,3.47c-2.25,2.74-4.47,5.59-6.65,8.55l1.18-12.02ZM145.93,557.86l-13.87,11c.67-2.06,1.32-4.15,1.94-6.27l6.34-11.57,5.59,6.85ZM144.02,536.76l-2.4-7.7c.03-.2.07-.41.1-.61l6.44,2.93-4.14,5.37ZM152.42,525.87l-8.25-6.3,13.95-1.09-5.7,7.39ZM155.3,512.03l-7.14-2.11,18.45-7.79,14.59,8.75-25.89,1.15ZM163.58,476.64l4.24-7.66,15.59,20.08-19.83-12.42ZM187.25,299.38c-2.67,1.46-5.41,3.13-8.18,4.98l4.03-13.62,6.53,6.08-2.38,2.56ZM203.85,292.57l-3.63-2.16,6.85-10.94,5.11,11.87c-2.57.06-5.37.48-8.33,1.23ZM129.88,824.65l25.95-3.31-14.14,14-11.81-10.69ZM158.6,877.06l-42.18-11.01,25.09-15.92,17.37,24.25c-.1.89-.19,1.78-.28,2.67ZM151.22,843.98l6.98-4.43c.62,4.81,1.51,9.22,2.68,13.18l-9.67-8.75ZM228.74,842.07c.47-.62.94-1.26,1.41-1.89l.2,1.22-1.61.68ZM230.9,900.95c0-.09,0-.19,0-.28l.1.13-.09.15ZM231.84,863.27l-1.66-.52,2.02-.46-.36.98ZM229.66,854.7l2.63-1.76.25,1.52-2.88.24ZM294.02,636.41c4.4,15.47,9.97,84.8,15.41,102.77l-34.79,9.37c6.79-21.44,14.23-94.05,19.38-112.14ZM242.13,882.34l-1.73,2.87-4.25-5.08,5.98,2.21ZM237.37,890.24l-2.04,3.38-1.65-5.62,3.69,2.23ZM235.15,854.25l-1.4.12.38-2.66,2.6-1.74-1.57,4.28ZM235.92,839.06l1.28-9.09c1.25-1.93,2.5-3.91,3.74-5.93l3.25,5.61-2.58,7.02-5.69,2.39ZM242.74,836.19l1.55-6.36,2.66,4.59-4.21,1.77ZM262.58,827.85l-13.23,5.56-3.37-17.98c.56-1,1.12-2,1.67-3.01l14.92,15.43ZM292.41,778.38l-26.82-4.42c1.57-3.98,3.1-8.04,4.58-12.17l39.86-20.62c1.41,4.57,2.93,9.18,4.55,13.82.27.77.54,1.52.81,2.29l-21.39-1.87,25.16,16.63-26.76,6.34ZM324.04,828.21l9.67-17.66,1.87,22.38-11.54-4.72ZM338.44,834.09l2.73-11.5,3.51,14.05-6.24-2.55ZM428.27,812.22c-.06-2.15-.16-4.34-.3-6.57l2.7,3.14-2.4,3.42ZM455.05,896.17l-20.17,26.58c.02-.41.04-.82.06-1.24l10.55-31.96,9.57,6.62ZM434.46,881.93l6.73,4.66-5.97,12.59c-.11-5.88-.37-11.64-.76-17.25ZM444.46,879.68l-11.28-11.55c-.15-1.26-.3-2.52-.46-3.77l16.65,4.96-4.91,10.36ZM457.3,852.6l-5.85,12.33-7.66-3.52-2.75-7.22,16.26-1.59ZM439.76,854.32l3.76,6.97-12.03-5.53c-.03-.21-.07-.42-.1-.62l8.38-.82ZM433.65,846.63l1.71-.46.53.98-2.24-.51ZM438.82,818.29l-8.73,7.17-.12-.33,5.07-11.26,3.78,4.41ZM440.99,794.06l-6.6,9.43-7.51-17.21,14.12,7.78ZM349.22,854.82l2.16,8.62-4.38.83-6.63-12.58,8.85,3.13ZM347.07,891.79l-2.19-2.17,1.43-.54.77,2.71ZM325.67,870.66l15.21-.72,3.48,12.28-4.29,2.66-14.4-14.22ZM323.18,897.87l14.13-5.37,10.3,18.89-24.43-13.52ZM353.47,876.56l-3.71-7.04,3.1-.15,1.64,6.55-1.03.64ZM363.11,870.58l-2.97,1.84-.67-3.36,3.83-.18c-.06.57-.12,1.13-.19,1.7ZM364.3,860.98l-6.21,1.18-.91-4.53,7.23,2.55c-.04.26-.08.53-.11.79ZM363.1,851.51l-7.17-.13v-.07s-1.99-5.74-1.99-5.74h0s8.72,4.83,8.72,4.83l.44,1.1ZM359,841.22l.61,1.53-6.21-2.54-.71-7.07,6.3,8.08ZM430.39,308.57l.18,1.17c-.37-.36-.74-.72-1.11-1.07l.93-.1ZM422.5,449.01c1.92,2.44,3.85,4.78,5.78,7.02l-14.79,7.18c2.77-4.75,5.76-9.49,9.01-14.21ZM406.5,515.95l-3.22-12.5,15.87,4.26-10.42-17.97,18.4-3.57,15.88,22.24-36.52,7.54ZM443.44,483l.08-.02c0,.11,0,.22,0,.33l-.08-.31ZM443.54,480.81l-29.53-3.03,20.19-15.2c3.25,3.42,6.49,6.57,9.69,9.37-.19,2.85-.3,5.81-.34,8.86ZM440.47,320.14l-4.34-12.17,10.96-1.15,1.91,23.83c-2.82-3.72-5.67-7.23-8.53-10.51ZM531.74,490.56l-5.66,10.03-5.13-5.28,1.24-7.48,9.55,2.73ZM507.15,455.55l6.23,2.23-11.36,1.8,5.13-4.02ZM513.1,487.23l-2.71-2.79,3.4.97-.69,1.81ZM515.54,480.83l-8.64-3.63c-.11-.27-.23-.53-.34-.8l11.05-1.02-2.08,5.44ZM503.14,467.55l19.77-6.07-3.75,9.83-16.03-3.76ZM518.77,513.56c-.16-.67-.33-1.34-.5-2.01l2.16-13.03,5.31,2.69-6.96,12.34Z"/>
        <path class="cls-1" d="M384.98,409.62c-.02-1.22-.07-2.41-.13-3.6l32.9,3.18-35.81-22.46-.41,1.67c-.29-.85-.6-1.68-.94-2.5l1.43.49,23-23-32.43,9.23c-.89-1.05-1.83-2.06-2.81-3.04l1.24-14.2-13.52,5.09c-2.22-1.23-4.56-2.37-7.05-3.41l4.16-20.82-23.51,8.34-.49-16.85-26.6,20.78c-1.37-.04-2.76-.08-4.16-.1l7.59-33.97-26.17,34.27c-.82.04-1.64.08-2.45.12l-14.93-29.75.48,30.24-12.35-11.95-5.18,15.8c-2.46.59-4.82,1.23-7.07,1.92l-14.38-15.24-6.81,24-14.03-9.35,1.12,24.42c-1.87,3.1-3.37,6.41-4.49,9.95l-20.88-23.15,10.65,34.22-20.25,2.38,28.04,14.27c.2,2.37.47,4.79.83,7.28l-5.36,4.74,7.73,7.93c.51,2.27,1.08,4.57,1.7,6.92l-20.32,9.25,18.29,14.75-12.71,9.87,27.75,9.74c.55,1.66,1.1,3.31,1.67,4.95l-27.93,11.93,9.6.58-10.73,7.36,36.27-.49c.28.69.57,1.38.85,2.07l-4.07,10.74,10.52,3.41c1.17,2.33,2.36,4.61,3.59,6.82l-12.52,16.17,23.06,4.54-6.66,14.65,26.68-1.41s.02,0,.02.01l-19.98,19.98,32.98-15.08c1.32.28,2.66.52,4.02.69v11.39l19.09-12.72c.91-.25,1.81-.54,2.7-.84l17.21,9.56v-19.26c.46-.37.92-.76,1.38-1.15l12.62,5.41,2.96-22.95c.13-.18.26-.37.38-.55l13.82,7.57-2.61-26.53c.63-1.23,1.25-2.49,1.86-3.75l24.58,18.3-14.48-39.72-1.26,1.06c.19-.49.38-.98.57-1.46l23.47,9.45-17.6-25.72c.6-1.78,1.2-3.56,1.78-5.35l16.53.65-11.22-17.76c.37-1.24.73-2.48,1.09-3.72l22.49,1.64-8.98-21.72,15.89-2.56-21.32-23.66Z"/>
        <g>
          <path class="cls-10" d="M409.37,727c.42-.15.65-.22.65-.22l-41-139.37-141,6s-56,123.95-57,133.37c-.06.54.27,1.11.89,1.71l-4.89,21.92,13.35-9,19.51,22,9.24-17,10.27,31,15.41-23,10.27,16,17.95-13,4,18,13-20,13-74s6,78.86,13,78.86c.24,0,.6-.04,1.05-.12l10.95,14.26,11.18-9.95,13.32,11.87,8.73-16.84,17.24,21.56,7.41-31.78,10.63,16.13,17.34-23.62,13.98,7.8-8.49-22.58Z"/>
          <path class="cls-11" d="M367,740.26l15.88,1.56c4.75-1.43,18.12-10.58,18.25-17.09l-38.23-125.79c-.73-3.53-4.32-1.44-8.94-.76l-15.94,1.23c-5.45.8,7.21,37.07.24,86.51l7.98,48.22c.71,4.17,6.7,12.9,20.76,6.12Z"/>
        </g>
        <polyline class="cls-6" points="367.88 816.19 382.99 852.83 380.24 821.69 395.36 837.71 381.62 801.08 409.1 826.72 396.73 798.33 422.38 805.2 407.72 787.34"/>
        <polyline class="cls-6" points="172.79 803.64 164.14 842.31 179.77 815.23 182.94 837.04 192.72 799.15 200.5 835.92 206.67 805.57 223.73 825.92 221.98 802.88"/>
        <polyline class="cls-6" points="172.62 927.57 187.74 964.21 184.99 933.07 200.1 949.1 186.36 912.46 213.84 938.11 201.48 909.71 227.12 916.58 212.47 898.72"/>
        <polyline class="cls-6" points="387.21 914.03 360.04 942.87 387.29 927.56 378.9 947.93 406.64 920.33 394.57 955.93 415.36 932.98 419.65 959.18 429.9 938.48"/>
        <polyline class="cls-6" points="427.92 361.26 405.83 394.18 430.21 374.6 425.27 396.07 448.11 364.3 442.04 401.39 458.79 375.34 467.32 400.49 474.04 378.38"/>
        <polyline class="cls-6" points="107.56 430.2 122.67 466.84 119.92 435.69 135.04 451.72 121.3 415.08 148.78 440.73 136.41 412.34 162.06 419.21 147.4 401.34"/>
        <polyline class="cls-6" points="467.56 536.2 482.67 572.84 479.92 541.69 495.04 557.72 481.3 521.08 508.78 546.73 496.41 518.34 522.06 525.21 507.4 507.34"/>
        <polyline class="cls-2" points="254.84 388.05 232.76 420.96 257.13 401.38 252.19 422.85 275.04 391.09 268.96 428.18 285.71 402.13 294.24 427.27 300.96 405.17"/>
        <polyline class="cls-2" points="281.21 496.2 296.58 532.73 293.61 501.61 308.84 517.53 294.84 480.99 322.5 506.44 309.93 478.13 335.63 484.82 320.84 467.06"/>
      </g>
      <g id="wolf_head" data-name="wolf head">
        <g>
          <polygon class="cls-5" points="164.71 291.37 170.92 257.72 142.62 265.23 164.71 291.37"/>
          <polygon class="cls-5" points="218.5 254.63 227.96 233.25 199.66 240.77 218.5 254.63"/>
          <polygon class="cls-5" points="201.06 262.53 210.53 241.15 182.23 248.67 201.06 262.53"/>
          <polygon class="cls-5" points="180.78 270.15 190.25 248.77 161.95 256.29 180.78 270.15"/>
          <polygon class="cls-5" points="233.62 247.47 243.09 226.09 214.79 233.61 233.62 247.47"/>
        </g>
        <path id="wolf_head-2" data-name="wolf head" class="cls-4" d="M355.59,174.68l19.98-.41-24.45-14.19,19.53,2.06-19.95-16.43,20.65,4.31-9.19-8.33,30.08,2.98-30.28-15.78,8.54-2-24.68-10.15,14.37-.42-19.12-7.62,13.75-6.89-11.05-1.51,16.16-14.2-13.05-.75,14.75-14.81-7.64-1.67,16.08-25.64-11.79,7.94,9.19-36.76-12.08,24.11-9.94-15.69-.52,12.81-12.68-5.47-.59,7.53-5.29.15,10.17-17.5-19.18,20.98.25-10.59-9.53,20.61-4.07-4.02-3.33,15.28-5.65-7.75-2.39,15.9-3.43-3.98-13.12-49.86-.62,42.13-12.4-18.28-.94,28.37-9.42-18.87-6.08,25.14-7.62-20.82-3.63,11.89-14.72-28.98.61,25.99-3.61,2.37-7.05-29.43-2.58,13.98-19.82-32.29,8.76,25.5-6.19-1.33-.27-7.05-11.17,3.9-.04-12.08-9.12,13.77-9.7-23.83,6.79,35.44-9.97-8.62,13.13,25.67-6.68.82,12.32,15.36-11.34-.58,13.56,14.93-9.63.33,11.59,7.76.86,4.72-56.79,5.07,41.32,9.63-22.24,10.62,27.64,7.1-21.81,7.02,22.7,12.42-23.12,4.51,10.48,6.76-33.59,11.07,34.19,6.33-9.45,7.04,24.76,1.3c.06.23.12.46.18.69l-20.84,2.01-8.29-7.62-3.03,8.72-.87.08-5.2-13.21-.51,13.76-.57.05-3.17-6.18-2.79,6.76-1.73.17-4.41-10.61-.78,11.11-23.29,2.25s.6,8.92,4.21,19.95l-4,11.03,7.98-1.04c.18.38.36.77.56,1.15l-7.28,9.47,9.84-4.77c.44.75.91,1.49,1.39,2.22l-4,5.84,7.68-.81c.29.36.58.73.88,1.08l-7.55,9.33,11.48-5.22c.53.49,1.07.97,1.63,1.44l-2.29,5.69,6.8-2.28c.49.32.99.64,1.49.94l-5.22,10.49,10.5-7.9c17.01,6.21,99.46-43.32,120.46-17.32l-90,46s3.08,15.09,13.8,16.58l2.04,6.28,5.97-6.44c.51-.08,1.04-.17,1.57-.27l2.67,12.32,5.08-12.7,13.11,9.36,2.25-12.35,13.47,5.61-1.12-11.23,26.93,2.35-8.96-10.21,20.02.93-1.46-6.72,25.63,3.36-14.83-13.19,5.67-.72,22.54,16.65-13.39-22.09,17.4,4.95-8.54-15.07,14.87,6.35-2.76-15.27,13.87,8.01-.61-7.5,23.07,9.66-12.14-17.56,9.02.99-1.48-1.53,41.37,12.2-36.56-20.5,19.98-.41-24.45-14.19,19.53,2.06-19.95-16.43,20.65,4.31-9.19-8.33,30.08,2.98-30.28-15.78,8.54-2-20.06-8.25c0-.66,0-1.31-.02-1.97l54.32,16.01-36.56-20.5Z"/>
        <ellipse cx="102.1" cy="212.83" rx="19.09" ry="15.16"/>
        <path class="cls-9" d="M285.99,135.57c-7.22-4.17-13.33-9.18-18.01-14.47-2.78,6.44-4.46,14.74-4.46,23.81,0,20.43,8.51,37,19,37s19-16.57,19-37c0-.85-.02-1.7-.05-2.54-5.09-1.57-10.33-3.83-15.48-6.81Z"/>
        <path class="cls-9" d="M218.08,131.98c7.22-4.17,13.33-9.18,18.01-14.47,2.78,6.44,4.46,14.74,4.46,23.81,0,20.43-8.51,37-19,37s-19-16.57-19-37c0-.85.02-1.7.05-2.54,5.09-1.57,10.33-3.83,15.48-6.81Z"/>
        <ellipse cx="221.52" cy="153.41" rx="6.5" ry="11"/>
        <ellipse cx="278.52" cy="157.41" rx="6.5" ry="11"/>
        <polyline class="cls-8" points="228.33 209.59 209.49 186.34 214.59 207.2 197.16 197.95 214.51 221.35 183.06 206.91 198.36 224.85 170.17 222.97 187.23 233.52"/>
        <polyline class="cls-7" points="325.22 103.54 351.14 84.61 327.38 91.71 337.27 75.86 311.11 93.57 326.37 65.27 306.39 80.52 307.35 56.67 295.96 72.38"/>
        <polyline class="cls-6" points="266.45 223.19 281.57 259.83 278.82 228.69 293.93 244.72 280.19 208.08 307.67 233.73 295.31 205.33 320.95 212.2 306.3 194.34"/>
        <polyline class="cls-6" points="227 92.32 200.37 62.97 213.51 91.34 193.86 81.38 219.2 111.19 184.65 96.37 205.91 118.9 179.45 121.12 199.29 132.96"/>
      </g>
    </g>
  </g>
</svg>