<?xml version="1.0" encoding="UTF-8"?>
<svg id="Layer_2" data-name="Layer 2" xmlns="http://www.w3.org/2000/svg" viewBox="0 0 855.56 581.88">
  <defs>
    <style>
      .cls-1 {
        stroke-width: .75px;
      }

      .cls-1, .cls-2, .cls-3, .cls-4, .cls-5, .cls-6 {
        stroke: #000;
        stroke-miterlimit: 10;
      }

      .cls-1, .cls-5 {
        fill: #a6b7a3;
      }

      .cls-7 {
        fill: #caf9f7;
      }

      .cls-2 {
        stroke-width: .5px;
      }

      .cls-2, .cls-3 {
        fill: #2f6051;
      }

      .cls-3, .cls-4 {
        stroke-width: 1.09px;
      }

      .cls-8 {
        fill: #6a897f;
      }

      .cls-4 {
        fill: #8cb5a8;
      }

      .cls-9 {
        fill: #92cc9a;
      }

      .cls-6 {
        fill: #222b28;
      }
    </style>
  </defs>
  <g id="Window">
    <g id="Window-2" data-name="Window">
      <rect class="cls-7" x="54.3" y="27.41" width="759.27" height="499.01"/>
      <path class="cls-9" d="M801.68,507.1c0-48.72-99.29-143.79-217.73-143.79-92.19,0-171.26,48.78-201.78,93.38-183.03,4.88-323.65,38.16-323.65,64.74,0,28.75,166,19.94,370.78,19.94s370.78,8.81,370.78-19.94c0-.74-.12-1.49-.34-2.24,1.29-3.4,1.96-7.39,1.96-12.09Z"/>
      <path class="cls-6" d="M54.02,27.56v508.52h750.83V27.56H54.02ZM304.58,522.54H66.55v-238.03h238.03v238.03ZM304.58,274.09H66.55V36.06h238.03v238.03ZM550.57,522.54h-238.03v-238.03h238.03v238.03ZM550.57,274.09h-238.03V36.06h238.03v238.03ZM796.89,522.54h-238.03v-238.03h238.03v238.03ZM796.89,274.09h-238.03V36.06h238.03v238.03Z"/>
      <polygon class="cls-2" points="30.5 .29 53.22 27.54 804.85 27.56 826.96 1.11 30.5 .29"/>
      <g>
        <polygon class="cls-5" points="30.87 1.29 23.44 526.42 56.34 526.09 54.3 27.41 30.87 1.29"/>
        <line class="cls-4" x1="41.94" y1="13.63" x2="42.14" y2="560.31"/>
      </g>
      <path class="cls-3" d="M19.99,529.87v24.34h816.56v-24.34c0-1.9-1.54-3.45-3.45-3.45H23.44c-1.9,0-3.45,1.54-3.45,3.45Z"/>
      <path class="cls-3" d="M.55,554.62v26.71h854.46v-26.71c0-.59-.48-1.07-1.07-1.07H1.62c-.59,0-1.07.48-1.07,1.07Z"/>
      <rect class="cls-8" x="1.68" y="553.11" width="853.31" height="2.15" rx="1.07" ry="1.07"/>
      <polygon class="cls-1" points="827.11 1.59 833.1 526.42 804.81 526.2 805.14 27.41 827.11 1.59"/>
    </g>
  </g>
</svg>