<?xml version="1.0" encoding="UTF-8"?>
<svg id="Layer_2" data-name="Layer 2" xmlns="http://www.w3.org/2000/svg" viewBox="0 0 802.51 917.36">
  <defs>
    <style>
      .cls-1 {
        fill: #28332c;
      }

      .cls-2 {
        fill: #1e211e;
      }

      .cls-3 {
        fill: #3c4740;
      }

      .cls-4 {
        fill: #0f110f;
      }
    </style>
  </defs>
  <g id="curtains">
    <g>
      <rect class="cls-2" x="101.39" y="59.81" width="528.07" height="603.24"/>
      <rect class="cls-4" x="131.91" y="95.8" width="218.26" height="233.03"/>
      <rect class="cls-4" x="374.21" y="348.77" width="216.79" height="282.52"/>
      <rect class="cls-4" x="133.61" y="347.7" width="214.22" height="282.52"/>
      <rect class="cls-4" x="370.96" y="96.29" width="220.69" height="233.03"/>
    </g>
    <g>
      <rect class="cls-1" x="0" y="6.91" width="802.51" height="6.73" rx="3.37" ry="3.37"/>
      <ellipse class="cls-1" cx="24.06" cy="9.48" rx="10.02" ry="9.48"/>
      <ellipse class="cls-1" cx="773.45" cy="11.02" rx="10.02" ry="9.48"/>
    </g>
    <g>
      <path class="cls-3" d="M746.16,6.22l-1.26,896.74s-24.65,6.95-33.49,6.95-15.17.63-20.22-3.16c-5.06-3.79-9.48-5.69-13.27-5.69s-22.75,0-32.86,5.06c-10.11,5.06-14.53,9.48-18.33,9.48s-13.9-.63-24.01-5.69c-10.11-5.06-13.27-8.85-19.59-6.95-6.32,1.9-13.27,5.69-15.8,5.69s-22.75-3.79-22.75-3.79l-.63-899.9,202.23,1.26Z"/>
      <path class="cls-1" d="M703.35,907.53s-4.07,1.75-9.31-.58-23.28-10.48-23.28-10.48l27-659.02,5.6,670.08Z"/>
      <path class="cls-1" d="M580.12,902.4s5.33,0,15.23,3.81c9.9,3.81,19.03,8.37,21.32,8.37s-7.47-782.74-7.47-782.74l-29.07,770.56Z"/>
    </g>
    <g>
      <path class="cls-3" d="M49.69,7.98l.82,896.74s15.96,6.95,21.69,6.95c5.73,0,9.82.63,13.1-3.16,3.27-3.79,6.14-5.69,8.59-5.69s14.73,0,21.28,5.06c6.55,5.06,9.41,9.48,11.87,9.48s9-.63,15.55-5.69c6.55-5.06,8.59-8.85,12.69-6.95,4.09,1.9,8.59,5.69,10.23,5.69s14.73-3.79,14.73-3.79l.41-899.9-130.96,1.26Z"/>
      <path class="cls-1" d="M77.4,909.28s2.64,1.75,6.03-.58c3.39-2.33,15.08-10.48,15.08-10.48l-17.49-659.02-3.62,670.08Z"/>
      <path class="cls-1" d="M157.22,904.16s-3.45,0-9.86,3.81-12.33,8.37-13.8,8.37,4.84-782.74,4.84-782.74l18.83,770.56Z"/>
    </g>
  </g>
</svg>