<?xml version="1.0" encoding="UTF-8"?>
<svg id="Layer_2" data-name="Layer 2" xmlns="http://www.w3.org/2000/svg" viewBox="0 0 477.47 779.08">
  <defs>
    <style>
      .cls-1 {
        stroke-width: 2.76px;
      }

      .cls-1, .cls-2, .cls-3, .cls-4, .cls-5, .cls-6, .cls-7, .cls-8, .cls-9, .cls-10, .cls-11, .cls-12, .cls-13 {
        stroke: #000;
      }

      .cls-1, .cls-5, .cls-6, .cls-7, .cls-8, .cls-9, .cls-10, .cls-11, .cls-13 {
        stroke-miterlimit: 10;
      }

      .cls-1, .cls-14 {
        fill: #fff;
      }

      .cls-2 {
        fill: #383128;
        stroke-width: 14.35px;
      }

      .cls-2, .cls-3, .cls-4, .cls-12, .cls-15 {
        stroke-linecap: round;
        stroke-linejoin: round;
      }

      .cls-3 {
        fill: #ffe357;
        stroke-width: 7.37px;
      }

      .cls-4 {
        stroke-width: 6.45px;
      }

      .cls-4, .cls-7, .cls-9, .cls-10 {
        fill: #77af69;
      }

      .cls-16, .cls-8, .cls-11 {
        fill: #678466;
      }

      .cls-5 {
        stroke-width: 11.46px;
      }

      .cls-5, .cls-6 {
        fill: #2f1d38;
      }

      .cls-6 {
        stroke-width: 13.03px;
      }

      .cls-17 {
        fill: #181619;
      }

      .cls-7 {
        stroke-width: 10.73px;
      }

      .cls-8 {
        stroke-width: 9.05px;
      }

      .cls-9 {
        stroke-width: 10.45px;
      }

      .cls-10 {
        stroke-width: 11.39px;
      }

      .cls-11 {
        stroke-width: 12.9px;
      }

      .cls-12 {
        stroke-width: 4.61px;
      }

      .cls-12, .cls-13 {
        fill: #8e8585;
      }

      .cls-15 {
        fill: none;
        stroke: #0a0a0a;
        stroke-width: 6.63px;
      }

      .cls-13 {
        stroke-width: 9.22px;
      }
    </style>
  </defs>
  <g id="Homescreen">
    <g id="Witch">
      <polygon id="back_of_hair" data-name="back of hair" class="cls-2" points="336.79 437.28 300 541.77 263.68 501.56 221.6 534.22 189.83 488.44 150.38 507.25 111.92 533.42 81.06 486.72 43.55 514.72 48.43 447.4 142.35 342.37 267.75 348.54 328.58 349.81 336.79 437.28"/>
      <g id="face">
        <path class="cls-8" d="M213.82,380.04s5.35,16.41-8.67,26.81c-14.02,10.4-19.86,13.41-19.86,13.41l48.41,7.62,14.3,2.63s-1.97-14.15-.77-24.22c1.2-10.07,10.25-24.77,10.25-24.77l-43.66-1.48Z"/>
        <path class="cls-10" d="M102.63,235.1c.67,70.69,61.01,160.51,136.07,159.8,75.07-.72,136.44-91.7,135.77-162.39-.67-70.69-62.07-127.42-137.14-126.7-75.07.72-135.37,58.6-134.7,129.3Z"/>
        <path class="cls-16" d="M158.98,250.05s3.47-9.29-.08-8.29c-34.01,9.54-56.55,61.36-34.41,81.94,58.12,54,79.06,57.72,79.06,57.72,0,0-18.79-20.71-34.63-55.89-15.84-35.17-9.94-75.47-9.94-75.47Z"/>
        <polyline class="cls-4" points="242.05 310.08 254.64 326.57 233.54 336.89"/>
        <g>
          <rect class="cls-1" x="208.9" y="360.55" width="9.69" height="11.51" rx="2.17" ry="2.17" transform="translate(265.89 -54.59) rotate(37.33)"/>
          <rect class="cls-1" x="228.52" y="368.85" width="7.46" height="8.8" rx="1.67" ry="1.67" transform="translate(49.98 -26.79) rotate(7.4)"/>
          <path class="cls-15" d="M206.69,346.76s6.15,15.26,17.42,18.55c11.27,3.28,30.16,0,30.16,0"/>
        </g>
        <g>
          <ellipse cx="203.57" cy="286.95" rx="16.59" ry="24.42" transform="translate(-2.73 1.95) rotate(-.55)"/>
          <ellipse class="cls-14" cx="203.74" cy="273.02" rx="8" ry="6.85" transform="translate(-2.59 1.95) rotate(-.55)"/>
        </g>
        <g>
          <ellipse cx="283.77" cy="288.95" rx="16.59" ry="24.42" transform="translate(-2.74 2.72) rotate(-.55)"/>
          <ellipse class="cls-14" cx="283.93" cy="275.02" rx="8" ry="6.85" transform="translate(-2.61 2.72) rotate(-.55)"/>
        </g>
      </g>
      <g id="hair">
        <path class="cls-2" d="M54.38,426.76l-35.59,101.79,42.29-31.57,13.67,32.19,24.23-36.1,34.06,31.85,16.1-50.84s17.79-27.89.42-100.83c-17.01-71.4-9.7-113.37,7.23-146.27,20.94-40.71,46.07-60.77,91.75-56.13,45.68,4.64,100.71,66.92,74.14,172.28-19.74,78.29-11.64,93.4-8.62,121.14,3.08,28.38-2.15,69.08-2.15,69.08l48.7-33.06,14.45,35.67,10.2-32.79,22.09,13.23-1.95-51.98c-.65-99.6-14.81-82.43-23.52-197.71-3.78-49.95-41.68-110.44-72.6-145.42-36.13-40.88-114.82-39.38-178.24,48.25-58.07,80.23-64.05,232.24-76.65,257.21Z"/>
        <path d="M104.89,477.55s11.36-24.55,9.16-51.42c-2.2-26.87-3.92-60.23-3.92-60.23"/>
        <path d="M68.79,466.76s15.41-18.45,13.22-45.75"/>
        <path d="M382.38,486.79c.41-26.41,11.39-52.37-10.25-119.24"/>
        <path d="M358.04,485.5c-5.76-16.79-11.8-25.34-13.59-67.74-1.28-30.33-1.75-82.07-1.75-82.07"/>
      </g>
      <g id="hat">
        <path class="cls-6" d="M380.38,183.1c26.53,5.87,90.48,11.16,90.56,19.74.19,19.53-127.96,44.53-229.96,45.51S6.7,226.8,6.52,207.27c-.08-8.26,58.03-14.81,82.74-21.06,0,0,46.06-11.64,41.08-40.94-3.91-23-33.41-24.56-61.75-.33-15.28,13.07-15.83-15.94-11.32-27.54,14.39-37,36.38-51.03,36.38-51.03C142.13,29.03,178.82,10.25,221.18,7.08c47.8-3.57,91.53,9.15,128.64,56.83,27.06,34.76,19.32,103.01,19.32,103.01-.73,11.09,11.24,16.18,11.24,16.18Z"/>
        <path class="cls-13" d="M135.14,145.22s47.86,25.4,119.77,30.06c54.28,3.52,112.37-19.79,112.37-19.79l-1.5,24.09s-77.36,28.95-141.85,15.62c-65.93-13.64-99.82-26.69-99.82-26.69l11.03-23.29Z"/>
        <rect class="cls-3" x="222.9" y="168.5" width="64.05" height="37.32" transform="translate(-1.77 2.44) rotate(-.55)"/>
        <rect class="cls-12" x="240.41" y="181.85" width="30.41" height="11.06" transform="translate(-1.77 2.45) rotate(-.55)"/>
      </g>
      <g>
        <path class="cls-11" d="M142.27,655.91s-15.33,69.6-15.52,74.93c-.18,5.33,40.07,9.75,40.07,9.75l8.27-85.85-32.82,1.17Z"/>
        <path class="cls-5" d="M189.21,754.76c-.49,14.25-19.81,19.47-48.8,18.48s-42.53-11.27-42.05-25.52,14.97-25.11,43.96-24.12c28.99.99,47.8,4.48,46.89,31.16Z"/>
        <path class="cls-5" d="M175.47,746.84s2.89-33.35-24.33-31.49c-27.22,1.87-34.46,21.6-34.46,21.6"/>
      </g>
      <g>
        <path class="cls-11" d="M239.06,655.47s-7.13,70.92-6.69,76.23c.44,5.31,40.93,5.02,40.93,5.02l-1.78-86.23-32.46,4.98Z"/>
        <path class="cls-5" d="M297.17,748.19c1.18,14.21-17.41,21.64-46.32,24.03-28.91,2.39-43.55-6.24-44.73-20.46-1.18-14.21,11.95-26.68,40.85-29.07s48-1.11,50.2,25.49Z"/>
        <path class="cls-5" d="M282.6,741.92s-1.01-33.46-27.82-28.44c-26.81,5.02-31.71,25.46-31.71,25.46"/>
      </g>
      <g>
        <path class="cls-7" d="M349.07,528.78s-1.78,9.17,13.97,23.91c15.74,14.75,17.62,22.06,8.12,34.11-9.49,12.05-33.17,10.62-36.6-5.2-3.44-15.82,4.91-13.86-2.18-27.83-7.09-13.97-5.21-21.12-5.21-21.12l21.9-3.88Z"/>
        <path class="cls-9" d="M83.06,532.73s-8.89,2.2-16.47,22.26c-7.58,20.06-13.48,24.74-27.75,21.27-14.27-3.47-21.54-25.08-8.55-34.65,12.99-9.57,14.24-1.35,24.25-13.41,10.01-12.05,17.12-13.33,17.12-13.33l11.4,17.85Z"/>
        <path class="cls-5" d="M255.32,414.25s-14.61,6.54-30,6.18c-15.39-.36-23.87-9.12-23.87-9.12,0,0-10.2-9.36-37.5,4.95-26.12,13.69-56.75,44.23-74.11,58.42-17.35,14.18-60.59,26.14-53,48.2,7.59,22.06,48.04,33.08,48.04,33.08,0,0,36.7-42.74,44.95-49.03,8.25-6.29,28.81-28.21,28.81-28.21,0,0-21.49,67.37-36.81,88.05-10.83,14.62-42.06,61.73-58.9,70.52-16.52,8.62,11.87,25.61,74.9,33.57,63.03,7.96,103.38,6.62,125.81.69,22.46-5.93,49.2-26.52,56.51-30.98,1.01-.62.85-2.13-.26-2.54-8.51-3.12-33.92-13.72-36.23-29.94-2.78-19.52-7.62-90.14-7.62-90.14l-1.44-42.18s20.26,34.52,25.56,50.85c5.29,16.33,10.6,31.86,23.56,32.16,12.96.3,39-3.95,40.96-18.49s-16.89-40.11-16.89-40.11c0,0-34.34-41.4-50.01-64.46-15.67-23.06-32.64-23.72-42.46-21.46Z"/>
        <path class="cls-17" d="M173.63,470.52s4.47,33.86,8,55c7.32,43.78,5.16,72.91,4,95-1,19,2,41-30,42-11.24.35-84.4-19.56-84.4-19.56,0,0,36.76-27.08,72.4-89.44,20-35,30-83,30-83Z"/>
      </g>
    </g>
  </g>
</svg>