<?xml version="1.0" encoding="UTF-8"?>
<svg id="Layer_2" data-name="Layer 2" xmlns="http://www.w3.org/2000/svg" viewBox="0 0 49.81 49.23">
  <defs>
    <style>
      .cls-1 {
        fill: #7a7777;
        stroke-width: .86px;
      }

      .cls-1, .cls-2, .cls-3, .cls-4, .cls-5, .cls-6, .cls-7, .cls-8, .cls-9, .cls-10, .cls-11 {
        stroke: #000;
      }

      .cls-1, .cls-3, .cls-4, .cls-6, .cls-7, .cls-9, .cls-11 {
        stroke-miterlimit: 10;
      }

      .cls-2, .cls-5, .cls-8, .cls-10 {
        stroke-linecap: round;
        stroke-linejoin: round;
      }

      .cls-2, .cls-11 {
        fill: #3d3d3d;
        stroke-width: .94px;
      }

      .cls-3, .cls-4, .cls-10 {
        fill: #a38d6f;
      }

      .cls-3, .cls-10 {
        stroke-width: 1.5px;
      }

      .cls-4 {
        stroke-width: 1.14px;
      }

      .cls-5 {
        stroke-width: 2px;
      }

      .cls-5, .cls-8 {
        fill: none;
      }

      .cls-6 {
        fill: #c0ddce;
        stroke-width: .63px;
      }

      .cls-7 {
        fill: #6b6969;
        stroke-width: 1.21px;
      }

      .cls-8 {
        stroke-width: 1.5px;
      }

      .cls-9 {
        fill: #474646;
        stroke-width: 1.14px;
      }
    </style>
  </defs>
  <g id="Layer_1-2" data-name="Layer 1">
    <g id="Gamer_Mascot_6" data-name="Gamer Mascot 6">
      <g id="chair">
        <path class="cls-7" d="M45.26,10.83c-1.83,0-3.32,1.5-3.32,3.32v17.21h-9.37c-1.62,0-2.95,1.33-2.95,2.95v.76c0,1.62,1.33,2.95,2.95,2.95h13.07c1.62,0,2.95-1.33,2.95-2.95V14.16c0-1.83-1.5-3.32-3.32-3.32Z"/>
        <path class="cls-8" d="M39.1,38.47v3.94s5.23.09,7.35,1.93l1.13.98"/>
        <path class="cls-8" d="M39.1,42.42s-4.67-.01-6.92,1.82c-.53.44-1.6,1.08-1.6,1.08"/>
        <circle class="cls-9" cx="30.6" cy="46.97" r="1.64"/>
        <circle class="cls-9" cx="47.6" cy="46.97" r="1.64"/>
      </g>
      <g id="computer">
        <rect class="cls-2" x="7.08" y="5.71" width="3.36" height="17.22"/>
        <rect class="cls-11" x=".57" y="30.66" width="2.08" height="18.1" rx="1.04" ry="1.04"/>
        <rect class="cls-11" x="17.48" y="30.51" width="2.08" height="18.1" rx="1.04" ry="1.04"/>
        <rect class="cls-4" x=".57" y="27.97" width="19" height="3.34"/>
        <line class="cls-3" x1="8.76" y1="22.93" x2="8.76" y2="27.46"/>
        <rect class="cls-11" x="12" y="25.35" width="7.56" height="2.11" rx="1.06" ry="1.06"/>
      </g>
      <g id="body">
        <path class="cls-6" d="M34.7,3.53c-7.54,0-13.65,9.64-13.65,18.47,0,3.02.73,5.37,1.97,7.18-.61.37-1.01.83-1.13,1.32-.56,1-.93,2.47-.93,4.13,0,3.01,1.17,5.46,2.62,5.46s2.62-2.44,2.62-5.46c0-.44-.03-.87-.08-1.28.38.04.76.06,1.16.06.57,0,1.11-.05,1.63-.13,1.76.54,3.71.79,5.78.79,7.54,0,10.89-3.09,10.89-11.92s-3.35-18.62-10.89-18.62Z"/>
        <path class="cls-6" d="M25.47,20.08c-.61-.03-1.29,0-2,.12-2.81.44-5.11,1.89-5.14,3.24-.03,1.34,2.23,2.07,5.05,1.63.71-.11,1.39-.29,2.01-.51"/>
        <ellipse class="cls-6" cx="28.88" cy="10.85" rx=".37" ry="1.66"/>
        <path class="cls-6" d="M23.14,14.46l-1.24,2.69c1.01.2,2.21-.56,2.81-1.87.97-2.11-.49-.77-1.58-.82Z"/>
      </g>
      <g id="headphones">
        <line class="cls-5" x1="35.8" y1="10.01" x2="35.8" y2="1"/>
        <polyline class="cls-10" points="34.13 14.6 30.2 16.66 27.42 16.33"/>
        <ellipse class="cls-1" cx="35.8" cy="13.89" rx="2.61" ry="3.88"/>
      </g>
    </g>
  </g>
</svg>