<?xml version="1.0" encoding="UTF-8"?>
<svg id="Layer_2" data-name="Layer 2" xmlns="http://www.w3.org/2000/svg" viewBox="0 0 45.25 47.52">
  <defs>
    <style>
      .cls-1 {
        fill: #bab8b5;
      }

      .cls-1, .cls-2, .cls-3, .cls-4 {
        stroke: #000;
      }

      .cls-1, .cls-2, .cls-4 {
        stroke-miterlimit: 10;
        stroke-width: .89px;
      }

      .cls-2 {
        fill: #63615e;
      }

      .cls-3 {
        fill: none;
        stroke-linecap: round;
        stroke-linejoin: round;
        stroke-width: 1.14px;
      }

      .cls-4 {
        fill: #f4ceec;
      }
    </style>
  </defs>
  <g id="Layer_1-2" data-name="Layer 1">
    <g id="Workout_Mascot_3" data-name="Workout Mascot 3">
      <g id="body">
        <path class="cls-4" d="M34.97,29.13c0-4.11-1.1-8.29-3.29-11.91.98,0,1.52-2.31,1.52-4.61s-.8-4.17-1.78-4.17-1.78,1.87-1.78,4.17c0,.71.01,1.02.14,1.6-2.03-2.48-4.45-3.77-7.15-3.77-2.55,0-4.92,1.46-6.89,3.71.08-.48.13-1,.13-1.55,0-2.3-.8-4.17-1.78-4.17s-1.78,1.87-1.78,4.17c0,2.13.68,3.86,1.56,4.11-2.22,3.63-3.59,8.27-3.59,12.4,0,5.26,2.23,8.68,5.6,10.47-.4.63-.74,1.39-.97,2.26-.66,2.49-.16,4.79,1.12,5.13,1.28.34,2.85-1.41,3.5-3.9.2-.77.28-1.5.28-2.18.9.15,1.84.24,2.81.24,1.6,0,3.13-.21,4.54-.64-.08.74-.05,1.57.12,2.44.5,2.53,1.96,4.37,3.25,4.11,1.29-.26,1.94-2.52,1.43-5.05-.26-1.3-.77-2.42-1.39-3.16,2.67-1.93,4.38-5.12,4.38-9.71Z"/>
        <path d="M25.7,24.69c0,1.39-1.13-1.74-2.52-1.74s-2.52,3.13-2.52,1.74,1.13-2.52,2.52-2.52,2.52,1.13,2.52,2.52Z"/>
        <polyline class="cls-3" points="19.1 16.85 21.73 17.89 19.1 18.81"/>
        <polyline class="cls-3" points="27.56 16.85 24.93 17.89 27.56 18.81"/>
      </g>
      <g id="barbell">
        <rect class="cls-1" x=".45" y="6.45" width="44.36" height="2" rx="1" ry="1"/>
        <rect class="cls-2" x="5.79" y=".45" width="3.5" height="14.01" rx="1.75" ry="1.75"/>
        <rect class="cls-2" x="3.04" y="3.62" width="2.76" height="8.01" rx="1.17" ry="1.17" transform="translate(8.83 15.24) rotate(180)"/>
        <rect class="cls-2" x="39.19" y="3.45" width="2.76" height="8.01" rx="1.17" ry="1.17" transform="translate(81.14 14.9) rotate(180)"/>
        <rect class="cls-2" x="36.02" y=".45" width="3.5" height="14.01" rx="1.75" ry="1.75"/>
      </g>
    </g>
  </g>
</svg>